<svg xmlns="http://www.w3.org/2000/svg" xmlns:xlink="http://www.w3.org/1999/xlink" viewBox="0 0 1920 1080"><defs><style>.cls-1{fill:#333;}.cls-13,.cls-17,.cls-18,.cls-2,.cls-25,.cls-34,.cls-36,.cls-37,.cls-42,.cls-43{fill:none;stroke-miterlimit:10;}.cls-2,.cls-43{stroke:#fefefe;}.cls-2{stroke-width:4px;}.cls-3,.cls-7{fill:#201f60;}.cls-3{opacity:0.02;}.cls-4{fill:url(#linear-gradient);}.cls-5{fill:url(#linear-gradient-2);}.cls-15,.cls-16,.cls-26,.cls-27,.cls-28,.cls-6,.cls-9{fill:#fff;}.cls-7{opacity:0.08;}.cls-8{fill:url(#linear-gradient-3);}.cls-9{opacity:0.1;}.cls-10{fill:#6147c6;}.cls-11{fill:url(#linear-gradient-4);}.cls-12{fill:url(#linear-gradient-5);}.cls-13,.cls-34{opacity:0.32;}.cls-13{stroke:url(#linear-gradient-6);}.cls-14{fill:url(#linear-gradient-7);}.cls-15{opacity:0.16;}.cls-16{opacity:0.11;}.cls-17{stroke:url(#linear-gradient-8);}.cls-18{stroke:url(#linear-gradient-9);}.cls-19{fill:url(#linear-gradient-10);}.cls-20,.cls-21{fill:#1a1a1a;}.cls-20{opacity:0.8;}.cls-21{opacity:0.13;}.cls-22{opacity:0.2;}.cls-23{fill:#4a1c7c;}.cls-24{opacity:0.17;}.cls-25{stroke:#f2f2f2;stroke-width:0.25px;}.cls-26{font-size:21.56px;font-family:SegoeUI-Bold, Segoe UI;font-weight:700;}.cls-27{opacity:0.05;}.cls-28{opacity:0.07;}.cls-29{fill:url(#linear-gradient-11);}.cls-30{fill:url(#linear-gradient-12);}.cls-31{fill:url(#linear-gradient-13);}.cls-32{fill:url(#linear-gradient-14);}.cls-33{fill:url(#linear-gradient-15);}.cls-34{stroke:url(#linear-gradient-16);}.cls-35{fill:url(#linear-gradient-17);}.cls-36{stroke:url(#linear-gradient-18);}.cls-37{stroke:url(#linear-gradient-19);}.cls-38{fill:url(#linear-gradient-20);}.cls-39,.cls-41{fill:#fefefe;}.cls-40{fill:#8fcafd;}.cls-41{font-size:35px;font-family:SegoeUIBlack, Segoe UI;}.cls-42{stroke:#fff;stroke-width:2px;}.cls-43{stroke-linecap:round;}</style><linearGradient id="linear-gradient" x1="635.58" y1="515.13" x2="635.58" y2="282.37" gradientUnits="userSpaceOnUse"><stop offset="0" stop-color="#8c3ded"/><stop offset="0.29" stop-color="#853fe7"/><stop offset="0.7" stop-color="#7343d6"/><stop offset="1" stop-color="#6147c6"/></linearGradient><linearGradient id="linear-gradient-2" x1="328.48" y1="262.67" x2="950.1" y2="262.67" gradientUnits="userSpaceOnUse"><stop offset="0" stop-color="#8c3ded"/><stop offset="0.31" stop-color="#883ee9"/><stop offset="0.61" stop-color="#7c41df"/><stop offset="0.91" stop-color="#6945cd"/><stop offset="1" stop-color="#6147c6"/></linearGradient><linearGradient id="linear-gradient-3" x1="531.09" y1="735.63" x2="850.95" y2="702.57" gradientUnits="userSpaceOnUse"><stop offset="0" stop-color="#d0a2da"/><stop offset="0.27" stop-color="#a9b0e9"/><stop offset="0.51" stop-color="#84bdf7"/></linearGradient><linearGradient id="linear-gradient-4" x1="674.57" y1="677.01" x2="675.31" y2="612.36" gradientUnits="userSpaceOnUse"><stop offset="0" stop-color="#8c3ded"/><stop offset="0.12" stop-color="#8c44ed"/><stop offset="0.28" stop-color="#8c59ed"/><stop offset="0.47" stop-color="#8b77ec"/><stop offset="0.52" stop-color="#826de4"/><stop offset="0.64" stop-color="#7058d3"/><stop offset="0.76" stop-color="#654bc9"/><stop offset="0.88" stop-color="#6147c6"/></linearGradient><linearGradient id="linear-gradient-5" x1="673.23" y1="635.8" x2="676.79" y2="636.75" gradientUnits="userSpaceOnUse"><stop offset="0" stop-color="#8c3ded"/><stop offset="0.91" stop-color="#6546ca"/><stop offset="1" stop-color="#6147c6"/></linearGradient><linearGradient id="linear-gradient-6" x1="534.57" y1="477.48" x2="643.47" y2="477.48" xlink:href="#linear-gradient-5"/><linearGradient id="linear-gradient-7" x1="435.47" y1="517.98" x2="852.41" y2="471.38" gradientUnits="userSpaceOnUse"><stop offset="0" stop-color="#d0a2da"/><stop offset="0.53" stop-color="#a9b0e9"/><stop offset="1" stop-color="#84bdf7"/></linearGradient><linearGradient id="linear-gradient-8" x1="655.67" y1="542.11" x2="709.63" y2="542.11" xlink:href="#linear-gradient-5"/><linearGradient id="linear-gradient-9" x1="682.15" y1="472.74" x2="736.11" y2="472.74" xlink:href="#linear-gradient-5"/><linearGradient id="linear-gradient-10" x1="538.27" y1="477.48" x2="639.78" y2="477.48" gradientUnits="userSpaceOnUse"><stop offset="0.69" stop-color="#8c3ded"/><stop offset="0.79" stop-color="#833fe5"/><stop offset="0.95" stop-color="#6a45ce"/><stop offset="1" stop-color="#6147c6"/></linearGradient><linearGradient id="linear-gradient-11" x1="1159.27" y1="515.13" x2="1159.27" y2="282.37" gradientTransform="matrix(-1, 0, 0, 1, 2440.69, 0)" xlink:href="#linear-gradient"/><linearGradient id="linear-gradient-12" x1="852.17" y1="262.67" x2="1473.8" y2="262.67" gradientTransform="matrix(-1, 0, 0, 1, 2440.69, 0)" xlink:href="#linear-gradient-2"/><linearGradient id="linear-gradient-13" x1="1054.78" y1="735.63" x2="1374.64" y2="702.57" gradientTransform="matrix(-1, 0, 0, 1, 2440.69, 0)" xlink:href="#linear-gradient-3"/><linearGradient id="linear-gradient-14" x1="1198.26" y1="677.01" x2="1199" y2="612.36" gradientTransform="matrix(-1, 0, 0, 1, 2440.69, 0)" xlink:href="#linear-gradient-4"/><linearGradient id="linear-gradient-15" x1="1196.92" y1="635.8" x2="1200.48" y2="636.75" gradientTransform="matrix(-1, 0, 0, 1, 2440.69, 0)" xlink:href="#linear-gradient-5"/><linearGradient id="linear-gradient-16" x1="1058.26" y1="477.48" x2="1167.16" y2="477.48" gradientTransform="matrix(-1, 0, 0, 1, 2440.69, 0)" xlink:href="#linear-gradient-5"/><linearGradient id="linear-gradient-17" x1="959.16" y1="517.98" x2="1376.1" y2="471.38" gradientTransform="matrix(-1, 0, 0, 1, 2440.69, 0)" xlink:href="#linear-gradient-7"/><linearGradient id="linear-gradient-18" x1="1179.36" y1="542.11" x2="1233.32" y2="542.11" gradientTransform="matrix(-1, 0, 0, 1, 2440.69, 0)" xlink:href="#linear-gradient-5"/><linearGradient id="linear-gradient-19" x1="1205.84" y1="472.74" x2="1259.8" y2="472.74" gradientTransform="matrix(-1, 0, 0, 1, 2440.69, 0)" xlink:href="#linear-gradient-5"/><linearGradient id="linear-gradient-20" x1="1061.96" y1="477.48" x2="1163.47" y2="477.48" gradientTransform="matrix(-1, 0, 0, 1, 2440.69, 0)" xlink:href="#linear-gradient-10"/></defs><g id="BACKGROUND"><rect class="cls-1" width="1920" height="1080"/></g><g id="ICONS"><line class="cls-2" x1="749.83" y1="423.53" x2="828.17" y2="423.53"/><line class="cls-2" x1="1084.35" y1="423.53" x2="1169.61" y2="423.53"/><path class="cls-3" d="M789.3,507.79A137.83,137.83,0,0,1,783.68,535c-.16.54-.33,1.06-.51,1.6a.24.24,0,0,1,0,.09,138.47,138.47,0,0,1-7,15.38c-17.73,33.25-48.77,57.3-84.91,67.66,0,1.82,0,4,0,6.42-2.09.64-4.17,1.24-6.29,1.77l-1.27.33-21.77,5.62-.65.16h0l-1.31.34-11.35,2.93c-64.47,14-108.8-2.28-136.9-28.92a116.46,116.46,0,0,0-6.77-15.11c-1.15-2.15-2.39-4.23-3.68-6.23l-.6-.91c-.18-.29-.35-.56-.53-.83a.76.76,0,0,1-.11-.14,131.56,131.56,0,0,1-23.87-56.26s-6.08-36.54,6.28-75c0,0,0-.08,0-.11,8.48-22.19,23.55-44.26,49.84-59.76,1.28-.74,2.57-1.48,3.89-2.19,31.16-15.78,66.55-24.54,100.07-26.52,37.23-2.15,72.21,4.06,96.58,18.41a81.71,81.71,0,0,1,15.67,11.75c16.67,16.17,29.45,36.25,36,58.87h0A139.44,139.44,0,0,1,789.3,507.79Z"/><path class="cls-4" d="M745.86,385l-2.7.73-10.41-4.62-37.65,5.68-33.72.59-31.51.56-41.09.72-56.57,5.2-6.91.65v-.95c0-.22,0-.43,0-.65v-.38c.13-3.71.42-8.51.79-13.95,1.17-17.26,3.18-41,3.72-56.6.29-8.16.18-14.09-.66-15.74,3.68,0,18.82-.11,39.39-.25l22.09-.16c62-.47,148-1.19,148-1.19s.19,7.3.59,17.34c.54,13.29,1.42,31.4,2.64,43.74.18,1.9.38,3.68.59,5.26C743,375.48,745.16,384.22,745.86,385Z"/><path class="cls-5" d="M880.58,210.88l-33.5,89.73C842.3,313.4,829.33,322,814.77,322H378c-14.57,0-27.54-8.57-32.32-21.36l-33.5-89.73c-1.37-3.66,1.56-7.5,5.77-7.5H874.82C879,203.38,882,207.22,880.58,210.88Z"/><ellipse class="cls-6" cx="367.12" cy="254.1" rx="5.94" ry="8.85" transform="translate(-64.4 139.49) rotate(-19.82)"/><path class="cls-7" d="M744,388.41l-.46-5.51-10.75-1.8-37.65,5.68-33.72.59-31.51.56-41.09.72-56.57,5.2-6.91.65v-.95c0-.22,0-.43,0-.65.13-3,.42-6.86.79-11.26,28.51-18,70.67-29.42,117.68-29.42,34.63,0,72.05,8,98.63,18.75C743,375.48,743.63,384.15,744,388.41Z"/><ellipse class="cls-6" cx="700.74" cy="252.56" rx="10.11" ry="7.31" transform="translate(277.48 865.48) rotate(-75.19)"/><ellipse class="cls-6" cx="436.23" cy="224.27" rx="7.55" ry="10.11" transform="translate(-44.64 127.51) rotate(-15.83)"/><ellipse class="cls-6" cx="854.75" cy="225.32" rx="8.55" ry="5.23" transform="matrix(0.29, -0.96, 0.96, 0.29, 391.59, 978.21)"/><ellipse class="cls-6" cx="595.04" cy="223.8" rx="8.73" ry="8.81"/><ellipse class="cls-6" cx="521.2" cy="301.45" rx="7.84" ry="8.18"/><ellipse class="cls-6" cx="785.6" cy="299.89" rx="8.18" ry="6.21" transform="translate(298.75 985.51) rotate(-75.52)"/><path class="cls-8" d="M675.43,679c-.45,6.8-.65,13.68-.63,20.51,0,29.71,3.7,58.68,4.13,78.34a157.19,157.19,0,0,1-2.71,33.08,146,146,0,0,1-6.79,24.2c-.43,1.11-.85,2.21-1.29,3.29-1.53,3.77-3.13,7.25-4.78,10.47a104,104,0,0,1-8.43,13.78,44.53,44.53,0,0,1-46.09,16.77A93.09,93.09,0,0,1,574.33,864c-18.35-13.49-30-34.31-32.9-56.92C531.62,731.21,528,676.63,519.69,637.2a206.79,206.79,0,0,0-8.08-28.82,115.71,115.71,0,0,0-6.77-15.1c-.49-.92-1-1.83-1.53-2.71a.1.1,0,0,1,0-.08c-.19-.34-.39-.66-.59-1s-.29-.45-.43-.67l-.05-.11c-.33-.57-.69-1.13-1.05-1.69l-.59-.91c-.18-.29-.36-.56-.54-.83l-.11-.14c1.82-1,5.48-1.38,10.62-1.38.93,0,1.92,0,3,.05,7.3.21,16.87,1.15,27.81,2.6,8,1.05,16.69,2.37,25.76,3.88h0c10.11,1.67,20.67,3.58,31.18,5.61h0c6.82,1.33,13.63,2.69,20.26,4.09,2.89.6,5.77,1.21,8.59,1.82h0c15.65,3.38,30,6.79,41,9.79,7.2,2,13,3.75,16.88,5.24-5.14,2.18-12.11,5.5-16.88,7.82l-2,1-.16.09a0,0,0,0,0,0,0,7,7,0,0,0-.83.49,5.85,5.85,0,0,0-.48.34l0,0,0,.06a2.16,2.16,0,0,0-.43.37,3.06,3.06,0,0,0-.36.36s0,0,0,0a4.2,4.2,0,0,1-.29.32s0,0,0,.06c-.15.18-.29.36-.42.55a7.85,7.85,0,0,0-1.17,2.68c-.19.86-.39,1.85-.61,2.95h0a.78.78,0,0,1,0,.21c-.07.4-.14.79-.23,1.2s-.15.85-.24,1.28c-.12.77-.27,1.58-.39,2.41,0,.18-.06.36-.09.55q-.2,1.3-.36,2.64c-1.11,8.48-1.42,18.54,1.76,24.63a7.3,7.3,0,0,0,11.33,2.14L673,669a45,45,0,0,0,3.27-3.77,7.26,7.26,0,0,1,3.1-2.17s-.21.63-.53,1.65l0,.15h0l0,.18C677.66,668.4,675.7,675,675.43,679Z"/><path class="cls-9" d="M675.43,679c-.45,6.8-.65,13.68-.63,20.51,0,10.22.45,20.35,1,30,1.13,18.49,2.8,35.39,3.09,48.29a157.19,157.19,0,0,1-2.71,33.08l-82.36-91.41-2.25-2.5L583,707.5,582,706.34l-4.55-5.07-5.39-6h0l-.27-.31-2.88-3.19-19.2-21.33-2.89-3.18-.27-.3-5.39-6-4.56-5.09-1.06-1.16-8.59-9.54-2.24-2.48-5-5.53a206.79,206.79,0,0,0-8.08-28.82,115.71,115.71,0,0,0-6.77-15.1c-.49-.92-1-1.83-1.53-2.71a.1.1,0,0,1,0-.08c-.19-.34-.39-.66-.59-1,1.42-1.14,2.87-2.23,4.38-3.33,1.13-.82,2.28-1.61,3.47-2.4.93,0,1.92,0,3,.05,7.3.21,16.87,1.15,27.81,2.6q3.11.41,6.36.87c6.16.88,12.68,1.9,19.4,3h0c10.11,1.67,20.67,3.58,31.18,5.61h0c6.82,1.33,13.63,2.69,20.26,4.09,2.89.6,5.77,1.21,8.59,1.82h0c15.65,3.38,30,6.79,41,9.79,7.2,2,13,3.75,16.88,5.24-5.14,2.18-12.11,5.5-16.88,7.82l-2,1-.16.09a0,0,0,0,0,0,0,7,7,0,0,0-.83.49,5.85,5.85,0,0,0-.48.34l0,0,0,.06a2.16,2.16,0,0,0-.43.37,3.06,3.06,0,0,0-.36.36s0,0,0,0a4.2,4.2,0,0,1-.29.32s0,0,0,.06c-.15.18-.29.36-.42.55a7.85,7.85,0,0,0-1.17,2.68c-.19.86-.39,1.85-.61,2.95h0a.78.78,0,0,1,0,.21c-.07.4-.14.79-.23,1.2s-.15.85-.24,1.28c-.12.77-.27,1.58-.39,2.41,0,.18-.06.36-.09.55q-.2,1.3-.36,2.64c-1.11,8.48-1.42,18.54,1.76,24.63a7.3,7.3,0,0,0,11.33,2.14L673,669a45,45,0,0,0,3.27-3.77,7.26,7.26,0,0,1,3.1-2.17s-.21.63-.53,1.65l0,.15h0l0,.18C677.66,668.4,675.7,675,675.43,679Z"/><path class="cls-9" d="M679.34,663.1s-.21.63-.53,1.65l0,.15h0l0,.18c-1,3.31-3,9.95-3.27,13.91-.45,6.8-.65,13.68-.63,20.51,0,10.22.45,20.35,1,30l-61.4-68.13-2.24-2.5-8.59-9.52-1.06-1.17L598,643.16l-5.39-6h0l-.27-.33-2.87-3.18-19.2-21.32-2.9-3.18-.27-.3-5.38-6-4.57-5.09-1.06-1.17-8.42-9.35c6.16.88,12.68,1.9,19.4,3h0c10.11,1.67,20.67,3.58,31.18,5.61h0c6.82,1.33,13.63,2.69,20.26,4.09,2.89.6,5.77,1.21,8.59,1.82h0c15.65,3.38,30,6.79,41,9.79,7.2,2,13,3.75,16.88,5.24-5.14,2.18-12.11,5.5-16.88,7.82l-2,1-.16.09a0,0,0,0,0,0,0,7,7,0,0,0-.83.49,5.85,5.85,0,0,0-.48.34l0,0,0,.06a2.16,2.16,0,0,0-.43.37,3.06,3.06,0,0,0-.36.36s0,0,0,0a4.2,4.2,0,0,1-.29.32s0,0,0,.06c-.15.18-.29.36-.42.55a7.85,7.85,0,0,0-1.17,2.68c-.19.86-.39,1.85-.61,2.95h0a.78.78,0,0,1,0,.21c-.07.4-.14.79-.23,1.2s-.15.85-.24,1.28c-.12.77-.27,1.58-.39,2.41,0,.18-.06.36-.09.55q-.2,1.3-.36,2.64c-1.11,8.48-1.42,18.54,1.76,24.63a7.3,7.3,0,0,0,11.33,2.14L673,669a45,45,0,0,0,3.27-3.77A7.26,7.26,0,0,1,679.34,663.1Z"/><path class="cls-10" d="M678.81,664.75l0,.15h0l0,.18c-.79.61-1.87,1.58-2.59,2.09a35.16,35.16,0,0,0-2.73,2.6,7.79,7.79,0,0,1-6,2.25,8.1,8.1,0,0,1-1-.06c-4.89-.52-6.31-4.22-6.92-5.8l-.14-.38c-3.41-9.1-1.37-22.74.57-31.41.36-1.64.72-3.11,1-4.33a4.43,4.43,0,0,1,2.91-3.15h0l.11,0,.18-.05a.3.3,0,0,1,.13,0,.66.66,0,0,1,.25-.07,1.09,1.09,0,0,1,.45-.06,1.34,1.34,0,0,1,.36,0,3.81,3.81,0,0,1,.66,0,9.09,9.09,0,0,0-2.26.77s0,0,0,0a.67.67,0,0,0-.29.32s0,0,0,.06c-.35,1.24-.92,3.36-1.55,6-1.94,8.45-4.22,22.39-.88,31.28l.16.37c.56,1.5,1.62,4.26,5.41,4.67a8.59,8.59,0,0,0,6.63-2.31l.28-.24c.88-1.09,1.28-2.58,2.81-2.37h.07Z"/><path class="cls-11" d="M691.09,614.67l0,0v0a41.25,41.25,0,0,1-2.76,5.78c-.43.77-.88,1.56-1.39,2.37s-.93,1.58-1.45,2.39v0c-.59,1-1.22,2-1.87,3-2.51,4-5.1,8-7,11.53A21.58,21.58,0,0,0,674.19,653c.86,5.8,3.74,8.89,7.26,10.87L681,664a16.84,16.84,0,0,0-2.23.92h0A26.87,26.87,0,0,0,673,669l-.06.06A7.3,7.3,0,0,1,661.58,667c-3.18-6.09-2.87-16.15-1.76-24.63q.16-1.33.36-2.64c0-.19.05-.37.09-.55.12-.83.27-1.64.39-2.41.09-.43.16-.86.24-1.28s.16-.8.23-1.2a.78.78,0,0,0,0-.21h0c.22-1.1.42-2.09.61-2.95.54-2.37.6-2.77,2-3.88a4.6,4.6,0,0,0,.44-.43s0,0,0,0,0,0,0,0h0A9.4,9.4,0,0,1,665,626c.27-.13.75-.32,1.06-.48.07,0,0,.08-.16.28a0,0,0,0,0,0,0c-.18.25-.43.56-.43.59h0c7.56-3.73,22.52-11.21,25.56-11.71Z"/><path class="cls-12" d="M691.16,626.15c-.09,10-.57,23.58-2.08,28.47-1.42,4.55-2.17,8-6.84,9-.24.05-.51.12-.79.2-3.52-2-6.4-5.07-7.26-10.87a21.58,21.58,0,0,1,2.44-13.19c1.87-3.52,4.46-7.54,7-11.53.65-1,1.28-2,1.87-3v0c.52-.81,1-1.6,1.45-2.39s.9-1.58,1.33-2.33a0,0,0,0,1,0,0,42.07,42.07,0,0,0,2.79-5.84h0v0c.06.36.11,2.24.11,5v0C691.2,621.55,691.2,623.74,691.16,626.15Z"/><path class="cls-13" d="M643,477.49a53.89,53.89,0,1,1-43.2-52.89A54,54,0,0,1,643,477.49Z"/><path class="cls-14" d="M792.49,486.27A139.6,139.6,0,0,1,783.67,535c-.18.54-.39,1.06-.59,1.59a.79.79,0,0,1,0,.09,136,136,0,0,1-62.69,71.07,142.14,142.14,0,0,1-18.84,8.56c-2.08.78-4.17,1.51-6.29,2.18-1.34.43-2.69.82-4,1.22l-.09,0c-.91.25-1.85.52-2.78.75l0,0-.07,0h0c-.28.09-.55.16-.84.23l-19.18,4.94-2.64.68h0l-.16.06h0l-.7.18-.25.07h0l-.65.16L651,630.14c-4.75,1-9.36,1.9-13.89,2.6-46,7.22-80.83-1.65-106.27-18.3q-4.77-3.13-9.11-6.59c-.21-.18-.43-.35-.64-.51a121.12,121.12,0,0,1-20.48-21.21c-.22-.27-.43-.56-.63-.83l-.11-.14a122.3,122.3,0,0,1-25.14-69.95c-.69-14.08-.15-37.34,7.56-61.36a.45.45,0,0,0,0-.11A122.73,122.73,0,0,1,507,409.54c.77-.88,1.58-1.76,2.4-2.64a107.34,107.34,0,0,1,9.18-8.7c2.16-1.81,4.4-3.59,6.77-5.3,3-2.17,6.2-4.25,9.58-6.23,1.18-.7,2.39-1.38,3.63-2.05,28.27-14.32,60-22.87,90.73-25.78a242,242,0,0,1,38.89-.64c30.28,2,57.24,10.09,75.73,24.12a73.32,73.32,0,0,1,7,6c16.66,16.14,29.45,36.23,36,58.84A139.89,139.89,0,0,1,792.49,486.27Z"/><path class="cls-15" d="M664.29,626.74l-.34.11-.11,0a197.74,197.74,0,0,1-19.76,5.3,175.7,175.7,0,0,1-20.67,3.16c-6,.54-11.71.79-17.21.79-55.43,0-86.1-24.77-102.32-44.64-.09-.18-.32-.52-.57-.93a.1.1,0,0,1,0-.08c-.34-.52-.73-1.15-1-1.65l-.05-.11c-.06-.09-.09-.18-.13-.25a115,115,0,0,0,19,18.86c.21.16.43.33.64.51C546.37,627,587.3,643,650.77,629.26l12.91-2.41Z"/><path class="cls-10" d="M707.19,542.12a24.39,24.39,0,0,1-4.54,14.2l-.6.8c-.36.46-.73.91-1.13,1.36,0,0,0,0,0,0a24.65,24.65,0,0,1-6.34,5,24.22,24.22,0,0,1-11.91,3.09,24.54,24.54,0,0,1-24.55-24.53,20,20,0,0,1,.11-2.2,24,24,0,0,1,1-5.1,22.05,22.05,0,0,1,1.32-3.3c.07-.16.16-.33.25-.49a24.53,24.53,0,0,1,46.43,11.09Z"/><path class="cls-10" d="M572.88,577.5a17,17,0,1,1-17-17A16.93,16.93,0,0,1,572.88,577.5Z"/><path class="cls-10" d="M631.48,590.49a16.87,16.87,0,0,1-1.6,7.19,15.51,15.51,0,0,1-1.29,2.29,17,17,0,1,1-27.81-19.7,14.91,14.91,0,0,1,1.47-1.71,17,17,0,0,1,29.23,11.93Z"/><path class="cls-16" d="M707.19,542.12a24.39,24.39,0,0,1-4.54,14.2l-.6.8A113.91,113.91,0,0,1,660.76,531a24.53,24.53,0,0,1,46.43,11.09Z"/><path class="cls-16" d="M631.48,590.49a16.87,16.87,0,0,1-1.6,7.19,23.15,23.15,0,0,1-3.65.28,24.53,24.53,0,0,1-24-19.4,17,17,0,0,1,29.23,11.93Z"/><path class="cls-16" d="M572.88,577.5a16.93,16.93,0,0,1-2.66,9.15h-1a27.87,27.87,0,0,1-26.69-19.79,17,17,0,0,1,30.37,10.63Z"/><circle class="cls-17" cx="682.65" cy="542.11" r="26.48"/><path class="cls-10" d="M733.67,472.74a24.53,24.53,0,1,1-24.54-24.55A24.32,24.32,0,0,1,733.67,472.74Z"/><circle class="cls-18" cx="709.13" cy="472.74" r="26.48"/><path class="cls-10" d="M643,477.49a53.89,53.89,0,1,1-43.2-52.89A54,54,0,0,1,643,477.49Z"/><path class="cls-19" d="M639.78,477.49A50.76,50.76,0,1,1,566,432.26a50.43,50.43,0,0,1,33.12-4.51A50.74,50.74,0,0,1,639.78,477.49Z"/><circle class="cls-20" cx="589.03" cy="477.48" r="38.74"/><path class="cls-21" d="M626.3,477.49A37.27,37.27,0,1,1,589,440.2,37.27,37.27,0,0,1,626.3,477.49Z"/><path class="cls-10" d="M620.87,477.48c0,.53-1.26,1-1.28,1.55s1.17,1.15,1.12,1.67-1.36.89-1.43,1.41,1.05,1.27,1,1.78-1.44.75-1.58,1.26.93,1.36.77,1.87-1.51.6-1.69,1.09.78,1.45.57,1.93-1.57.45-1.8.92.63,1.52.37,2-1.6.28-1.87.73.47,1.57.17,2-1.62.11-1.95.53.31,1.61,0,2-1.63,0-2,.34.15,1.64-.23,2-1.61-.21-2,.14,0,1.64-.43,2-1.58-.37-2-.06-.18,1.63-.63,1.91-1.53-.53-2-.27-.35,1.6-.83,1.84-1.47-.68-2-.48-.51,1.57-1,1.75-1.4-.83-1.9-.67-.67,1.5-1.18,1.64-1.3-1-1.82-.86-.82,1.42-1.34,1.5-1.2-1.09-1.73-1-1,1.34-1.48,1.36-1.08-1.2-1.61-1.2-1.09,1.23-1.62,1.21-1-1.32-1.48-1.37-1.21,1.12-1.73,1-.82-1.4-1.34-1.5-1.31,1-1.82.86-.68-1.48-1.18-1.64-1.41.85-1.9.67-.52-1.54-1-1.75-1.48.71-2,.48-.37-1.59-.83-1.84-1.55.55-2,.27-.2-1.62-.64-1.92-1.59.39-2,.07,0-1.62-.44-2-1.63.23-2-.13.13-1.62-.23-2-1.65.06-2-.34.29-1.6,0-2-1.64-.11-2-.54.45-1.56.17-2-1.62-.26-1.87-.72.6-1.51.37-2-1.59-.43-1.8-.92.76-1.44.57-1.93-1.53-.59-1.69-1.1.9-1.35.77-1.86-1.47-.74-1.58-1.26,1-1.25,1-1.78-1.39-.88-1.44-1.41,1.15-1.14,1.13-1.67-1.29-1-1.29-1.55,1.26-1,1.29-1.55-1.18-1.15-1.13-1.67,1.36-.9,1.44-1.42-1.06-1.26-1-1.77,1.45-.76,1.58-1.26-.93-1.37-.77-1.87,1.51-.6,1.69-1.09-.77-1.45-.57-1.94,1.57-.44,1.8-.91-.63-1.52-.37-2,1.6-.28,1.88-.73-.48-1.58-.17-2,1.62-.12,1.94-.53-.31-1.62,0-2,1.63,0,2-.33-.15-1.64.24-2,1.61.21,2-.13,0-1.64.43-2,1.58.37,2,.07.18-1.63.63-1.91,1.53.53,2,.27.34-1.61.82-1.84,1.47.68,2,.47.51-1.56,1-1.74,1.4.82,1.9.67.67-1.51,1.18-1.64,1.3,1,1.82.86.82-1.43,1.34-1.51,1.2,1.1,1.73,1,1-1.33,1.48-1.36,1.09,1.21,1.62,1.21,1.08-1.23,1.61-1.21,1,1.31,1.48,1.36,1.21-1.11,1.73-1,.82,1.41,1.34,1.51,1.31-1,1.82-.86.68,1.48,1.18,1.64,1.41-.86,1.9-.67.52,1.54,1,1.74,1.48-.7,2-.47.36,1.58.82,1.84,1.55-.55,2-.27.2,1.61.63,1.91,1.6-.39,2-.07,0,1.63.44,2,1.63-.23,2,.14-.13,1.62.23,2,1.65-.06,2,.34-.29,1.59,0,2,1.65.1,1.95.53-.45,1.56-.17,2,1.62.27,1.88.73-.61,1.51-.38,2,1.59.43,1.8.92-.76,1.43-.57,1.93,1.53.59,1.69,1.09-.9,1.35-.77,1.87,1.47.74,1.58,1.26-1,1.25-1,1.77,1.39.89,1.44,1.41-1.15,1.15-1.12,1.68S620.87,477,620.87,477.48Z"/><g class="cls-22"><path class="cls-23" d="M613.76,477.48c0,.41-1,.8-1,1.2s.92.9.88,1.3-1.06.7-1.12,1.1.82,1,.74,1.38-1.12.58-1.22,1,.72,1.06.6,1.45-1.18.46-1.32.85.61,1.12.44,1.5-1.21.34-1.39.71.49,1.18.29,1.54-1.24.22-1.46.56.36,1.23.13,1.56-1.26.1-1.51.42.24,1.25,0,1.56-1.27,0-1.55.27.12,1.27-.18,1.55-1.25-.16-1.56.1,0,1.28-.34,1.53-1.23-.28-1.57-.05-.14,1.27-.49,1.49-1.19-.41-1.55-.22-.27,1.25-.64,1.43-1.14-.53-1.52-.36-.4,1.21-.78,1.35-1.08-.64-1.48-.52-.51,1.17-.91,1.27-1-.75-1.42-.67-.63,1.11-1,1.17-.93-.84-1.34-.8-.74,1-1.15,1.06-.84-.94-1.25-.94-.85,1-1.26.94-.74-1-1.15-1.06-.94.87-1.34.8-.64-1.08-1-1.17-1,.77-1.42.67-.52-1.15-.91-1.27-1.1.66-1.48.52-.41-1.19-.78-1.35-1.16.54-1.52.36-.29-1.23-.64-1.43-1.21.43-1.55.21-.16-1.25-.49-1.48-1.25.3-1.57.05,0-1.26-.34-1.53-1.26.18-1.56-.1.1-1.26-.18-1.56-1.28,0-1.55-.26.23-1.24,0-1.56-1.28-.08-1.51-.42.35-1.21.13-1.56-1.26-.21-1.46-.56.47-1.17.29-1.54-1.23-.34-1.39-.71.58-1.12.44-1.51-1.19-.45-1.31-.84.69-1.05.59-1.45-1.14-.58-1.22-1,.8-1,.74-1.38-1.08-.69-1.12-1.1.9-.89.88-1.3-1-.79-1-1.2,1-.8,1-1.21-.92-.89-.88-1.29,1.06-.7,1.12-1.1-.82-1-.74-1.38,1.12-.59,1.22-1-.72-1.06-.59-1.45,1.17-.47,1.31-.85-.6-1.13-.44-1.5,1.21-.35,1.39-.71-.49-1.18-.29-1.54,1.25-.22,1.46-.57-.36-1.22-.13-1.56,1.26-.09,1.51-.41-.24-1.26,0-1.57,1.26,0,1.54-.26-.11-1.27.18-1.55,1.25.16,1.57-.11,0-1.28.33-1.53,1.23.29,1.57.06.14-1.27.49-1.49,1.19.41,1.55.21.27-1.25.64-1.43,1.14.53,1.52.37.4-1.21.78-1.36,1.09.65,1.48.52.52-1.16.91-1.27,1,.75,1.42.67.63-1.11,1-1.17.93.85,1.34.81.74-1,1.15-1.06.84.94,1.26.94.84-1,1.25-.94.75,1,1.15,1.06.94-.87,1.34-.81.64,1.09,1,1.17,1-.77,1.42-.67.52,1.15.91,1.27,1.1-.66,1.48-.52.41,1.2.78,1.36,1.16-.55,1.52-.37.29,1.23.64,1.43,1.21-.42,1.56-.21.15,1.25.49,1.49,1.24-.3,1.56-.05,0,1.26.34,1.52,1.26-.17,1.56.11-.1,1.26.18,1.55,1.28-.05,1.55.27-.23,1.24,0,1.56,1.28.08,1.51.42-.35,1.21-.13,1.56,1.26.2,1.46.56-.47,1.17-.29,1.54,1.23.33,1.4.71-.59,1.12-.45,1.5,1.19.46,1.32.85-.7,1.05-.6,1.45,1.14.57,1.22,1-.8,1-.74,1.38,1.08.68,1.12,1.09-.9.89-.88,1.3S613.76,477.07,613.76,477.48Z"/></g><g class="cls-22"><path class="cls-23" d="M610.56,477.49c0,.3-.85.59-.86.89s.81.66.78,1-.9.52-.94.82.75.73.7,1-.94.44-1,.73.68.79.61,1.09-1,.35-1.07.64.61.85.51,1.13-1,.27-1.11.55.53.9.41,1.17-1,.18-1.16.45.45.94.3,1.21-1,.09-1.19.34.37,1,.2,1.23-1,0-1.22.24.29,1,.1,1.24-1-.09-1.24.14.2,1,0,1.24-1-.18-1.24,0,.11,1-.12,1.24-1-.27-1.24-.08,0,1.05-.23,1.22-1-.35-1.23-.18-.07,1-.33,1.2-.94-.44-1.21-.29-.16,1-.43,1.16-.9-.51-1.18-.39-.25,1-.53,1.12-.85-.59-1.14-.49-.34,1-.63,1.07-.8-.66-1.09-.59c0,0,.09.84,0,.86s-.29-.8-.35-.79.09.85,0,.86-.27-.81-.33-.8.07.85,0,.86-.27-.81-.32-.8.06.85,0,.86-.26-.81-.31-.8,0,.85,0,.86-.24-.82-.29-.81,0,.85,0,.86S592,498,592,498s0,.85,0,.86-.22-.83-.27-.82,0,.85,0,.86-.2-.83-.26-.82,0,.85-.06.86-.19-.83-.24-.83,0,.85-.08.86-.18-.83-.23-.83,0,.85-.09.85-.16-.83-.22-.83,0,.85-.1.86-.15-.84-.2-.84-.07.85-.12.85-.14-.84-.19-.83-.08.84-.13.84-.13-.84-.18-.84-.09.85-.14.85-.12-.84-.17-.84-.11.84-.16.84c-.36,0-.69-.85-1-.87s-.77.8-1.13.77-.6-.92-1-1-.86.72-1.21.65-.5-1-.85-1.06-.92.62-1.26.51-.41-1-.74-1.14-1,.53-1.31.39-.3-1.06-.62-1.22-1,.43-1.34.26-.19-1.09-.49-1.28-1.07.32-1.36.12-.08-1.1-.36-1.31-1.09.21-1.36,0,0-1.09-.23-1.34-1.11.1-1.36-.16.15-1.09-.09-1.36-1.11,0-1.33-.29.25-1.07,0-1.36-1.11-.13-1.3-.43.36-1,.19-1.35-1.09-.24-1.25-.56.46-1,.32-1.32-1-.35-1.18-.68.56-1,.45-1.29-1-.45-1.1-.79.65-.89.58-1.24-1-.55-1-.9.74-.81.7-1.17-.9-.64-.92-1,.82-.74.82-1.09c0-.05-.84-.1-.84-.15s.84-.08.84-.13-.84-.11-.84-.15.85-.08.85-.13-.85-.11-.84-.16.84-.06.85-.11-.84-.13-.84-.18.85-.05.85-.1-.84-.14-.84-.18.85,0,.85-.09-.83-.15-.83-.2.85,0,.85-.07-.83-.17-.83-.21.85,0,.86-.07-.84-.17-.83-.22.85,0,.85,0-.83-.19-.82-.23.85,0,.85,0-.82-.2-.82-.25.85,0,.86,0-.83-.2-.82-.25.85,0,.86,0-.82-.22-.82-.26.85,0,.86,0-.82-.23-.81-.28.85.06.86,0-.82-.24-.81-.29.85.07.86,0-.81-.25-.81-.3.85.08.86,0-.81-.27-.8-.31c.07-.31,1-.42,1-.72s-.65-.82-.56-1.12,1-.33,1.09-.63-.58-.88-.47-1.16,1-.25,1.14-.53-.49-.93-.35-1.2,1-.15,1.18-.42-.42-1-.25-1.24,1-.06,1.21-.31-.32-1-.14-1.25,1,0,1.24-.21-.24-1,0-1.25,1,.12,1.25-.1-.15-1,.08-1.26,1,.22,1.26,0-.06-1,.19-1.25,1,.31,1.25.13,0-1,.29-1.22,1,.39,1.24.23.13-1.05.4-1.19.93.47,1.21.34.22-1,.51-1.15.88.55,1.17.45.31-1,.61-1.1.83.63,1.13.55.4-1,.7-1.05.77.7,1.08.65.48-.94.79-1,.71.77,1,.74.56-.89.87-.9.64.82.95.82.74-.83,1.09-.81.65.88,1,.92.81-.76,1.16-.71.56.95.91,1,.89-.67,1.23-.58.46,1,.8,1.11.95-.58,1.29-.45.35,1,.68,1.18,1-.48,1.32-.32.25,1.07.56,1.24,1-.37,1.35-.18.13,1.09.42,1.29,1.09-.26,1.37,0,0,1.1.29,1.33,1.1-.15,1.36.09-.09,1.1.16,1.36,1.11-.05,1.34.22-.19,1.08,0,1.37,1.11.07,1.32.36-.31,1.05-.12,1.36,1.1.18,1.27.49-.41,1-.25,1.34,1.07.29,1.21.62-.51,1-.38,1.31,1,.39,1.14.74-.61.91-.52,1.26,1,.5,1.06.85-.69.85-.64,1.2.94.6,1,1-.78.77-.76,1.13S610.56,477.13,610.56,477.49Z"/></g><g class="cls-22"><path class="cls-23" d="M601.87,477.48c0,.18-.51.36-.52.54s.49.39.47.57-.54.31-.56.49.45.43.42.61-.56.26-.6.44.41.47.36.64-.58.22-.63.39.36.51.3.68-.6.15-.66.32.32.54.24.7-.61.11-.69.27.27.56.18.72-.61,0-.71.21.22.58.12.73-.62,0-.73.14.17.6.06.74-.62-.05-.74.08.12.61,0,.74-.6-.1-.74,0,.07.62-.07.74-.6-.16-.74-.05,0,.62-.13.73-.58-.21-.74-.11,0,.62-.19.71-.56-.25-.72-.17-.1.62-.26.7-.54-.31-.7-.24-.15.61-.32.67-.51-.35-.68-.29-.2.59-.38.63-.47-.39-.65-.35.06.51,0,.51-.18-.47-.21-.47.05.51,0,.52-.17-.48-.2-.48,0,.51,0,.52-.16-.49-.19-.48,0,.51,0,.51-.16-.48-.19-.48,0,.51,0,.52-.15-.49-.18-.49,0,.51,0,.52-.14-.49-.17-.49,0,.51,0,.51-.13-.49-.16-.48,0,.51,0,.51-.12-.49-.15-.49,0,.51,0,.51-.11-.49-.14-.49,0,.51-.05.51-.11-.5-.14-.49,0,.5,0,.51-.1-.5-.13-.5,0,.51-.06.51-.09-.5-.12-.5,0,.51-.07.51-.09-.5-.12-.5,0,.51-.08.51-.07-.51-.1-.51-.06.51-.09.51-.07-.5-.1-.5-.06.5-.09.5c-.22,0-.42-.51-.63-.52s-.46.48-.67.46-.36-.55-.57-.58-.51.42-.72.38-.3-.58-.51-.63-.55.37-.75.31-.24-.61-.44-.69-.59.32-.78.24-.18-.64-.37-.73-.61.25-.8.15-.11-.64-.29-.76-.64.19-.81.07-.05-.65-.22-.78-.65.12-.81,0,0-.66-.14-.81-.66.06-.81-.09.09-.65-.05-.81-.66,0-.79-.18.14-.63,0-.81-.66-.07-.77-.25.21-.62.11-.81-.65-.14-.74-.33.27-.59.19-.79-.63-.21-.71-.41.34-.56.27-.76-.6-.27-.65-.48.38-.52.34-.73-.57-.33-.61-.54.45-.49.42-.7-.54-.38-.55-.6.49-.43.49-.65c0,0-.5-.06-.5-.08s.5,0,.5-.08-.5-.07-.5-.09.5-.05.51-.08-.51-.07-.51-.09.51,0,.51-.07-.5-.08-.5-.11.51,0,.51-.05-.5-.09-.5-.12.51,0,.51,0-.5-.09-.5-.12.51,0,.51,0-.5-.1-.5-.13.51,0,.51,0-.49-.1-.49-.13.51,0,.51,0-.5-.11-.49-.14.5,0,.51,0-.5-.12-.49-.15.5,0,.51,0-.49-.13-.49-.16.51,0,.51,0-.49-.13-.48-.15.5,0,.51,0-.49-.14-.49-.16.51,0,.51,0-.48-.14-.48-.17.51,0,.51,0-.48-.15-.47-.18.5.05.51,0-.49-.15-.48-.18c0-.18.57-.25.62-.43s-.4-.49-.34-.67.59-.2.65-.37-.35-.52-.28-.7.61-.14.68-.31-.3-.55-.21-.72.61-.09.7-.25-.24-.58-.15-.73.62,0,.73-.19-.2-.6-.08-.75.62,0,.73-.12-.14-.61,0-.75.61.07.74-.06-.09-.62,0-.75.61.13.75,0,0-.63.11-.74.6.18.75.07,0-.62.17-.72.58.23.74.13.08-.62.24-.7.55.28.72.2.13-.62.3-.69.53.33.7.27.19-.6.37-.66.49.38.67.33.24-.58.42-.62.46.42.64.38.29-.55.47-.58.42.46.61.44.34-.53.52-.54.38.5.57.5.44-.5.65-.49.39.53.6.55.48-.45.69-.42.34.56.54.61.53-.4.74-.35.27.6.47.66.57-.34.77-.27.21.62.41.7.6-.28.79-.19.14.64.33.75.63-.23.81-.11.08.65.25.77.64-.16.81,0,0,.66.18.8.65-.1.81.05,0,.65.09.81.67,0,.8.13-.11.65,0,.82.66,0,.78.21-.18.63-.07.81.66.11.76.3-.25.6-.15.8.64.17.72.36-.3.58-.23.78.62.24.68.45-.36.54-.31.75.59.3.64.51-.42.5-.39.71.56.36.58.57-.46.46-.45.68S601.87,477.27,601.87,477.48Z"/></g><g class="cls-24"><path class="cls-25" d="M614.08,477.48c0,.42-1,.81-1,1.22s.92.9.88,1.31-1.07.71-1.13,1.12.83,1,.75,1.39-1.13.59-1.24,1,.73,1.08.61,1.47-1.19.47-1.34.86.62,1.14.45,1.52-1.23.35-1.41.72.5,1.2.29,1.56-1.25.22-1.47.57.37,1.24.13,1.58-1.28.1-1.53.42.24,1.28,0,1.59-1.27,0-1.56.26.12,1.29-.18,1.58-1.27-.17-1.59.1,0,1.3-.34,1.55-1.24-.29-1.58-.05-.15,1.28-.5,1.5-1.21-.41-1.57-.21-.28,1.26-.65,1.45-1.16-.54-1.54-.38-.4,1.23-.79,1.38-1.1-.65-1.5-.53-.52,1.18-.92,1.29-1-.76-1.44-.68-.64,1.12-1,1.19-.94-.86-1.36-.82-.75,1.05-1.16,1.07-.86-.95-1.27-.95-.86,1-1.27.95-.76-1-1.17-1.07-1,.88-1.36.82-.65-1.11-1.05-1.19-1,.78-1.44.68-.53-1.16-.92-1.29-1.11.67-1.5.53-.41-1.21-.79-1.38-1.17.56-1.54.38-.29-1.25-.65-1.45-1.22.43-1.57.21-.16-1.27-.5-1.5-1.25.3-1.58.05,0-1.28-.35-1.55-1.28.18-1.58-.1.1-1.28-.18-1.58-1.3.05-1.57-.26.23-1.26,0-1.59-1.29-.08-1.53-.42.35-1.23.13-1.58-1.27-.21-1.47-.57.47-1.19.29-1.56-1.25-.34-1.41-.72.59-1.13.45-1.52-1.21-.46-1.34-.86.71-1.06.61-1.47-1.16-.58-1.24-1,.81-1,.75-1.39-1.09-.7-1.13-1.12.91-.89.88-1.31-1-.8-1-1.22,1-.81,1-1.22-.92-.91-.88-1.32,1.07-.7,1.13-1.11-.83-1-.75-1.4,1.13-.59,1.24-1-.73-1.07-.6-1.47,1.18-.47,1.33-.86-.62-1.14-.45-1.52,1.23-.34,1.41-.72-.49-1.19-.29-1.55,1.26-.23,1.48-.58-.38-1.24-.14-1.58,1.28-.09,1.53-.42-.24-1.27,0-1.58,1.27,0,1.56-.27-.11-1.29.19-1.57,1.26.16,1.58-.11,0-1.29.34-1.55,1.24.3,1.59.06.14-1.29.49-1.51,1.21.42,1.57.22.28-1.27.65-1.45,1.16.54,1.54.37.4-1.23.79-1.37,1.1.65,1.5.52.52-1.18.92-1.28,1,.76,1.44.68.64-1.13,1.05-1.19.94.86,1.36.82.75-1,1.17-1.07.85,1,1.27,1,.85-1,1.26-1,.76,1,1.17,1.07.95-.88,1.36-.82.65,1.1,1,1.19,1-.78,1.44-.68.53,1.16.93,1.29,1.1-.68,1.49-.53.41,1.21.79,1.37,1.17-.55,1.54-.37.29,1.25.65,1.45,1.22-.43,1.57-.22.16,1.27.5,1.51,1.26-.31,1.58-.05,0,1.27.35,1.54,1.28-.18,1.58.11-.1,1.27.18,1.58,1.3,0,1.57.26-.23,1.26,0,1.59,1.29.08,1.53.42-.35,1.22-.13,1.58,1.27.21,1.48.57-.48,1.18-.3,1.56,1.25.33,1.42.72-.6,1.13-.45,1.52,1.2.46,1.33.86-.71,1.06-.61,1.46,1.16.59,1.24,1-.81,1-.75,1.4,1.09.7,1.13,1.11-.9.9-.88,1.32S614.08,477.06,614.08,477.48Z"/></g><rect class="cls-6" x="605.28" y="585.15" width="18.29" height="2.09"/><rect class="cls-6" x="605.28" y="589.44" width="18.29" height="2.09"/><rect class="cls-6" x="605.28" y="593.73" width="18.29" height="2.09"/><rect class="cls-6" x="550.29" y="572.41" width="4.65" height="4.65" rx="0.21"/><rect class="cls-6" x="550.29" y="578.17" width="4.65" height="4.65" rx="0.21"/><path class="cls-6" d="M561.47,577.06h-5a.39.39,0,0,1-.41-.38v-3.95a.38.38,0,0,1,.34-.37l5-.72a.4.4,0,0,1,.48.37v4.67A.4.4,0,0,1,561.47,577.06Z"/><path class="cls-6" d="M561.4,583.36l-4.95-.5a.38.38,0,0,1-.35-.37v-3.94a.39.39,0,0,1,.41-.38h5a.4.4,0,0,1,.41.38V583A.4.4,0,0,1,561.4,583.36Z"/><text class="cls-26" transform="translate(675.57 549.13)">X</text><text class="cls-26" transform="translate(702.52 479.94)">Y</text><path class="cls-16" d="M733.67,472.74a24.32,24.32,0,0,1-5.09,14.95,35.73,35.73,0,0,1-8.6-.5,37.56,37.56,0,0,1-30.23-29.5,24.53,24.53,0,0,1,43.92,15.05Z"/><path class="cls-27" d="M880.58,210.88l-33.5,89.73C842.3,313.4,829.33,322,814.77,322H739.18c-4.87,0-14.75,0-26.87-.06-37.4-.07-96.3-.23-96.3-.23l-35.5.29-12-16-76.81-102.6H874.82C879,203.38,882,207.22,880.58,210.88Z"/><path class="cls-28" d="M880.58,210.88l-33.5,89.73C842.3,313.4,829.33,322,814.77,322H712.34l0-.06L700.38,306l-76.81-102.6H874.82C879,203.38,882,207.22,880.58,210.88Z"/><path class="cls-3" d="M1127.7,507.79a137.83,137.83,0,0,0,5.62,27.21c.16.54.33,1.06.51,1.6a.24.24,0,0,0,0,.09,138.47,138.47,0,0,0,7,15.38c17.73,33.25,48.77,57.3,84.91,67.66,0,1.82,0,4,0,6.42,2.09.64,4.17,1.24,6.29,1.77l1.27.33,21.77,5.62.65.16h0l1.31.34,11.35,2.93c64.47,14,108.8-2.28,136.9-28.92a116.46,116.46,0,0,1,6.77-15.11c1.15-2.15,2.39-4.23,3.68-6.23l.6-.91c.18-.29.35-.56.53-.83a.76.76,0,0,0,.11-.14A131.56,131.56,0,0,0,1441,528.9s6.08-36.54-6.28-75c0,0,0-.08,0-.11-8.48-22.19-23.55-44.26-49.84-59.76-1.28-.74-2.57-1.48-3.89-2.19-31.16-15.78-66.55-24.54-100.07-26.52-37.23-2.15-72.21,4.06-96.58,18.41a81.71,81.71,0,0,0-15.67,11.75c-16.67,16.17-29.45,36.25-36,58.87h0A139.44,139.44,0,0,0,1127.7,507.79Z"/><path class="cls-29" d="M1171.14,385l2.7.73,10.41-4.62,37.65,5.68,33.72.59,31.51.56,41.09.72,56.57,5.2,6.91.65v-.95c0-.22,0-.43,0-.65v-.38c-.13-3.71-.42-8.51-.79-13.95-1.17-17.26-3.18-41-3.72-56.6-.29-8.16-.18-14.09.66-15.74-3.68,0-18.82-.11-39.39-.25l-22.09-.16c-62-.47-147.95-1.19-147.95-1.19s-.19,7.3-.59,17.34c-.54,13.29-1.42,31.4-2.64,43.74-.18,1.9-.38,3.68-.59,5.26C1174,375.48,1171.84,384.22,1171.14,385Z"/><path class="cls-30" d="M1036.42,210.88l33.5,89.73c4.78,12.79,17.75,21.36,32.31,21.36H1539c14.57,0,27.54-8.57,32.32-21.36l33.5-89.73c1.37-3.66-1.56-7.5-5.77-7.5H1042.18C1038,203.38,1035.05,207.22,1036.42,210.88Z"/><ellipse class="cls-6" cx="1549.88" cy="254.1" rx="8.85" ry="5.94" transform="translate(785.43 1626.08) rotate(-70.18)"/><path class="cls-7" d="M1173,388.41l.46-5.51,10.75-1.8,37.65,5.68,33.72.59,31.51.56,41.09.72,56.57,5.2,6.91.65v-.95c0-.22,0-.43,0-.65-.13-3-.42-6.86-.79-11.26-28.51-18-70.67-29.42-117.68-29.42-34.63,0-72,8-98.63,18.75C1174,375.48,1173.37,384.15,1173,388.41Z"/><ellipse class="cls-6" cx="1216.26" cy="252.56" rx="7.31" ry="10.11" transform="translate(-24.15 319.24) rotate(-14.81)"/><ellipse class="cls-6" cx="1480.77" cy="224.27" rx="10.11" ry="7.55" transform="matrix(0.27, -0.96, 0.96, 0.27, 861.04, 1587.69)"/><ellipse class="cls-6" cx="1062.25" cy="225.32" rx="5.23" ry="8.55" transform="translate(-19.74 317.23) rotate(-16.83)"/><ellipse class="cls-6" cx="1321.96" cy="223.8" rx="8.73" ry="8.81"/><ellipse class="cls-6" cx="1395.8" cy="301.45" rx="7.84" ry="8.18"/><ellipse class="cls-6" cx="1131.4" cy="299.89" rx="6.21" ry="8.18" transform="matrix(0.97, -0.25, 0.25, 0.97, -39.05, 292.51)"/><path class="cls-31" d="M1241.57,679c.45,6.8.65,13.68.63,20.51,0,29.71-3.7,58.68-4.13,78.34a157.19,157.19,0,0,0,2.71,33.08,146,146,0,0,0,6.79,24.2c.43,1.11.85,2.21,1.29,3.29,1.53,3.77,3.13,7.25,4.78,10.47a104,104,0,0,0,8.43,13.78,44.53,44.53,0,0,0,46.09,16.77A93.09,93.09,0,0,0,1342.67,864c18.35-13.49,30-34.31,32.9-56.92,9.81-75.88,13.39-130.46,21.74-169.89a206.79,206.79,0,0,1,8.08-28.82,115.71,115.71,0,0,1,6.77-15.1c.49-.92,1-1.83,1.53-2.71a.1.1,0,0,0,0-.08c.19-.34.39-.66.59-1s.29-.45.43-.67l0-.11c.33-.57.69-1.13,1-1.69l.59-.91c.18-.29.36-.56.54-.83l.11-.14c-1.82-1-5.48-1.38-10.62-1.38-.93,0-1.92,0-3,.05-7.3.21-16.87,1.15-27.81,2.6-8,1.05-16.69,2.37-25.76,3.88h0c-10.11,1.67-20.67,3.58-31.18,5.61h0c-6.82,1.33-13.63,2.69-20.26,4.09-2.89.6-5.77,1.21-8.59,1.82h0c-15.65,3.38-30,6.79-41,9.79-7.2,2-13,3.75-16.88,5.24,5.14,2.18,12.11,5.5,16.88,7.82l2.05,1,.16.09a0,0,0,0,1,0,0,7,7,0,0,1,.83.49,5.85,5.85,0,0,1,.48.34l0,0,0,.06a2.16,2.16,0,0,1,.43.37,3.06,3.06,0,0,1,.36.36s0,0,0,0a4.2,4.2,0,0,0,.29.32s0,0,0,.06c.15.18.29.36.42.55a7.85,7.85,0,0,1,1.17,2.68c.19.86.39,1.85.61,2.95h0a.78.78,0,0,0,0,.21c.07.4.14.79.23,1.2s.15.85.24,1.28c.12.77.27,1.58.39,2.41,0,.18.06.36.09.55q.2,1.3.36,2.64c1.11,8.48,1.42,18.54-1.76,24.63a7.3,7.3,0,0,1-11.33,2.14L1244,669a45,45,0,0,1-3.27-3.77,7.26,7.26,0,0,0-3.1-2.17s.21.63.53,1.65l0,.15h0l0,.18C1239.34,668.4,1241.3,675,1241.57,679Z"/><path class="cls-9" d="M1241.57,679c.45,6.8.65,13.68.63,20.51,0,10.22-.45,20.35-1,30-1.13,18.49-2.8,35.39-3.09,48.29a157.19,157.19,0,0,0,2.71,33.08l82.36-91.41,2.25-2.5,8.58-9.52,1.06-1.16,4.55-5.07,5.39-6h0l.27-.31,2.88-3.19,19.2-21.33,2.89-3.18.27-.3,5.39-6,4.56-5.09,1.06-1.16,8.59-9.54,2.24-2.48,5-5.53a206.79,206.79,0,0,1,8.08-28.82,115.71,115.71,0,0,1,6.77-15.1c.49-.92,1-1.83,1.53-2.71a.1.1,0,0,0,0-.08c.19-.34.39-.66.59-1-1.42-1.14-2.87-2.23-4.38-3.33-1.13-.82-2.28-1.61-3.47-2.4-.93,0-1.92,0-3,.05-7.3.21-16.87,1.15-27.81,2.6q-3.1.41-6.36.87c-6.16.88-12.68,1.9-19.4,3h0c-10.11,1.67-20.67,3.58-31.18,5.61h0c-6.82,1.33-13.63,2.69-20.26,4.09-2.89.6-5.77,1.21-8.59,1.82h0c-15.65,3.38-30,6.79-41,9.79-7.2,2-13,3.75-16.88,5.24,5.14,2.18,12.11,5.5,16.88,7.82l2.05,1,.16.09a0,0,0,0,1,0,0,7,7,0,0,1,.83.49,5.85,5.85,0,0,1,.48.34l0,0,0,.06a2.16,2.16,0,0,1,.43.37,3.06,3.06,0,0,1,.36.36s0,0,0,0a4.2,4.2,0,0,0,.29.32s0,0,0,.06c.15.18.29.36.42.55a7.85,7.85,0,0,1,1.17,2.68c.19.86.39,1.85.61,2.95h0a.78.78,0,0,0,0,.21c.07.4.14.79.23,1.2s.15.85.24,1.28c.12.77.27,1.58.39,2.41,0,.18.06.36.09.55q.2,1.3.36,2.64c1.11,8.48,1.42,18.54-1.76,24.63a7.3,7.3,0,0,1-11.33,2.14L1244,669a45,45,0,0,1-3.27-3.77,7.26,7.26,0,0,0-3.1-2.17s.21.63.53,1.65l0,.15h0l0,.18C1239.34,668.4,1241.3,675,1241.57,679Z"/><path class="cls-9" d="M1237.66,663.1s.21.63.53,1.65l0,.15h0l0,.18c1,3.31,3,9.95,3.27,13.91.45,6.8.65,13.68.63,20.51,0,10.22-.45,20.35-1,30l61.4-68.13,2.24-2.5,8.59-9.52,1.06-1.17,4.54-5.08,5.39-6h0l.27-.33,2.87-3.18,19.2-21.32,2.9-3.18.27-.3,5.38-6,4.57-5.09,1.06-1.17,8.42-9.35c-6.16.88-12.68,1.9-19.4,3h0c-10.11,1.67-20.67,3.58-31.18,5.61h0c-6.82,1.33-13.63,2.69-20.26,4.09-2.89.6-5.77,1.21-8.59,1.82h0c-15.65,3.38-30,6.79-41,9.79-7.2,2-13,3.75-16.88,5.24,5.14,2.18,12.11,5.5,16.88,7.82l2.05,1,.16.09a0,0,0,0,1,0,0,7,7,0,0,1,.83.49,5.85,5.85,0,0,1,.48.34l0,0,0,.06a2.16,2.16,0,0,1,.43.37,3.06,3.06,0,0,1,.36.36s0,0,0,0a4.2,4.2,0,0,0,.29.32s0,0,0,.06c.15.18.29.36.42.55a7.85,7.85,0,0,1,1.17,2.68c.19.86.39,1.85.61,2.95h0a.78.78,0,0,0,0,.21c.07.4.14.79.23,1.2s.15.85.24,1.28c.12.77.27,1.58.39,2.41,0,.18.06.36.09.55q.2,1.3.36,2.64c1.11,8.48,1.42,18.54-1.76,24.63a7.3,7.3,0,0,1-11.33,2.14L1244,669a45,45,0,0,1-3.27-3.77A7.26,7.26,0,0,0,1237.66,663.1Z"/><path class="cls-10" d="M1238.19,664.75l0,.15h0l0,.18c.79.61,1.87,1.58,2.59,2.09a35.16,35.16,0,0,1,2.73,2.6,7.79,7.79,0,0,0,6.05,2.25,8.1,8.1,0,0,0,1-.06c4.89-.52,6.31-4.22,6.92-5.8l.14-.38c3.41-9.1,1.37-22.74-.57-31.41-.36-1.64-.72-3.11-1.05-4.33a4.43,4.43,0,0,0-2.91-3.15h0l-.11,0-.18-.05a.3.3,0,0,0-.13,0,.66.66,0,0,0-.25-.07,1.09,1.09,0,0,0-.45-.06,1.34,1.34,0,0,0-.36,0,3.81,3.81,0,0,0-.66,0,9.09,9.09,0,0,1,2.26.77s0,0,0,0a.67.67,0,0,1,.29.32s0,0,0,.06c.35,1.24.92,3.36,1.55,6,1.94,8.45,4.22,22.39.88,31.28l-.16.37c-.56,1.5-1.62,4.26-5.41,4.67a8.59,8.59,0,0,1-6.63-2.31l-.28-.24c-.88-1.09-1.28-2.58-2.81-2.37h-.07Z"/><path class="cls-32" d="M1225.91,614.67l0,0v0a41.25,41.25,0,0,0,2.76,5.78c.43.77.88,1.56,1.39,2.37s.93,1.58,1.45,2.39v0c.59,1,1.22,2,1.87,3,2.51,4,5.1,8,7,11.53a21.58,21.58,0,0,1,2.44,13.19c-.86,5.8-3.74,8.89-7.26,10.87l.45.14a16.84,16.84,0,0,1,2.23.92h0A26.87,26.87,0,0,1,1244,669l.06.06a7.3,7.3,0,0,0,11.33-2.14c3.18-6.09,2.87-16.15,1.76-24.63q-.17-1.33-.36-2.64c0-.19,0-.37-.09-.55-.12-.83-.27-1.64-.39-2.41-.09-.43-.16-.86-.24-1.28s-.16-.8-.23-1.2a.78.78,0,0,1,0-.21h0c-.22-1.1-.42-2.09-.61-2.95-.54-2.37-.6-2.77-2-3.88a4.6,4.6,0,0,1-.44-.43s0,0,0,0,0,0,0,0h0a9.4,9.4,0,0,0-.68-.72c-.27-.13-.75-.32-1.06-.48-.07,0,0,.08.16.28a0,0,0,0,1,0,0c.18.25.43.56.43.59h0c-7.56-3.73-22.52-11.21-25.56-11.71Z"/><path class="cls-33" d="M1225.84,626.15c.09,10,.57,23.58,2.08,28.47,1.42,4.55,2.17,8,6.84,9,.24.05.51.12.79.2,3.52-2,6.4-5.07,7.26-10.87a21.58,21.58,0,0,0-2.44-13.19c-1.87-3.52-4.46-7.54-7-11.53-.65-1-1.28-2-1.87-3v0c-.52-.81-1-1.6-1.45-2.39s-.9-1.58-1.33-2.33a0,0,0,0,0,0,0,42.07,42.07,0,0,1-2.79-5.84h0v0c-.06.36-.11,2.24-.11,5v0C1225.8,621.55,1225.8,623.74,1225.84,626.15Z"/><path class="cls-34" d="M1274,477.49a53.89,53.89,0,1,0,43.2-52.89A54,54,0,0,0,1274,477.49Z"/><path class="cls-35" d="M1124.51,486.27a139.6,139.6,0,0,0,8.82,48.74c.18.54.39,1.06.59,1.59a.79.79,0,0,0,0,.09,136,136,0,0,0,62.69,71.07,142.14,142.14,0,0,0,18.84,8.56c2.08.78,4.17,1.51,6.29,2.18,1.34.43,2.69.82,4,1.22l.09,0c.91.25,1.85.52,2.78.75l0,0,.07,0h0c.28.09.55.16.84.23l19.18,4.94,2.64.68h0l.16.06h0l.7.18.25.07h0l.65.16,12.73,3.29c4.75,1,9.36,1.9,13.89,2.6,46,7.22,80.83-1.65,106.27-18.3q4.77-3.13,9.11-6.59c.21-.18.43-.35.64-.51a121.12,121.12,0,0,0,20.48-21.21c.22-.27.43-.56.63-.83l.11-.14a122.3,122.3,0,0,0,25.14-69.95c.69-14.08.15-37.34-7.56-61.36a.45.45,0,0,1,0-.11,122.73,122.73,0,0,0-24.69-44.2c-.77-.88-1.58-1.76-2.4-2.64a107.34,107.34,0,0,0-9.18-8.7c-2.16-1.81-4.4-3.59-6.77-5.3-3-2.17-6.2-4.25-9.58-6.23-1.18-.7-2.39-1.38-3.63-2.05-28.27-14.32-60-22.87-90.73-25.78a242,242,0,0,0-38.89-.64c-30.28,2-57.24,10.09-75.73,24.12a73.32,73.32,0,0,0-7,6c-16.66,16.14-29.45,36.23-36,58.84A139.89,139.89,0,0,0,1124.51,486.27Z"/><path class="cls-15" d="M1252.71,626.74l.34.11.11,0a197.74,197.74,0,0,0,19.76,5.3,175.7,175.7,0,0,0,20.67,3.16c6,.54,11.71.79,17.21.79,55.43,0,86.1-24.77,102.32-44.64.09-.18.32-.52.57-.93a.1.1,0,0,0,0-.08c.34-.52.73-1.15,1-1.65l0-.11c.06-.09.09-.18.13-.25a115,115,0,0,1-19,18.86c-.21.16-.43.33-.64.51C1370.63,627,1329.7,643,1266.23,629.26l-12.91-2.41Z"/><path class="cls-10" d="M1344.12,577.5a17,17,0,1,0,17-17A16.93,16.93,0,0,0,1344.12,577.5Z"/><path class="cls-10" d="M1285.52,590.49a16.87,16.87,0,0,0,1.6,7.19,15.51,15.51,0,0,0,1.29,2.29,17,17,0,1,0,27.81-19.7,14.91,14.91,0,0,0-1.47-1.71,17,17,0,0,0-29.23,11.93Z"/><path class="cls-10" d="M1209.81,542.12a24.39,24.39,0,0,0,4.54,14.2l.6.8c.36.46.73.91,1.13,1.36,0,0,0,0,0,0a24.65,24.65,0,0,0,6.34,5,24.22,24.22,0,0,0,11.91,3.09,24.54,24.54,0,0,0,24.55-24.53,20,20,0,0,0-.11-2.2,24,24,0,0,0-1-5.1,22.05,22.05,0,0,0-1.32-3.3c-.07-.16-.16-.33-.25-.49a24.53,24.53,0,0,0-46.43,11.09Z"/><path class="cls-16" d="M1209.81,542.12a24.39,24.39,0,0,0,4.54,14.2l.6.8A113.91,113.91,0,0,0,1256.24,531a24.53,24.53,0,0,0-46.43,11.09Z"/><path class="cls-16" d="M1285.52,590.49a16.87,16.87,0,0,0,1.6,7.19,23.15,23.15,0,0,0,3.65.28,24.53,24.53,0,0,0,24-19.4,17,17,0,0,0-29.23,11.93Z"/><path class="cls-16" d="M1344.12,577.5a16.93,16.93,0,0,0,2.66,9.15h1a27.87,27.87,0,0,0,26.69-19.79,17,17,0,0,0-30.37,10.63Z"/><circle class="cls-36" cx="1234.35" cy="542.11" r="26.48"/><path class="cls-10" d="M1183.33,472.74a24.53,24.53,0,1,0,24.54-24.55A24.32,24.32,0,0,0,1183.33,472.74Z"/><circle class="cls-37" cx="1207.87" cy="472.74" r="26.48"/><path class="cls-10" d="M1274,477.49a53.89,53.89,0,1,0,43.2-52.89A54,54,0,0,0,1274,477.49Z"/><path class="cls-38" d="M1277.22,477.49A50.76,50.76,0,1,0,1351,432.26a50.43,50.43,0,0,0-33.12-4.51A50.74,50.74,0,0,0,1277.22,477.49Z"/><circle class="cls-20" cx="1327.97" cy="477.48" r="38.74"/><path class="cls-21" d="M1290.7,477.49A37.27,37.27,0,1,0,1328,440.2,37.27,37.27,0,0,0,1290.7,477.49Z"/><path class="cls-10" d="M1297.38,477.48c0,.53-1.24,1.09-1.21,1.61s1.31,1,1.36,1.49-1.12,1.2-1,1.72,1.4.83,1.51,1.34-1,1.31-.86,1.82,1.47.68,1.63,1.18-.85,1.41-.67,1.9,1.54.53,1.75,1-.71,1.49-.47,2,1.58.36,1.84.82-.55,1.55-.27,2,1.61.2,1.91.63-.39,1.6-.07,2,1.62,0,2,.44-.23,1.63.13,2,1.62-.13,2,.24-.06,1.64.34,2,1.6-.29,2,0,.1,1.64.53,1.94,1.56-.45,2-.17.27,1.62.73,1.88,1.5-.61,2-.37.43,1.58.91,1.79,1.44-.75,1.93-.57.59,1.53,1.1,1.69,1.35-.9,1.86-.76.74,1.46,1.26,1.57,1.25-1,1.78-.95.88,1.38,1.41,1.43,1.14-1.15,1.67-1.12,1,1.29,1.55,1.29,1-1.27,1.55-1.29,1.15,1.18,1.68,1.12.89-1.35,1.41-1.43,1.26,1,1.78.95.75-1.44,1.26-1.57,1.36.92,1.86.76.6-1.51,1.1-1.69,1.44.78,1.93.57.44-1.56.91-1.8,1.52.63,2,.38.29-1.6.73-1.88,1.58.47,2,.17.12-1.62.54-1.95,1.61.31,2,0,0-1.62.34-2,1.63.15,2-.23-.21-1.61.13-2,1.65,0,2-.44-.37-1.58-.07-2,1.64-.19,1.92-.63-.53-1.54-.28-2,1.61-.35,1.84-.82-.68-1.48-.47-2,1.56-.51,1.75-1-.83-1.39-.67-1.9,1.5-.66,1.63-1.18-1-1.3-.86-1.82,1.43-.81,1.51-1.34-1.1-1.2-1-1.72,1.33-1,1.36-1.49-1.21-1.08-1.21-1.61,1.24-1.09,1.21-1.61-1.31-1-1.36-1.49,1.12-1.21,1-1.72-1.4-.83-1.51-1.34,1-1.32.86-1.83-1.48-.67-1.63-1.18.85-1.4.67-1.9-1.54-.52-1.75-1,.7-1.49.47-2-1.58-.36-1.84-.83.55-1.55.27-2-1.61-.2-1.91-.63.39-1.6.07-2-1.63,0-2-.43.23-1.63-.13-2-1.62.13-2-.23.07-1.64-.33-2-1.6.29-2,0-.1-1.64-.53-1.94-1.56.45-2,.17-.27-1.63-.73-1.88-1.5.6-2,.37-.43-1.59-.91-1.8-1.44.76-1.94.58-.58-1.54-1.09-1.7-1.35.9-1.86.77-.74-1.47-1.26-1.57-1.26,1-1.78,1-.89-1.38-1.41-1.44-1.14,1.16-1.67,1.13-1-1.29-1.56-1.29-1,1.26-1.55,1.29-1.15-1.18-1.67-1.13-.89,1.36-1.41,1.44-1.26-1.06-1.78-1-.75,1.44-1.26,1.57-1.36-.92-1.86-.77-.6,1.51-1.1,1.7-1.45-.78-1.93-.57-.44,1.56-.92,1.79-1.52-.63-2-.37-.28,1.6-.72,1.88-1.58-.47-2-.17-.12,1.62-.54,1.94-1.61-.31-2,0,0,1.62-.34,2-1.64-.14-2,.24.21,1.61-.13,2-1.65,0-2,.44.37,1.58.07,2-1.64.18-1.92.63.53,1.54.28,2-1.61.35-1.84.82.68,1.47.47,2-1.56.51-1.75,1,.83,1.4.67,1.91-1.5.66-1.63,1.17,1,1.31.86,1.83-1.43.81-1.51,1.33,1.09,1.2,1,1.73-1.34.95-1.36,1.48S1297.38,477,1297.38,477.48Z"/><g class="cls-22"><path class="cls-23" d="M1304.21,477.48c0,.41-1,.84-.94,1.25s1,.75,1.06,1.15-.87.94-.81,1.34,1.09.65,1.17,1-.77,1-.67,1.41,1.15.53,1.27.92-.66,1.09-.52,1.47,1.2.41,1.36.79-.55,1.15-.37,1.52,1.23.28,1.43.64-.43,1.2-.21,1.55,1.25.15,1.49.49-.31,1.24-.06,1.56,1.26,0,1.53.34-.18,1.27.11,1.56,1.25-.1,1.55.19,0,1.27.26,1.54,1.24-.23,1.57,0,.08,1.27.41,1.51,1.21-.35,1.56-.14.21,1.26.57,1.46,1.17-.47,1.54-.29.33,1.24.71,1.4,1.11-.59,1.5-.45.45,1.2.85,1.32,1-.7,1.44-.6.58,1.14,1,1.22,1-.8,1.38-.73.69,1.07,1.1,1.11.89-.89,1.3-.87.79,1,1.2,1,.8-1,1.21-1,.89.91,1.3.87.69-1,1.1-1.11,1,.82,1.38.73.58-1.11,1-1.22,1.06.72,1.45.6.47-1.18.85-1.32,1.13.61,1.5.45.35-1.22.72-1.4,1.18.49,1.53.29.22-1.24.57-1.46,1.22.37,1.56.13.09-1.26.42-1.51,1.25.24,1.56,0,0-1.26.26-1.55,1.27.12,1.56-.18-.17-1.25.1-1.56,1.28,0,1.53-.34-.29-1.23,0-1.56,1.26-.15,1.48-.5-.41-1.19-.21-1.55,1.25-.27,1.43-.64-.53-1.14-.37-1.52,1.22-.39,1.36-.78-.64-1.08-.52-1.47,1.17-.52,1.27-.92-.75-1-.67-1.41,1.11-.64,1.17-1-.85-.94-.81-1.34,1-.75,1.06-1.16-.94-.84-.94-1.25,1-.85.94-1.25-1-.75-1.06-1.16.87-.94.81-1.34-1.09-.64-1.17-1,.77-1,.67-1.42-1.15-.52-1.27-.91.66-1.09.52-1.48-1.2-.4-1.36-.78.55-1.15.37-1.52-1.23-.28-1.43-.64.43-1.2.21-1.55-1.25-.16-1.49-.49.31-1.24.06-1.57-1.27,0-1.53-.34.18-1.26-.11-1.56-1.25.1-1.55-.18.05-1.28-.26-1.54-1.24.22-1.57,0-.08-1.27-.41-1.51-1.22.35-1.56.13-.21-1.26-.57-1.46-1.17.47-1.54.29-.33-1.23-.71-1.39-1.11.59-1.5.44-.46-1.19-.85-1.31-1.05.7-1.45.59-.57-1.14-1-1.22-1,.8-1.38.74-.69-1.07-1.1-1.12-.89.9-1.3.88-.79-1-1.21-1-.79,1-1.2,1-.89-.92-1.3-.88-.69,1.06-1.1,1.12-1-.82-1.38-.74-.58,1.12-1,1.22-1.06-.71-1.44-.59-.47,1.17-.85,1.31-1.13-.6-1.51-.44-.34,1.21-.71,1.39-1.18-.48-1.54-.28-.21,1.24-.56,1.46-1.23-.37-1.56-.14-.09,1.26-.42,1.51-1.25-.24-1.56,0,0,1.26-.26,1.54-1.28-.11-1.56.19.16,1.25-.1,1.56-1.28,0-1.53.34.29,1.22,0,1.56-1.27.14-1.48.49.41,1.19.21,1.55-1.25.27-1.43.64.53,1.15.37,1.52-1.22.4-1.36.78.64,1.09.52,1.48-1.17.52-1.27.92.75,1,.67,1.41-1.11.63-1.17,1,.85.93.81,1.34-1,.74-1.06,1.15S1304.21,477.07,1304.21,477.48Z"/></g><g class="cls-22"><path class="cls-23" d="M1307.28,477.49c0,.3-.83.62-.82.93s.87.55.9.85-.78.7-.74,1,.92.48,1,.77-.72.77-.65,1.06,1,.4,1,.69-.65.82-.56,1.11,1,.31,1.09.6-.57.87-.46,1.15,1,.22,1.14.5-.5.92-.36,1.19,1,.14,1.18.4-.42,1-.25,1.22,1,0,1.2.29-.33,1-.14,1.23,1,0,1.22.19-.24,1,0,1.25,1-.14,1.24.08-.15,1,.07,1.24,1-.22,1.24,0-.07,1,.17,1.23,1-.31,1.24-.14,0,1.05.28,1.22,1-.4,1.22-.24.11,1,.38,1.18.92-.47,1.19-.34.21,1,.49,1.14.87-.55,1.16-.44.29,1,.58,1.1.82-.63,1.12-.55.37,1,.67,1.05c0,0,.3-.8.35-.79s-.09.85,0,.86.28-.8.34-.79-.08.85,0,.86.28-.81.33-.8-.07.85,0,.86.26-.81.31-.8,0,.85,0,.86.25-.81.3-.8,0,.85,0,.86.23-.82.28-.81,0,.85,0,.85.23-.82.28-.81,0,.85,0,.86.21-.83.26-.82,0,.85.06.86.2-.83.25-.82,0,.85.07.85.18-.83.24-.82,0,.85.08.85.17-.83.22-.83,0,.85.1.86.16-.84.21-.84.06.85.11.85.15-.83.2-.83.07.85.12.85.13-.84.19-.84.08.85.13.85.12-.84.18-.84.09.84.15.84.11-.84.16-.84c.36,0,.73.84,1.09.82s.65-.89,1-.92.82.75,1.17.7.56-.95.91-1,.89.67,1.23.58.46-1,.8-1.1.95.57,1.28.45.36-1,.68-1.18,1,.48,1.33.32.24-1.07.56-1.24,1,.37,1.35.18.13-1.09.43-1.29,1.08.26,1.36,0,0-1.09.29-1.33,1.1.16,1.36-.09-.08-1.09.16-1.35,1.11,0,1.35-.23-.2-1.08,0-1.36,1.11-.07,1.31-.36-.3-1.06-.11-1.36,1.1-.18,1.27-.49-.41-1-.25-1.34,1.07-.29,1.21-.62-.51-1-.38-1.31,1-.39,1.14-.73-.61-.92-.52-1.26,1-.51,1.07-.86-.7-.84-.65-1.2.94-.6,1-.95-.78-.78-.77-1.13.87-.7.87-1.05c0-.05-.84-.1-.84-.14s.84-.1.84-.15-.84-.08-.84-.13.84-.11.84-.16-.85-.07-.85-.11.84-.13.84-.17-.85-.06-.85-.11.84-.13.84-.18-.85,0-.85-.09.83-.15.83-.19-.85,0-.85-.09.83-.15.83-.2-.85,0-.85-.07.83-.17.83-.22-.85,0-.86-.05.83-.18.83-.23-.85,0-.86-.05.83-.19.83-.23-.85,0-.86,0,.83-.2.82-.25-.85,0-.86,0,.83-.22.82-.26-.85,0-.86,0,.82-.23.81-.28-.84.05-.85,0,.81-.24.81-.29-.85.06-.86,0,.81-.25.8-.3-.84.08-.85,0,.81-.26.8-.31-.85.09-.86,0c-.06-.3.69-.8.62-1.1s-1-.37-1.07-.67.62-.85.52-1.14-1-.29-1.12-.58.54-.9.41-1.19-1-.19-1.16-.47.46-.95.31-1.22-1-.11-1.2-.37.37-1,.19-1.24-1,0-1.23-.26.29-1,.09-1.26-1,.08-1.25-.15.2-1,0-1.25-1,.16-1.26-.05.11-1.05-.13-1.25-1,.26-1.26.07,0-1.05-.24-1.23-1,.34-1.24.18-.09-1.05-.35-1.21-.95.43-1.23.29-.17-1-.45-1.17-.91.51-1.2.39-.26-1-.55-1.13-.86.6-1.16.5-.35-1-.65-1.07-.8.67-1.11.6-.44-1-.74-1-.74.73-1,.69-.52-.91-.84-.94-.67.8-1,.78-.6-.86-.91-.86-.7.85-1,.87-.78-.8-1.13-.76-.61.92-1,1-.85-.71-1.2-.64-.51,1-.85,1.06-.92-.62-1.26-.52-.41,1-.74,1.15-1-.53-1.31-.39-.3,1.06-.62,1.22-1-.43-1.34-.26-.19,1.09-.49,1.28-1.07-.32-1.36-.12-.08,1.1-.36,1.32-1.09-.21-1.36,0,0,1.1-.23,1.34-1.11-.09-1.35.16.14,1.09-.09,1.36-1.11,0-1.33.3.25,1.07,0,1.36-1.1.13-1.29.43.36,1,.19,1.35-1.09.24-1.25.56.46,1,.32,1.32-1,.35-1.18.68.56.95.46,1.29-1,.45-1.11.8.65.88.58,1.23-1,.55-1,.9.74.81.71,1.17-.91.65-.92,1S1307.28,477.13,1307.28,477.49Z"/></g><g class="cls-22"><path class="cls-23" d="M1315.64,477.48c0,.18-.5.38-.5.56s.53.33.54.51-.46.41-.44.59.55.29.58.46-.43.46-.39.64.57.23.62.41-.39.49-.34.66.59.18.65.35-.34.53-.27.69.6.14.68.3-.3.55-.22.71.62.08.71.24-.25.57-.15.72.61,0,.72.18-.2.59-.09.74.61,0,.73.11-.15.6,0,.74.61-.08.73.05-.09.61,0,.74.61-.13.75,0,0,.63.1.74.59-.19.73-.08,0,.62.17.72.57-.23.73-.14.07.62.23.71.54-.29.71-.21.12.61.29.68.52-.33.69-.26.17.6.34.65.5-.37.67-.32.23.58.4.62.18-.47.21-.47,0,.51,0,.52.17-.48.2-.48-.05.51,0,.52.17-.48.2-.48,0,.51,0,.51.16-.48.19-.47,0,.5,0,.51.15-.49.18-.48,0,.51,0,.51.14-.49.17-.48,0,.51,0,.51.13-.49.16-.48,0,.5,0,.51.13-.49.16-.49,0,.51,0,.51.12-.49.15-.49,0,.51,0,.51.11-.49.15-.49,0,.51.05.51.1-.5.13-.5,0,.51.06.51.09-.5.12-.49,0,.5.07.5.08-.5.12-.49,0,.5.07.5.08-.5.11-.5.05.51.08.51.07-.5.11-.5,0,.5.08.5.07-.5.1-.5c.22,0,.44.5.65.49s.39-.53.6-.55.49.45.7.42.33-.57.54-.61.53.4.73.35.28-.6.48-.66.57.34.77.27.21-.62.4-.71.6.29.79.19.15-.64.34-.74.62.22.8.11.08-.65.26-.77.64.16.81,0,0-.66.17-.8.66.1.82,0-.06-.65.09-.81.66,0,.8-.13-.11-.65,0-.82.66,0,.78-.21-.18-.63-.07-.81.66-.11.76-.29-.24-.61-.15-.8.64-.18.72-.37-.3-.58-.23-.78.62-.24.69-.44-.37-.55-.31-.75.59-.3.63-.51-.41-.51-.38-.72.56-.35.58-.57-.47-.46-.46-.67.52-.41.52-.63c0,0-.5-.05-.5-.08s.5-.06.5-.09-.5-.05-.5-.07.5-.07.5-.1-.51,0-.51-.07.5-.07.5-.1-.5,0-.5-.06.5-.08.49-.11-.5,0-.5-.06.5-.08.5-.11-.51,0-.51-.05.5-.09.49-.12-.5,0-.51,0,.5-.1.5-.13-.51,0-.51,0,.49-.1.49-.13-.5,0-.51,0,.5-.11.49-.14-.5,0-.51,0,.49-.12.49-.15-.51,0-.51,0,.49-.12.49-.15-.51,0-.51,0,.49-.13.48-.16-.51,0-.51,0,.49-.14.48-.17-.5,0-.51,0,.49-.15.48-.17-.5,0-.51,0,.48-.15.48-.18-.51.05-.51,0,.41-.47.36-.65-.58-.23-.63-.4.37-.51.31-.69-.6-.17-.67-.34.32-.54.25-.71-.61-.12-.7-.28.28-.57.18-.73-.61-.06-.71-.22.22-.59.12-.74-.63,0-.74-.15.17-.61.05-.75-.62,0-.74-.09.12-.62,0-.75-.62.1-.75,0,.06-.62-.08-.74-.6.15-.75,0,0-.63-.15-.74-.58.21-.74.11-.05-.63-.21-.72-.56.26-.73.17-.1-.62-.27-.7-.54.31-.71.24-.16-.61-.33-.67-.51.35-.69.29-.21-.59-.39-.64-.48.4-.66.36-.26-.57-.44-.6-.45.44-.63.41-.31-.54-.5-.56-.4.48-.58.47-.36-.52-.55-.52-.41.51-.62.52-.47-.47-.68-.45-.36.54-.57.58-.51-.43-.71-.39-.31.58-.51.64-.55-.38-.76-.31-.24.61-.44.68-.58-.31-.78-.23-.17.63-.37.73-.61-.26-.79-.15-.12.64-.3.75-.63-.19-.81-.06-.05.65-.21.78-.65-.12-.82,0,0,.66-.13.81-.66-.06-.81.09.09.65-.05.81-.67,0-.8.18.15.64,0,.81-.66.08-.77.26.22.62.11.8-.65.14-.74.33.28.6.19.79-.63.21-.7.41.33.56.27.77-.61.26-.66.47.39.53.35.74-.58.32-.61.54.44.48.42.69-.54.39-.55.6S1315.64,477.27,1315.64,477.48Z"/></g><g class="cls-24"><path class="cls-25" d="M1303.9,477.48c0,.42-1,.85-1,1.27s1,.75,1.07,1.16-.88.95-.81,1.36,1.1.65,1.18,1.06-.78,1-.68,1.43,1.17.53,1.29.93-.67,1.11-.53,1.49,1.22.41,1.38.79-.56,1.17-.37,1.55,1.24.28,1.44.64-.43,1.22-.21,1.57,1.27.16,1.51.5-.31,1.26-.06,1.59,1.28,0,1.55.34-.18,1.28.11,1.58,1.27-.1,1.57.19-.05,1.29.27,1.56,1.25-.23,1.58,0,.08,1.29.42,1.52,1.23-.35,1.58-.13.21,1.28.57,1.48,1.19-.48,1.56-.29.34,1.24.72,1.41,1.13-.6,1.52-.45.47,1.2.86,1.33,1.07-.71,1.47-.6.58,1.15,1,1.23,1-.81,1.4-.74.69,1.08,1.11,1.13.9-.91,1.31-.89.81,1,1.22,1,.81-1,1.22-1,.91.93,1.32.89.7-1.07,1.11-1.13,1,.83,1.4.74.59-1.13,1-1.23,1.07.72,1.47.6.47-1.19.86-1.33,1.14.61,1.52.45.35-1.23.72-1.42,1.2.5,1.56.3.22-1.26.57-1.48,1.24.37,1.58.13.09-1.27.42-1.53,1.27.25,1.59,0,0-1.28.26-1.57,1.29.12,1.57-.18-.16-1.27.11-1.58,1.29,0,1.55-.35-.29-1.24-.06-1.58,1.29-.15,1.51-.5-.42-1.21-.21-1.57,1.26-.27,1.44-.65-.53-1.16-.37-1.54,1.23-.4,1.37-.79-.65-1.1-.52-1.49,1.18-.53,1.28-.93-.76-1-.67-1.43,1.12-.65,1.18-1.06-.86-.94-.82-1.35,1.06-.76,1.08-1.17-1-.85-1-1.27,1-.86,1-1.27-1-.76-1.08-1.17.88-1,.82-1.36-1.1-.64-1.18-1.05.78-1,.67-1.43-1.16-.54-1.28-.93.67-1.11.52-1.5-1.21-.41-1.37-.79.55-1.17.37-1.54-1.24-.29-1.45-.65.44-1.22.22-1.57-1.27-.16-1.51-.5.31-1.25.06-1.58-1.28,0-1.55-.34.18-1.28-.11-1.58-1.27.1-1.57-.19,0-1.29-.27-1.56-1.25.23-1.58,0-.08-1.29-.42-1.53-1.23.36-1.58.14-.21-1.28-.58-1.48-1.18.47-1.55.29-.34-1.25-.72-1.41-1.13.59-1.52.45-.47-1.21-.86-1.33-1.07.7-1.47.6-.58-1.15-1-1.24-1,.81-1.4.75-.7-1.09-1.11-1.13-.9.91-1.32.89-.8-1-1.22-1-.8,1-1.22,1-.9-.93-1.31-.89-.7,1.07-1.11,1.13-1-.83-1.4-.75-.59,1.14-1,1.24-1.07-.73-1.47-.6-.47,1.19-.86,1.33-1.14-.61-1.52-.45-.35,1.23-.72,1.41-1.2-.49-1.56-.29-.22,1.26-.57,1.48-1.24-.37-1.58-.14-.09,1.28-.42,1.53-1.27-.24-1.59,0,0,1.28-.26,1.56-1.29-.11-1.58.19.17,1.27-.1,1.58-1.3,0-1.55.34.29,1.25,0,1.59-1.28.14-1.5.49.41,1.21.21,1.58-1.26.27-1.44.64.53,1.16.37,1.54-1.23.4-1.38.79.66,1.1.53,1.5-1.18.52-1.29.93.76,1,.68,1.43-1.12.64-1.18,1.05.86.95.81,1.36-1,.75-1.07,1.17S1303.9,477.06,1303.9,477.48Z"/></g><rect class="cls-6" x="1293.43" y="585.15" width="18.29" height="2.09" transform="translate(2605.15 1172.4) rotate(-180)"/><rect class="cls-6" x="1293.43" y="589.44" width="18.29" height="2.09" transform="translate(2605.15 1180.97) rotate(-180)"/><rect class="cls-6" x="1293.43" y="593.73" width="18.29" height="2.09" transform="translate(2605.15 1189.55) rotate(-180)"/><rect class="cls-6" x="1362.07" y="572.41" width="4.65" height="4.65" rx="0.21" transform="translate(2728.78 1149.46) rotate(-180)"/><rect class="cls-6" x="1362.07" y="578.17" width="4.65" height="4.65" rx="0.21" transform="translate(2728.78 1160.98) rotate(-180)"/><path class="cls-6" d="M1355.53,577.06h5a.39.39,0,0,0,.41-.38v-3.95a.38.38,0,0,0-.34-.37l-5-.72a.4.4,0,0,0-.48.37v4.67A.4.4,0,0,0,1355.53,577.06Z"/><path class="cls-6" d="M1355.6,583.36l5-.5a.38.38,0,0,0,.35-.37v-3.94a.39.39,0,0,0-.41-.38h-5a.4.4,0,0,0-.41.38V583A.4.4,0,0,0,1355.6,583.36Z"/><path class="cls-16" d="M1183.33,472.74a24.32,24.32,0,0,0,5.09,14.95,35.73,35.73,0,0,0,8.6-.5,37.56,37.56,0,0,0,30.23-29.5,24.53,24.53,0,0,0-43.92,15.05Z"/><path class="cls-27" d="M1036.42,210.88l33.5,89.73c4.78,12.79,17.75,21.36,32.31,21.36h75.59c4.87,0,14.75,0,26.87-.06,37.4-.07,96.3-.23,96.3-.23l35.5.29,12-16,76.81-102.6H1042.18C1038,203.38,1035.05,207.22,1036.42,210.88Z"/><path class="cls-28" d="M1036.42,210.88l33.5,89.73c4.78,12.79,17.75,21.36,32.31,21.36h102.43l0-.06L1216.62,306l76.81-102.6H1042.18C1038,203.38,1035.05,207.22,1036.42,210.88Z"/><text class="cls-26" transform="translate(1200.74 478.71)">B</text><text class="cls-26" transform="translate(1226.32 547.44)">A</text><path class="cls-39" d="M249.61,394.5V381.07q0-1.9.12-4.17l.05-1.13h-.21c-.36,1.93-.64,3.26-.83,4l-3.61,14.73h-6.94l-3.77-14.56q-.16-.54-.81-4.17h-.2q.24,5.75.24,7.18V394.5h-6.48V370h11.06l3.36,13.32a15.72,15.72,0,0,1,.32,1.66c.13.84.21,1.49.25,1.94h.1c.12-1,.32-2.26.6-3.67L246,370h10.89V394.5Z"/><path class="cls-39" d="M280.51,385.44a9.11,9.11,0,0,1-2.68,7q-2.67,2.53-7.47,2.53t-7.43-2.47a8.86,8.86,0,0,1-2.66-6.81,9.15,9.15,0,0,1,1.25-4.84,8.11,8.11,0,0,1,3.55-3.14,12.27,12.27,0,0,1,5.32-1.1,11.93,11.93,0,0,1,5.39,1.15,8.26,8.26,0,0,1,3.5,3.18A8.59,8.59,0,0,1,280.51,385.44Zm-7.39,0q0-3.57-2.73-3.57c-1.82,0-2.73,1.24-2.73,3.74s.92,4,2.76,4S273.12,388.22,273.12,385.48Z"/><path class="cls-39" d="M296,394.5h-8.64L281.48,377h7.59l2.14,9.55a23.07,23.07,0,0,1,.56,3.47h.1c0-.22.05-.46.09-.7s.89-4.34,2.54-12.32h7.56Z"/><path class="cls-39" d="M310.07,387.82a2.49,2.49,0,0,0,1.3,1.77,5.93,5.93,0,0,0,2.94.64,12.11,12.11,0,0,0,4.82-1v4.62a17.48,17.48,0,0,1-6.43,1.06c-3.05,0-5.43-.78-7.12-2.34a8.32,8.32,0,0,1-2.55-6.45,10.58,10.58,0,0,1,1.12-5,8,8,0,0,1,3.32-3.37,10.42,10.42,0,0,1,9.49-.17,7.07,7.07,0,0,1,2.93,3,9.48,9.48,0,0,1,1,4.47v2.74Zm4.38-3.81c0-2-.73-3-2.17-3a1.83,1.83,0,0,0-1.52.83A4.16,4.16,0,0,0,310,384Z"/><path class="cls-39" d="M355.16,383.31q0,5.9-2.7,8.76c-1.79,1.9-4.56,2.86-8.29,2.86-3.49,0-6.14-1-7.94-2.86s-2.71-4.79-2.71-8.63V370h7.42v13.73a6.32,6.32,0,0,0,.88,3.63,2.86,2.86,0,0,0,2.52,1.27,2.94,2.94,0,0,0,2.52-1.19,6.08,6.08,0,0,0,.86-3.54V370h7.44Z"/><path class="cls-39" d="M378.77,385.22a12.44,12.44,0,0,1-1,5.08,7.83,7.83,0,0,1-2.75,3.41,6.94,6.94,0,0,1-4,1.22,5.37,5.37,0,0,1-4.67-2.24h-.07v9.86H359V377h7.28v2.38h.07a6.12,6.12,0,0,1,2.26-2.06,6.48,6.48,0,0,1,3.14-.75,6.26,6.26,0,0,1,5.19,2.26A10,10,0,0,1,378.77,385.22Zm-7.38.22a4.51,4.51,0,0,0-.64-2.59,2.4,2.4,0,0,0-3.85,0,4.52,4.52,0,0,0-.72,2.71V386a5,5,0,0,0,.61,2.64,2,2,0,0,0,1.85,1,2.3,2.3,0,0,0,2-1.09A5.51,5.51,0,0,0,371.39,385.44Z"/><path class="cls-39" d="M403.55,394.26a7,7,0,0,1-1.62.45,14.16,14.16,0,0,1-2.72.22,6.52,6.52,0,0,1-4.76-1.68,6.35,6.35,0,0,1-1.71-4.76V382H390v-5h2.76v-3.43l7.17-2V377h3.64v5h-3.64v5.25q0,2.31,1.83,2.31a4.94,4.94,0,0,0,1.81-.38Z"/><path class="cls-39" d="M425.29,385.44a9.14,9.14,0,0,1-2.67,7q-2.69,2.53-7.48,2.53c-3.18,0-5.65-.82-7.43-2.47a8.85,8.85,0,0,1-2.65-6.81,9.15,9.15,0,0,1,1.24-4.84,8.14,8.14,0,0,1,3.56-3.14,12.26,12.26,0,0,1,5.31-1.1,12,12,0,0,1,5.4,1.15,8.32,8.32,0,0,1,3.5,3.18A8.67,8.67,0,0,1,425.29,385.44Zm-7.38,0q0-3.57-2.74-3.57c-1.82,0-2.73,1.24-2.73,3.74s.92,4,2.77,4S417.91,388.22,417.91,385.48Z"/><path class="cls-39" d="M205.88,430.5V420.42a3.25,3.25,0,0,0-.46-1.89,1.68,1.68,0,0,0-1.48-.62,1.84,1.84,0,0,0-1.57.76,3.51,3.51,0,0,0-.56,2.11v9.72h-7.28v-9.91c0-1.79-.61-2.68-1.83-2.68a2,2,0,0,0-1.68.77,3.83,3.83,0,0,0-.56,2.23v9.59h-7.28V413h7.28v2.77h.07a5.62,5.62,0,0,1,1.31-1.5,7.91,7.91,0,0,1,2-1.23,6.35,6.35,0,0,1,2.44-.47,6.18,6.18,0,0,1,3.14.74,5.68,5.68,0,0,1,2.13,2.32,6.16,6.16,0,0,1,2.46-2.26,7.31,7.31,0,0,1,3.42-.8,5.14,5.14,0,0,1,4.22,1.8,8,8,0,0,1,1.47,5.18V430.5Z"/><path class="cls-39" d="M235.9,421.44a9.14,9.14,0,0,1-2.67,7q-2.68,2.53-7.48,2.53t-7.42-2.47a8.82,8.82,0,0,1-2.66-6.81,9.06,9.06,0,0,1,1.25-4.84,8.06,8.06,0,0,1,3.55-3.14,12.27,12.27,0,0,1,5.32-1.1,11.93,11.93,0,0,1,5.39,1.15,8.26,8.26,0,0,1,3.5,3.18A8.67,8.67,0,0,1,235.9,421.44Zm-7.38,0q0-3.57-2.73-3.57c-1.83,0-2.74,1.24-2.74,3.74s.92,4,2.77,4S228.52,424.22,228.52,421.48Z"/><path class="cls-39" d="M251.37,430.5h-8.65L236.88,413h7.58l2.14,9.55a21.83,21.83,0,0,1,.56,3.47h.11c0-.22,0-.46.09-.7s.89-4.34,2.54-12.32h7.55Z"/><path class="cls-39" d="M265.47,423.82a2.46,2.46,0,0,0,1.3,1.77,5.93,5.93,0,0,0,2.94.64,12.15,12.15,0,0,0,4.82-1v4.62a17.48,17.48,0,0,1-6.43,1.06,10.16,10.16,0,0,1-7.13-2.34,8.35,8.35,0,0,1-2.54-6.45,10.58,10.58,0,0,1,1.12-5,8,8,0,0,1,3.31-3.37,9.77,9.77,0,0,1,4.85-1.23,9.55,9.55,0,0,1,4.64,1.06,7.1,7.1,0,0,1,2.94,3,9.6,9.6,0,0,1,1,4.47v2.74Zm4.37-3.81c0-2-.72-3-2.17-3a1.85,1.85,0,0,0-1.52.83,4.16,4.16,0,0,0-.72,2.2Z"/><path class="cls-39" d="M302,409.89a6.54,6.54,0,0,0-2.11-.39,2.1,2.1,0,0,0-2.37,2.3V413h4.05v5h-4.05V430.5h-7.28V418h-2.94v-5h2.94v-1.61a7.08,7.08,0,0,1,1-3.76,6.57,6.57,0,0,1,2.88-2.54,10.46,10.46,0,0,1,4.59-.91,12.47,12.47,0,0,1,3.3.38Z"/><path class="cls-39" d="M323.08,421.44a9.11,9.11,0,0,1-2.68,7q-2.67,2.53-7.47,2.53t-7.43-2.47a8.86,8.86,0,0,1-2.66-6.81,9.15,9.15,0,0,1,1.25-4.84,8.09,8.09,0,0,1,3.56-3.14,12.23,12.23,0,0,1,5.31-1.1,11.93,11.93,0,0,1,5.39,1.15,8.34,8.34,0,0,1,3.51,3.18A8.67,8.67,0,0,1,323.08,421.44Zm-7.39,0q0-3.57-2.73-3.57c-1.82,0-2.73,1.24-2.73,3.74s.92,4,2.76,4S315.69,424.22,315.69,421.48Z"/><path class="cls-39" d="M339,419.24a7.29,7.29,0,0,0-2.27-.5q-3.6,0-3.6,4.17v7.59h-7.29V413h7.29v3.08h.06a5.45,5.45,0,0,1,1.9-2.52,4.85,4.85,0,0,1,2.87-.87,2.38,2.38,0,0,1,1,.21Z"/><path class="cls-39" d="M363.75,430.5h-7.57L354.44,422a13.17,13.17,0,0,1-.33-2.72H354a23.46,23.46,0,0,1-.38,2.62l-1.89,8.61h-7.56L339.55,413h7.32l1.5,10.19.26,2.27h.1c.15-1.33.25-2.11.31-2.34L351.28,413h6.93l1.94,10.12.15,1.21.08,1.1h.11l.05-.5L362.09,413h6.55Z"/><path class="cls-39" d="M380.35,430.5v-2.67h-.07a5.71,5.71,0,0,1-5.33,3.1,5.09,5.09,0,0,1-3.88-1.47,5.44,5.44,0,0,1-1.41-3.93q0-5.16,6.34-6l4.35-.57a1.67,1.67,0,0,0-.77-1.4,3.57,3.57,0,0,0-2.07-.55,13.62,13.62,0,0,0-6.21,1.68V414a16.12,16.12,0,0,1,3.56-1,20.9,20.9,0,0,1,3.66-.4q4.46,0,6.47,1.91t2,6.37v9.65ZM376,424.55a1.61,1.61,0,0,0,.45,1.18,1.71,1.71,0,0,0,1.29.46,2.31,2.31,0,0,0,1.86-.85,3.33,3.33,0,0,0,.71-2.19v-.66l-2.47.34C376.65,423,376,423.61,376,424.55Z"/><path class="cls-39" d="M403.43,419.24a7.29,7.29,0,0,0-2.27-.5c-2.4,0-3.61,1.39-3.61,4.17v7.59h-7.28V413h7.28v3.08h.07a5.45,5.45,0,0,1,1.9-2.52,4.85,4.85,0,0,1,2.87-.87,2.38,2.38,0,0,1,1,.21Z"/><path class="cls-39" d="M417.23,430.5v-2h-.07a6,6,0,0,1-2.28,1.8,6.41,6.41,0,0,1-2.76.66,7.15,7.15,0,0,1-3.95-1.1,6.78,6.78,0,0,1-2.56-3.09,11.93,11.93,0,0,1-.84-4.68,11.42,11.42,0,0,1,1-4.94,7.85,7.85,0,0,1,2.83-3.35,7.32,7.32,0,0,1,4.1-1.2,6.45,6.45,0,0,1,2,.31,5.51,5.51,0,0,1,1.58.83,2.56,2.56,0,0,1,.87,1h.07V404.59h7.28V430.5Zm.15-9.28a3.83,3.83,0,0,0-.69-2.44,2.35,2.35,0,0,0-3.8.21,5.08,5.08,0,0,0-.74,2.9q0,3.71,2.56,3.71a2.29,2.29,0,0,0,1.94-1,4.9,4.9,0,0,0,.73-2.92Z"/><path class="cls-39" d="M891.23,382.41v18.73h-7.42V382.41H877v-5.78h21.21v5.78Z"/><path class="cls-39" d="M919.91,392.08a9.14,9.14,0,0,1-2.68,7c-1.78,1.68-4.27,2.53-7.48,2.53a10.52,10.52,0,0,1-7.42-2.47,8.86,8.86,0,0,1-2.66-6.81,9.15,9.15,0,0,1,1.25-4.84,8.11,8.11,0,0,1,3.55-3.14,12.27,12.27,0,0,1,5.32-1.1,11.8,11.8,0,0,1,5.39,1.15,8.26,8.26,0,0,1,3.5,3.18A8.59,8.59,0,0,1,919.91,392.08Zm-7.39,0q0-3.58-2.73-3.58c-1.82,0-2.74,1.25-2.74,3.75s.93,3.94,2.77,3.94S912.52,394.86,912.52,392.12Z"/><path class="cls-39" d="M946.57,395.33a5.33,5.33,0,0,1-2.27,4.6,10.61,10.61,0,0,1-6.31,1.64,22,22,0,0,1-2.92-.24,19.26,19.26,0,0,1-2.83-.58v-5.11a14.08,14.08,0,0,0,5.41,1.43q2.13,0,2.13-1.11a.87.87,0,0,0-.49-.76,17.91,17.91,0,0,0-2.6-1,7.37,7.37,0,0,1-3.39-1.95,4.66,4.66,0,0,1-1.06-3.16,5,5,0,0,1,2.17-4.3,10.15,10.15,0,0,1,6.07-1.58,19.1,19.1,0,0,1,4.86.67v4.9A16.33,16.33,0,0,0,943,388a9.86,9.86,0,0,0-2.16-.3,2.33,2.33,0,0,0-1.14.24.73.73,0,0,0-.43.66,1,1,0,0,0,.46.81,8.4,8.4,0,0,0,1.85.73,8.47,8.47,0,0,1,3.84,2A4.39,4.39,0,0,1,946.57,395.33Z"/><path class="cls-39" d="M963.67,400.64a6.6,6.6,0,0,1-2.2.67,20.9,20.9,0,0,1-3.47.26,10.74,10.74,0,0,1-5-1.12,8.12,8.12,0,0,1-3.37-3.14,8.67,8.67,0,0,1-1.2-4.53,9.91,9.91,0,0,1,1.27-5.15,8.33,8.33,0,0,1,3.63-3.28,12.47,12.47,0,0,1,5.47-1.14,20.11,20.11,0,0,1,3.07.22,4.52,4.52,0,0,1,1.75.52v5.67a5.22,5.22,0,0,0-1.57-.75,6.23,6.23,0,0,0-1.9-.33,4.63,4.63,0,0,0-3.24,1,3.71,3.71,0,0,0-1.1,2.86,3.6,3.6,0,0,0,1.09,2.81,4.21,4.21,0,0,0,3,1,7.4,7.4,0,0,0,3.74-1Z"/><path class="cls-39" d="M979.74,389.88a5.47,5.47,0,0,0-1.11-.34,5.28,5.28,0,0,0-1.17-.16q-3.6,0-3.6,4.17v7.59h-7.28v-17.5h7.28v3.08h.07a5.45,5.45,0,0,1,1.89-2.53,4.92,4.92,0,0,1,2.88-.86,2.44,2.44,0,0,1,1,.21Z"/><path class="cls-39" d="M1001.3,392.08a9.14,9.14,0,0,1-2.67,7c-1.78,1.68-4.28,2.53-7.48,2.53s-5.65-.83-7.42-2.47a8.86,8.86,0,0,1-2.66-6.81,9.15,9.15,0,0,1,1.25-4.84,8.06,8.06,0,0,1,3.55-3.14,12.27,12.27,0,0,1,5.32-1.1,11.8,11.8,0,0,1,5.39,1.15,8.26,8.26,0,0,1,3.5,3.18A8.58,8.58,0,0,1,1001.3,392.08Zm-7.38,0q0-3.58-2.73-3.58t-2.74,3.75c0,2.63.93,3.94,2.77,3.94S993.92,394.86,993.92,392.12Z"/><path class="cls-39" d="M1004,401.14V375.23h7.28v25.91Z"/><path class="cls-39" d="M1014.81,401.14V375.23h7.28v25.91Z"/><path class="cls-39" d="M1030.46,405.21h-5.88l1.74-8.72h6.58Z"/><path class="cls-39" d="M882.16,437.14v-10c0-1.74-.66-2.62-2-2.62a1.67,1.67,0,0,0-1.48.75,3.21,3.21,0,0,0-.52,1.9v9.95h-7.28V411.23h7.28V422h.07a6.6,6.6,0,0,1,2.28-2.07,5.93,5.93,0,0,1,2.88-.73,5.28,5.28,0,0,1,4.33,1.82,8.33,8.33,0,0,1,1.48,5.36v10.75Z"/><path class="cls-39" d="M912,428.08a9.14,9.14,0,0,1-2.67,7,12.37,12.37,0,0,1-14.91.06,8.85,8.85,0,0,1-2.65-6.81,9.15,9.15,0,0,1,1.24-4.84,8.14,8.14,0,0,1,3.56-3.14,12.26,12.26,0,0,1,5.31-1.1,11.84,11.84,0,0,1,5.4,1.15,8.32,8.32,0,0,1,3.5,3.18A8.67,8.67,0,0,1,912,428.08Zm-7.38,0q0-3.58-2.74-3.58t-2.73,3.75q0,3.94,2.77,3.94T904.57,428.12Z"/><path class="cls-39" d="M914.67,437.14V411.23H922v25.91Z"/><path class="cls-39" d="M937.14,437.14v-2h-.07a6.06,6.06,0,0,1-2.27,1.8,6.46,6.46,0,0,1-2.77.66,7.1,7.1,0,0,1-3.95-1.11,6.63,6.63,0,0,1-2.55-3.08,11.75,11.75,0,0,1-.85-4.68,11.53,11.53,0,0,1,1-4.94,7.87,7.87,0,0,1,2.84-3.35,7.3,7.3,0,0,1,4.1-1.2,6.06,6.06,0,0,1,2,.31,5.21,5.21,0,0,1,1.59.83,2.44,2.44,0,0,1,.86,1h.07V411.23h7.28v25.91Zm.15-9.28a3.83,3.83,0,0,0-.69-2.44,2.32,2.32,0,0,0-3.79.21,5,5,0,0,0-.74,2.9q0,3.71,2.56,3.7a2.28,2.28,0,0,0,1.94-1,4.92,4.92,0,0,0,.72-2.91Z"/><path class="cls-39" d="M969.34,437.14v-2h-.07a6.06,6.06,0,0,1-2.27,1.8,6.49,6.49,0,0,1-2.77.66,7.1,7.1,0,0,1-4-1.11,6.63,6.63,0,0,1-2.55-3.08,11.75,11.75,0,0,1-.85-4.68,11.53,11.53,0,0,1,1-4.94,7.87,7.87,0,0,1,2.84-3.35,7.28,7.28,0,0,1,4.1-1.2,6.1,6.1,0,0,1,2,.31,5.21,5.21,0,0,1,1.59.83,2.52,2.52,0,0,1,.86,1h.07V411.23h7.28v25.91Zm.15-9.28a3.83,3.83,0,0,0-.69-2.44,2.32,2.32,0,0,0-3.79.21,5,5,0,0,0-.75,2.9q0,3.71,2.57,3.7a2.29,2.29,0,0,0,1.94-1,4.92,4.92,0,0,0,.72-2.91Z"/><path class="cls-39" d="M999.59,428.08a9.11,9.11,0,0,1-2.68,7c-1.78,1.68-4.27,2.53-7.47,2.53s-5.66-.83-7.43-2.47a8.86,8.86,0,0,1-2.66-6.81,9.15,9.15,0,0,1,1.25-4.84,8.09,8.09,0,0,1,3.56-3.14,12.2,12.2,0,0,1,5.31-1.1,11.8,11.8,0,0,1,5.39,1.15,8.34,8.34,0,0,1,3.51,3.18A8.67,8.67,0,0,1,999.59,428.08Zm-7.38,0c0-2.39-.92-3.58-2.74-3.58s-2.73,1.25-2.73,3.75.92,3.94,2.76,3.94S992.21,430.86,992.21,428.12Z"/><path class="cls-39" d="M1025,437.14h-7.57l-1.74-8.51a13.17,13.17,0,0,1-.33-2.72h-.1a23.46,23.46,0,0,1-.38,2.62l-1.89,8.61h-7.56l-4.63-17.5h7.32l1.5,10.18.26,2.28h.1c.15-1.34.25-2.12.31-2.34l2.23-10.12h6.94l1.93,10.12.16,1.21.08,1.09h.11l0-.49,1.55-11.93h6.55Z"/><path class="cls-39" d="M1043.24,437.14v-9.55a4.31,4.31,0,0,0-.49-2.34,1.79,1.79,0,0,0-1.58-.71,1.71,1.71,0,0,0-1.47.74,3.1,3.1,0,0,0-.53,1.88v10h-7.28v-17.5h7.28v2.73h.07a6.16,6.16,0,0,1,2.34-2.33,6.41,6.41,0,0,1,3.19-.83q5.74,0,5.75,7.25v10.68Z"/><path class="cls-40" d="M831.89,455.64h-6.3l4.1-7.59H834Zm8.43,0H834l4.08-7.59h4.28Z"/><path class="cls-40" d="M862.16,473.14l-1.08-4.51h-7.31l-1.16,4.51h-8l8.45-24.51h9.16l7.94,24.51ZM857.51,454h-.17a10.3,10.3,0,0,1-.24,1.35q-.21.94-2.07,8.07h4.69L858,456.72A20.77,20.77,0,0,1,857.51,454Z"/><path class="cls-40" d="M886.8,472.64a6.6,6.6,0,0,1-2.2.67,20.9,20.9,0,0,1-3.47.26,10.74,10.74,0,0,1-5-1.12,8.12,8.12,0,0,1-3.37-3.14,8.67,8.67,0,0,1-1.2-4.53,9.91,9.91,0,0,1,1.27-5.15,8.33,8.33,0,0,1,3.63-3.28,12.47,12.47,0,0,1,5.47-1.14,20.11,20.11,0,0,1,3.07.22,4.52,4.52,0,0,1,1.75.52v5.67a5.22,5.22,0,0,0-1.57-.75,6.23,6.23,0,0,0-1.9-.33,4.63,4.63,0,0,0-3.24,1,3.71,3.71,0,0,0-1.1,2.86,3.6,3.6,0,0,0,1.09,2.81,4.21,4.21,0,0,0,3,1,7.4,7.4,0,0,0,3.74-1Z"/><path class="cls-40" d="M902,472.9a7,7,0,0,1-1.62.45,14.23,14.23,0,0,1-2.72.22,6.51,6.51,0,0,1-4.76-1.68,6.32,6.32,0,0,1-1.72-4.77v-6.44h-2.75v-5h2.75V452.2l7.18-2v5.42H902v5h-3.64v5.25c0,1.54.61,2.3,1.83,2.3a5,5,0,0,0,1.81-.37Z"/><path class="cls-40" d="M912,450.92a3.12,3.12,0,0,1-1.12,2.5,4.38,4.38,0,0,1-2.95.95,4.28,4.28,0,0,1-2.91-1,3.13,3.13,0,0,1-1.14-2.46,3,3,0,0,1,1.11-2.43,4.39,4.39,0,0,1,2.94-.93,4.47,4.47,0,0,1,2.95.93A3,3,0,0,1,912,450.92Zm-7.71,22.22v-17.5h7.28v17.5Z"/><path class="cls-40" d="M934.55,464.08a9.14,9.14,0,0,1-2.67,7,10.5,10.5,0,0,1-7.48,2.53c-3.18,0-5.65-.83-7.42-2.47a8.82,8.82,0,0,1-2.66-6.81,9.15,9.15,0,0,1,1.24-4.84,8.14,8.14,0,0,1,3.56-3.14,12.26,12.26,0,0,1,5.31-1.1,11.81,11.81,0,0,1,5.4,1.15,8.26,8.26,0,0,1,3.5,3.18A8.67,8.67,0,0,1,934.55,464.08Zm-7.38,0q0-3.58-2.74-3.58t-2.73,3.75q0,3.94,2.77,3.94T927.17,464.12Z"/><path class="cls-40" d="M948.62,473.14v-9.55a4.31,4.31,0,0,0-.49-2.34,1.78,1.78,0,0,0-1.58-.71,1.71,1.71,0,0,0-1.47.74,3.17,3.17,0,0,0-.53,1.88v10h-7.28v-17.5h7.28v2.73h.07A6.16,6.16,0,0,1,947,456a6.41,6.41,0,0,1,3.19-.83q5.75,0,5.75,7.25v10.68Z"/><path class="cls-40" d="M990.5,465.62a6.6,6.6,0,0,1-2.53,5.56q-2.52,2-7.22,2H969.57V448.63H980q9.75,0,9.76,5.93a4.61,4.61,0,0,1-.62,2.35,5.47,5.47,0,0,1-1.87,1.87,7.92,7.92,0,0,1-2.76,1.1V460a7.77,7.77,0,0,1,3.13,1,6,6,0,0,1,2.13,2.07A4.87,4.87,0,0,1,990.5,465.62Zm-8.61-9.78c0-1.51-1.19-2.27-3.57-2.27H977v4.63h2.14a3,3,0,0,0,2-.66A2.08,2.08,0,0,0,981.89,455.84Zm.77,9.75a2.25,2.25,0,0,0-.77-1.75,3,3,0,0,0-2-.68H977v5h2.46a3.67,3.67,0,0,0,2.38-.7A2.28,2.28,0,0,0,982.66,465.59Z"/><path class="cls-40" d="M1004.23,473.14v-2.7h-.07a10.11,10.11,0,0,1-1.63,1.83,6.31,6.31,0,0,1-1.64.94,5.8,5.8,0,0,1-2.13.36,5.29,5.29,0,0,1-4.38-1.87,8.61,8.61,0,0,1-1.5-5.5V455.64h7.28v10c0,1.72.64,2.58,1.93,2.58a1.88,1.88,0,0,0,1.6-.7,3.15,3.15,0,0,0,.54-2v-9.91h7.28v17.5Z"/><path class="cls-40" d="M1027.32,472.9a7.07,7.07,0,0,1-1.63.45,14.16,14.16,0,0,1-2.72.22,6.5,6.5,0,0,1-4.75-1.68,6.32,6.32,0,0,1-1.72-4.77v-6.44h-2.75v-5h2.75V452.2l7.18-2v5.42h3.64v5h-3.64v5.25c0,1.54.61,2.3,1.82,2.3a5,5,0,0,0,1.82-.37Z"/><path class="cls-40" d="M1041.91,472.9a7,7,0,0,1-1.62.45,14.16,14.16,0,0,1-2.72.22,6.52,6.52,0,0,1-4.76-1.68,6.36,6.36,0,0,1-1.72-4.77v-6.44h-2.75v-5h2.75V452.2l7.18-2v5.42h3.64v5h-3.64v5.25c0,1.54.61,2.3,1.83,2.3a5,5,0,0,0,1.81-.37Z"/><path class="cls-40" d="M1063.65,464.08a9.11,9.11,0,0,1-2.68,7c-1.78,1.68-4.27,2.53-7.47,2.53s-5.66-.83-7.43-2.47a8.86,8.86,0,0,1-2.66-6.81,9.15,9.15,0,0,1,1.25-4.84,8.09,8.09,0,0,1,3.56-3.14,12.23,12.23,0,0,1,5.31-1.1,11.8,11.8,0,0,1,5.39,1.15,8.34,8.34,0,0,1,3.51,3.18A8.67,8.67,0,0,1,1063.65,464.08Zm-7.38,0c0-2.39-.92-3.58-2.74-3.58s-2.73,1.25-2.73,3.75.92,3.94,2.77,3.94S1056.27,466.86,1056.27,464.12Z"/><path class="cls-40" d="M1077.71,473.14v-9.55a4.33,4.33,0,0,0-.48-2.34,1.79,1.79,0,0,0-1.58-.71,1.71,1.71,0,0,0-1.47.74,3.1,3.1,0,0,0-.53,1.88v10h-7.28v-17.5h7.28v2.73h.06a6.25,6.25,0,0,1,2.35-2.33,6.41,6.41,0,0,1,3.19-.83q5.74,0,5.74,7.25v10.68Z"/><path class="cls-40" d="M1092.77,455.64h-4.24l2.1-7.59h6.26Zm8.43,0H1097l2.1-7.59h6.27Z"/><path class="cls-39" d="M197.76,542.11V528.67q0-1.89.12-4.17l.05-1.12h-.21c-.36,1.92-.64,3.26-.83,4l-3.61,14.73h-6.94l-3.78-14.56c-.1-.37-.37-1.76-.8-4.17h-.2q.24,5.75.24,7.17v11.56h-6.48V517.6h11.06l3.36,13.31a16.09,16.09,0,0,1,.32,1.67c.13.84.21,1.48.25,1.94h.1c.12-1,.32-2.26.6-3.67l3.14-13.25H205v24.51Z"/><path class="cls-39" d="M228.66,533.05a9.14,9.14,0,0,1-2.68,7c-1.78,1.68-4.27,2.53-7.48,2.53a10.52,10.52,0,0,1-7.42-2.47,8.87,8.87,0,0,1-2.66-6.82,9.14,9.14,0,0,1,1.25-4.83,8.13,8.13,0,0,1,3.55-3.15,12.27,12.27,0,0,1,5.32-1.09,11.8,11.8,0,0,1,5.39,1.15,8.3,8.3,0,0,1,3.5,3.17A8.65,8.65,0,0,1,228.66,533.05Zm-7.39,0q0-3.57-2.73-3.57c-1.82,0-2.74,1.25-2.74,3.74s.93,4,2.77,4S221.27,535.83,221.27,533.08Z"/><path class="cls-39" d="M244.12,542.11h-8.65l-5.84-17.5h7.59l2.13,9.55a22.12,22.12,0,0,1,.57,3.47h.1c0-.23,0-.46.09-.7s.89-4.35,2.54-12.32h7.56Z"/><path class="cls-39" d="M258.22,535.43a2.45,2.45,0,0,0,1.3,1.76,5.83,5.83,0,0,0,2.94.64,12.1,12.1,0,0,0,4.82-1v4.62a17.48,17.48,0,0,1-6.43,1.06,10.12,10.12,0,0,1-7.12-2.35,8.31,8.31,0,0,1-2.55-6.44,10.56,10.56,0,0,1,1.12-5,8.07,8.07,0,0,1,3.32-3.38,9.8,9.8,0,0,1,4.84-1.22,9.51,9.51,0,0,1,4.65,1.06,7.11,7.11,0,0,1,2.93,3,9.52,9.52,0,0,1,1,4.48v2.74Zm4.38-3.82c0-2-.73-3-2.17-3a1.83,1.83,0,0,0-1.52.83,4.13,4.13,0,0,0-.72,2.19Z"/><path class="cls-39" d="M305.05,529.55a13.4,13.4,0,0,1-1.57,6.58,10.7,10.7,0,0,1-4.47,4.42,13.91,13.91,0,0,1-6.69,1.56H281.94V517.6h10.15Q305.05,517.6,305.05,529.55Zm-7.85.06a7.13,7.13,0,0,0-.72-3.23,5.37,5.37,0,0,0-2.08-2.22,6.25,6.25,0,0,0-3.18-.78h-1.89v13h2.06a5.32,5.32,0,0,0,4.23-1.82A7.16,7.16,0,0,0,297.2,529.61Z"/><path class="cls-39" d="M327.3,533.05a9.11,9.11,0,0,1-2.68,7c-1.78,1.68-4.27,2.53-7.47,2.53s-5.66-.83-7.43-2.47a8.87,8.87,0,0,1-2.66-6.82,9.14,9.14,0,0,1,1.25-4.83,8.11,8.11,0,0,1,3.56-3.15,12.23,12.23,0,0,1,5.31-1.09,11.8,11.8,0,0,1,5.39,1.15,8.39,8.39,0,0,1,3.51,3.17A8.73,8.73,0,0,1,327.3,533.05Zm-7.38,0c0-2.38-.92-3.57-2.74-3.57s-2.73,1.25-2.73,3.74.92,4,2.77,4S319.92,535.83,319.92,533.08Z"/><path class="cls-39" d="M352.71,542.11h-7.57l-1.74-8.51a13.17,13.17,0,0,1-.33-2.72H343a22.82,22.82,0,0,1-.38,2.61l-1.89,8.62h-7.56l-4.63-17.5h7.32l1.5,10.18.26,2.28h.1c.15-1.34.25-2.12.31-2.35l2.24-10.11h6.93l1.94,10.11.15,1.22.08,1.09h.11l.05-.49,1.55-11.93h6.55Z"/><path class="cls-39" d="M371,542.11v-9.56a4.27,4.27,0,0,0-.49-2.33,1.79,1.79,0,0,0-1.58-.71,1.71,1.71,0,0,0-1.47.74,3.08,3.08,0,0,0-.53,1.88v10H359.6v-17.5h7.28v2.73H367a6.16,6.16,0,0,1,2.34-2.33,6.41,6.41,0,0,1,3.19-.83q5.75,0,5.75,7.25v10.68Z"/><path class="cls-39" d="M403.55,541.87a7,7,0,0,1-1.62.45,15,15,0,0,1-2.72.22,6.52,6.52,0,0,1-4.76-1.68,6.39,6.39,0,0,1-1.71-4.77v-6.44H390v-5h2.76v-3.44l7.17-2v5.42h3.64v5h-3.64v5.25c0,1.53.61,2.3,1.83,2.3a4.92,4.92,0,0,0,1.81-.37Z"/><path class="cls-39" d="M425.29,533.05a9.14,9.14,0,0,1-2.67,7,12.37,12.37,0,0,1-14.91.06,8.86,8.86,0,0,1-2.65-6.82,9.14,9.14,0,0,1,1.24-4.83,8.16,8.16,0,0,1,3.56-3.15,12.26,12.26,0,0,1,5.31-1.09,11.84,11.84,0,0,1,5.4,1.15,8.36,8.36,0,0,1,3.5,3.17A8.73,8.73,0,0,1,425.29,533.05Zm-7.38,0q0-3.57-2.74-3.57t-2.73,3.74c0,2.64.92,4,2.77,4S417.91,535.83,417.91,533.08Z"/><path class="cls-39" d="M161.32,578.11V568a3.2,3.2,0,0,0-.45-1.88,1.7,1.7,0,0,0-1.48-.63,1.85,1.85,0,0,0-1.57.76,3.46,3.46,0,0,0-.57,2.11v9.73H150V568.2c0-1.79-.61-2.69-1.82-2.69a2,2,0,0,0-1.68.78,3.73,3.73,0,0,0-.56,2.23v9.59h-7.28v-17.5h7.28v2.77H146a5.56,5.56,0,0,1,1.3-1.5,7.59,7.59,0,0,1,2-1.23,6.31,6.31,0,0,1,2.44-.47,6.21,6.21,0,0,1,3.14.74,5.68,5.68,0,0,1,2.13,2.32,6.18,6.18,0,0,1,2.46-2.27,7.41,7.41,0,0,1,3.41-.79,5.17,5.17,0,0,1,4.23,1.79,8.07,8.07,0,0,1,1.46,5.18v11Z"/><path class="cls-39" d="M191.35,569.05a9.11,9.11,0,0,1-2.68,7c-1.78,1.68-4.27,2.53-7.47,2.53s-5.66-.83-7.43-2.47a8.87,8.87,0,0,1-2.66-6.82,9.14,9.14,0,0,1,1.25-4.83,8.11,8.11,0,0,1,3.56-3.15,12.26,12.26,0,0,1,5.31-1.09,11.8,11.8,0,0,1,5.39,1.15,8.39,8.39,0,0,1,3.51,3.17A8.73,8.73,0,0,1,191.35,569.05Zm-7.38,0c0-2.38-.92-3.57-2.74-3.57s-2.73,1.25-2.73,3.74.92,4,2.77,4S184,571.83,184,569.08Z"/><path class="cls-39" d="M206.82,578.11h-8.65l-5.85-17.5h7.59l2.14,9.55a21.83,21.83,0,0,1,.56,3.47h.1c0-.23.06-.46.1-.7s.88-4.35,2.54-12.32h7.55Z"/><path class="cls-39" d="M220.91,571.43a2.45,2.45,0,0,0,1.3,1.76,5.83,5.83,0,0,0,2.94.64,12.07,12.07,0,0,0,4.82-1v4.62a17.43,17.43,0,0,1-6.42,1.06,10.15,10.15,0,0,1-7.13-2.35,8.3,8.3,0,0,1-2.55-6.44,10.68,10.68,0,0,1,1.12-5,8.07,8.07,0,0,1,3.32-3.38,9.83,9.83,0,0,1,4.84-1.22,9.51,9.51,0,0,1,4.65,1.06,7,7,0,0,1,2.93,3,9.52,9.52,0,0,1,1,4.48v2.74Zm4.38-3.82c0-2-.72-3-2.17-3a1.83,1.83,0,0,0-1.52.83,4.13,4.13,0,0,0-.72,2.19Z"/><path class="cls-39" d="M263.71,568.83a12.82,12.82,0,0,1-.95,5.08,7.69,7.69,0,0,1-2.69,3.42,6.81,6.81,0,0,1-3.95,1.21,6.21,6.21,0,0,1-2.9-.63,5.11,5.11,0,0,1-1.9-1.61h-.07v1.81H244V552.2h7.28V563h.07a6,6,0,0,1,2.31-2.05,7,7,0,0,1,3.22-.75,6.18,6.18,0,0,1,5.09,2.2Q263.71,564.59,263.71,568.83Zm-7.39.22a4.35,4.35,0,0,0-.67-2.65,2.3,2.3,0,0,0-1.94-.89,2.27,2.27,0,0,0-1.85.93,3.76,3.76,0,0,0-.75,2.42v1.06a3.85,3.85,0,0,0,.67,2.39,2.1,2.1,0,0,0,1.79.89,2.31,2.31,0,0,0,2-1.08A5.65,5.65,0,0,0,256.32,569.05Z"/><path class="cls-39" d="M276.15,578.11v-2.67h-.07a5.73,5.73,0,0,1-5.33,3.1,5.14,5.14,0,0,1-3.88-1.47,5.44,5.44,0,0,1-1.4-3.94q0-5.16,6.34-6l4.34-.56a1.65,1.65,0,0,0-.77-1.4,3.46,3.46,0,0,0-2.07-.55,13.55,13.55,0,0,0-6.2,1.68v-4.74a17,17,0,0,1,3.55-1,21,21,0,0,1,3.66-.39q4.46,0,6.47,1.91t2,6.36v9.66Zm-4.31-6a1.62,1.62,0,0,0,.45,1.18,1.74,1.74,0,0,0,1.29.46,2.29,2.29,0,0,0,1.86-.85,3.33,3.33,0,0,0,.71-2.19v-.67l-2.46.34C272.46,570.64,271.84,571.21,271.84,572.16Z"/><path class="cls-39" d="M300.5,577.61a6.68,6.68,0,0,1-2.2.67,21,21,0,0,1-3.47.26,10.74,10.74,0,0,1-4.95-1.12,8.27,8.27,0,0,1-3.38-3.14,8.75,8.75,0,0,1-1.19-4.53,9.91,9.91,0,0,1,1.27-5.15,8.33,8.33,0,0,1,3.63-3.28,12.47,12.47,0,0,1,5.47-1.14,19,19,0,0,1,3.07.22,4.52,4.52,0,0,1,1.75.52v5.67a4.79,4.79,0,0,0-1.57-.75,6.23,6.23,0,0,0-1.9-.33,4.63,4.63,0,0,0-3.24,1,3.71,3.71,0,0,0-1.1,2.86,3.6,3.6,0,0,0,1.09,2.81,4.2,4.2,0,0,0,3,1,7.42,7.42,0,0,0,3.74-1Z"/><path class="cls-39" d="M314.65,578.11l-3.89-9h-.07v9h-7.28V552.2h7.28v16.63h.07l3.53-8.22h8.21l-4.74,8,5,9.49Z"/><path class="cls-39" d="M346.85,578.11h-7.57l-1.74-8.51a13.17,13.17,0,0,1-.33-2.72h-.1a22.82,22.82,0,0,1-.38,2.61l-1.9,8.62h-7.55l-4.63-17.5H330l1.51,10.18.25,2.28h.11c.15-1.34.25-2.12.3-2.35l2.24-10.11h6.94l1.93,10.11.16,1.22.08,1.09h.1l.06-.49,1.55-11.93h6.55Z"/><path class="cls-39" d="M363.44,578.11v-2.67h-.06a5.75,5.75,0,0,1-5.34,3.1,5.15,5.15,0,0,1-3.88-1.47,5.49,5.49,0,0,1-1.4-3.94q0-5.16,6.34-6l4.34-.56a1.63,1.63,0,0,0-.77-1.4,3.44,3.44,0,0,0-2.06-.55,13.62,13.62,0,0,0-6.21,1.68v-4.74a17.1,17.1,0,0,1,3.56-1,20.78,20.78,0,0,1,3.66-.39q4.45,0,6.46,1.91t2,6.36v9.66Zm-4.3-6a1.62,1.62,0,0,0,.45,1.18,1.71,1.71,0,0,0,1.29.46,2.28,2.28,0,0,0,1.85-.85,3.28,3.28,0,0,0,.71-2.19v-.67l-2.46.34C359.75,570.64,359.14,571.21,359.14,572.16Z"/><path class="cls-39" d="M386.53,566.85a5.63,5.63,0,0,0-1.11-.35,5.74,5.74,0,0,0-1.16-.15q-3.61,0-3.61,4.17v7.59h-7.28v-17.5h7.28v3.07h.07a5.56,5.56,0,0,1,1.9-2.52,4.91,4.91,0,0,1,2.87-.86,2.54,2.54,0,0,1,1,.2Z"/><path class="cls-39" d="M400.32,578.11v-2h-.07a5.91,5.91,0,0,1-2.27,1.81,6.46,6.46,0,0,1-2.77.66,7.07,7.07,0,0,1-3.94-1.11,6.65,6.65,0,0,1-2.56-3.08,11.93,11.93,0,0,1-.84-4.68,11.53,11.53,0,0,1,1-4.94,7.81,7.81,0,0,1,2.84-3.35,7.32,7.32,0,0,1,4.1-1.2,6.06,6.06,0,0,1,2,.31,5.21,5.21,0,0,1,1.59.83,2.44,2.44,0,0,1,.86,1h.07V552.2h7.28v25.91Zm.16-9.28a3.86,3.86,0,0,0-.69-2.45,2.29,2.29,0,0,0-1.88-.87A2.24,2.24,0,0,0,396,566.6a5.07,5.07,0,0,0-.74,2.89c0,2.48.85,3.71,2.56,3.71a2.27,2.27,0,0,0,1.94-1,4.84,4.84,0,0,0,.73-2.91Z"/><path class="cls-39" d="M425.33,572.3a5.33,5.33,0,0,1-2.27,4.6,10.61,10.61,0,0,1-6.31,1.64,22,22,0,0,1-2.92-.24,17.9,17.9,0,0,1-2.83-.59V572.6a14,14,0,0,0,5.41,1.44q2.13,0,2.13-1.11a.87.87,0,0,0-.49-.76,18.43,18.43,0,0,0-2.6-1,7.37,7.37,0,0,1-3.39-1.95,4.66,4.66,0,0,1-1.06-3.16,5,5,0,0,1,2.17-4.3,10.15,10.15,0,0,1,6.07-1.58,19.1,19.1,0,0,1,4.86.67v4.9a15.19,15.19,0,0,0-2.36-.77,9.87,9.87,0,0,0-2.16-.31,2.33,2.33,0,0,0-1.14.24.74.74,0,0,0-.43.67.93.93,0,0,0,.46.8,8.28,8.28,0,0,0,1.85.74,8.47,8.47,0,0,1,3.84,2A4.39,4.39,0,0,1,425.33,572.3Z"/><text class="cls-41" transform="translate(121.78 490.81)">Move Left / Right</text><text class="cls-41" transform="translate(234.48 631.92)">Start Menu</text><text class="cls-41" transform="translate(171.01 680.74)">Altspace Menu</text><text class="cls-41" transform="translate(1510.28 443.61)">Teleport</text><text class="cls-41" transform="translate(1512.47 544.96)">Dash Back</text><text class="cls-41" transform="translate(1510.28 493.04)">Move Left / Right</text><text class="cls-41" transform="translate(1512.47 590.49)">Start Menu</text><text class="cls-41" transform="translate(1512.47 639.25)">Altspace Menu</text><text class="cls-41" transform="translate(726.04 698.97)">Grab</text><text class="cls-41" transform="translate(1106.62 698.97)">Grab</text><text class="cls-41" transform="translate(862.34 557.12)">Thumbs Up</text><polyline class="cls-2" points="712.5 644.62 768.76 644.62 768.76 663.84"/><circle class="cls-42" cx="702.52" cy="644.62" r="5.37"/><circle class="cls-42" cx="722.29" cy="544.96" r="5.37"/><polyline class="cls-2" points="1202.27 644.62 1142.83 644.62 1142.83 663.84"/><circle class="cls-42" cx="1212.19" cy="644.62" r="5.37"/><circle class="cls-42" cx="1302.12" cy="605.98" r="5.37"/><circle class="cls-42" cx="538.79" cy="578" r="5.37"/><circle class="cls-42" cx="596.25" cy="592.6" r="5.37"/><circle class="cls-42" cx="1377.35" cy="577.06" r="5.37"/><line class="cls-2" x1="560.12" y1="477.48" x2="438.25" y2="477.48"/><polyline class="cls-2" points="438.25 405.7 589.07 405.7 589.07 447.5"/><polyline class="cls-2" points="438.25 539.59 589.07 539.59 589.07 504.15"/><circle class="cls-42" cx="589.07" cy="477.48" r="5.37"/><circle class="cls-42" cx="567.91" cy="477.48" r="3.45"/><circle class="cls-42" cx="608.67" cy="477.48" r="3.45"/><circle class="cls-42" cx="589.07" cy="457.2" r="3.45"/><circle class="cls-42" cx="589.07" cy="496.49" r="3.45"/><line class="cls-43" x1="569.48" y1="469.49" x2="573.97" y2="465.52"/><line class="cls-43" x1="577.81" y1="462.12" x2="582.3" y2="458.15"/><line class="cls-43" x1="608.67" y1="469.49" x2="604.17" y2="465.52"/><line class="cls-43" x1="600.33" y1="462.12" x2="595.84" y2="458.15"/><line class="cls-43" x1="608.67" y1="485.14" x2="604.17" y2="489.12"/><line class="cls-43" x1="600.33" y1="492.51" x2="595.84" y2="496.49"/><line class="cls-43" x1="569.48" y1="485.14" x2="573.97" y2="489.12"/><line class="cls-43" x1="577.81" y1="492.51" x2="582.3" y2="496.49"/><circle class="cls-42" cx="1306.41" cy="477.48" r="3.45"/><circle class="cls-42" cx="1347.16" cy="477.48" r="3.45"/><circle class="cls-42" cx="1327.57" cy="457.2" r="3.45"/><circle class="cls-42" cx="1327.57" cy="496.49" r="3.45"/><line class="cls-43" x1="1307.97" y1="469.49" x2="1312.47" y2="465.52"/><line class="cls-43" x1="1316.31" y1="462.12" x2="1320.8" y2="458.15"/><line class="cls-43" x1="1347.16" y1="469.49" x2="1342.67" y2="465.52"/><line class="cls-43" x1="1338.83" y1="462.12" x2="1334.34" y2="458.15"/><line class="cls-43" x1="1347.16" y1="485.14" x2="1342.67" y2="489.12"/><line class="cls-43" x1="1338.83" y1="492.51" x2="1334.34" y2="496.49"/><line class="cls-43" x1="1307.97" y1="485.14" x2="1312.47" y2="489.12"/><line class="cls-43" x1="1316.31" y1="492.51" x2="1320.8" y2="496.49"/><polyline class="cls-2" points="1327.57 449.23 1327.57 432.45 1498.33 432.44"/><polyline class="cls-2" points="1327.57 503.65 1327.57 534.86 1498.33 534.87"/><line class="cls-2" x1="1354.93" y1="477.88" x2="1498.33" y2="477.89"/><line class="cls-2" x1="1386.35" y1="577.5" x2="1498.33" y2="577.5"/><polyline class="cls-2" points="1498.33 626.56 1302.13 626.56 1302.13 614.67"/><line class="cls-2" x1="733.67" y1="544.96" x2="850.87" y2="544.96"/><circle class="cls-42" cx="1196.36" cy="544.96" r="5.37"/><line class="cls-2" x1="1184.98" y1="544.96" x2="1069.42" y2="544.96"/><polyline class="cls-2" points="438.25 623.7 447.66 623.7 447.66 578.17 530.03 578.17"/><polyline class="cls-2" points="430.76 672.03 466.78 672.03 464.72 617.51 571.35 617.51 571.35 593.59 587.67 593.59"/></g><g id="LOGO"><path class="cls-39" d="M1830.32,90.66a1.83,1.83,0,0,1-1.59-.91L1803,45.5,1777.2,89.75a1.83,1.83,0,1,1-3.16-1.84l27.12-46.59a2.11,2.11,0,0,1,1.81-1,2.08,2.08,0,0,1,1.8,1l27.13,46.59a1.83,1.83,0,0,1-1.58,2.75Z"/><path class="cls-39" d="M1818.79,90.19h-32.1a1.83,1.83,0,0,1,0-3.66h32.1a1.83,1.83,0,0,1,0,3.66Z"/></g></svg>