<svg xmlns="http://www.w3.org/2000/svg" xmlns:xlink="http://www.w3.org/1999/xlink" viewBox="0 0 1920 1080"><defs><style>.cls-1{fill:#333;}.cls-2,.cls-8{font-size:35px;}.cls-2{fill:#8fcafd;font-family:SegoeUI-Bold, Segoe UI;font-weight:700;}.cls-3{letter-spacing:0em;}.cls-10,.cls-11,.cls-4,.cls-48,.cls-7,.cls-8{fill:#fefefe;}.cls-10,.cls-11,.cls-4,.cls-7,.cls-8{font-family:SegoeUI-Semibold, Segoe UI;font-weight:600;}.cls-10,.cls-5{letter-spacing:-0.01em;}.cls-6,.cls-7{letter-spacing:-0.01em;}.cls-9{letter-spacing:0em;}.cls-11{letter-spacing:-0.03em;}.cls-12{letter-spacing:-0.04em;}.cls-13{letter-spacing:-0.03em;}.cls-14{letter-spacing:0.02em;}.cls-15{letter-spacing:-0.03em;}.cls-16{letter-spacing:-0.01em;}.cls-17,.cls-18,.cls-26,.cls-29,.cls-47{fill:none;stroke-miterlimit:10;}.cls-17{stroke:#8fcafd;stroke-width:5px;}.cls-18{stroke:#fefefe;stroke-width:4px;}.cls-19{fill:url(#linear-gradient);}.cls-20{fill:url(#linear-gradient-2);}.cls-21{fill:url(#linear-gradient-3);}.cls-22{fill:#1c1b1b;}.cls-23{opacity:0.4;}.cls-24,.cls-30,.cls-40,.cls-43{opacity:0.31;}.cls-24{fill:url(#linear-gradient-4);}.cls-25{fill:url(#linear-gradient-5);}.cls-26,.cls-47{stroke:#fff;}.cls-26,.cls-35{opacity:0.1;}.cls-27{fill:url(#linear-gradient-6);}.cls-28{opacity:0.16;}.cls-29{stroke:#e6e6e6;}.cls-30{fill:url(#linear-gradient-7);}.cls-31{fill:url(#linear-gradient-8);}.cls-32{fill:url(#linear-gradient-9);}.cls-33,.cls-35,.cls-36{fill:#fff;}.cls-34{fill:url(#linear-gradient-10);}.cls-36{opacity:0.07;}.cls-37{fill:url(#linear-gradient-11);}.cls-38{fill:url(#linear-gradient-12);}.cls-39{fill:url(#linear-gradient-13);}.cls-40{fill:url(#linear-gradient-14);}.cls-41{fill:url(#linear-gradient-15);}.cls-42{fill:url(#linear-gradient-16);}.cls-43{fill:url(#linear-gradient-17);}.cls-44{fill:url(#linear-gradient-18);}.cls-45{fill:url(#linear-gradient-19);}.cls-46{fill:url(#linear-gradient-20);}.cls-47{stroke-width:2px;}</style><linearGradient id="linear-gradient" x1="601.63" y1="239.91" x2="666.19" y2="340.16" gradientUnits="userSpaceOnUse"><stop offset="0" stop-color="#8c3ded"/><stop offset="0.29" stop-color="#853fe7"/><stop offset="0.7" stop-color="#7343d6"/><stop offset="1" stop-color="#6147c6"/></linearGradient><linearGradient id="linear-gradient-2" x1="721.29" y1="556.3" x2="731.69" y2="560.98" gradientUnits="userSpaceOnUse"><stop offset="0" stop-color="#8c3ded"/><stop offset="0.91" stop-color="#6546ca"/><stop offset="1" stop-color="#6147c6"/></linearGradient><linearGradient id="linear-gradient-3" x1="549.38" y1="595.34" x2="807.03" y2="595.34" gradientUnits="userSpaceOnUse"><stop offset="0" stop-color="#d0a2da"/><stop offset="0.27" stop-color="#a9b0e9"/><stop offset="0.51" stop-color="#84bdf7"/></linearGradient><linearGradient id="linear-gradient-4" x1="700.29" y1="436.88" x2="764.32" y2="436.88" gradientUnits="userSpaceOnUse"><stop offset="0" stop-color="#8c3ded"/><stop offset="0.31" stop-color="#883ee9"/><stop offset="0.61" stop-color="#7c41df"/><stop offset="0.91" stop-color="#6945cd"/><stop offset="1" stop-color="#6147c6"/></linearGradient><linearGradient id="linear-gradient-5" x1="532.37" y1="437.92" x2="622.6" y2="436.84" xlink:href="#linear-gradient-4"/><linearGradient id="linear-gradient-6" x1="705.56" y1="436.88" x2="759.05" y2="436.88" xlink:href="#linear-gradient-4"/><linearGradient id="linear-gradient-7" x1="665" y1="479.53" x2="681.7" y2="481.48" xlink:href="#linear-gradient-4"/><linearGradient id="linear-gradient-8" x1="676.34" y1="482.32" x2="701.28" y2="482.32" xlink:href="#linear-gradient-4"/><linearGradient id="linear-gradient-9" x1="400.29" y1="273.5" x2="875.57" y2="273.5" xlink:href="#linear-gradient-4"/><linearGradient id="linear-gradient-10" x1="614.38" y1="541.79" x2="654.09" y2="541.79" xlink:href="#linear-gradient-4"/><linearGradient id="linear-gradient-11" x1="1213.4" y1="240.38" x2="1277.66" y2="340.18" gradientTransform="matrix(-1, 0, 0, 1, 2451.01, 0)" xlink:href="#linear-gradient"/><linearGradient id="linear-gradient-12" x1="1332.41" y1="556.28" x2="1342.76" y2="560.95" gradientTransform="matrix(-1, 0, 0, 1, 2451.01, 0)" xlink:href="#linear-gradient-2"/><linearGradient id="linear-gradient-13" x1="1161.73" y1="595.34" x2="1417.49" y2="595.34" gradientTransform="matrix(-1, 0, 0, 1, 2451.01, 0)" xlink:href="#linear-gradient-3"/><linearGradient id="linear-gradient-14" x1="1311.53" y1="436.88" x2="1375.09" y2="436.88" gradientTransform="matrix(-1, 0, 0, 1, 2451.01, 0)" xlink:href="#linear-gradient-4"/><linearGradient id="linear-gradient-15" x1="1144.84" y1="437.91" x2="1234.41" y2="436.84" gradientTransform="matrix(-1, 0, 0, 1, 2451.01, 0)" xlink:href="#linear-gradient-4"/><linearGradient id="linear-gradient-16" x1="1316.77" y1="436.88" x2="1369.86" y2="436.88" gradientTransform="matrix(-1, 0, 0, 1, 2451.01, 0)" xlink:href="#linear-gradient-4"/><linearGradient id="linear-gradient-17" x1="1276.5" y1="479.55" x2="1293.08" y2="481.49" gradientTransform="matrix(-1, 0, 0, 1, 2451.01, 0)" xlink:href="#linear-gradient-4"/><linearGradient id="linear-gradient-18" x1="1287.76" y1="482.32" x2="1312.51" y2="482.32" gradientTransform="matrix(-1, 0, 0, 1, 2451.01, 0)" xlink:href="#linear-gradient-4"/><linearGradient id="linear-gradient-19" x1="1013.73" y1="273.5" x2="1485.53" y2="273.5" gradientTransform="matrix(-1, 0, 0, 1, 2451.01, 0)" xlink:href="#linear-gradient-4"/><linearGradient id="linear-gradient-20" x1="1226.25" y1="541.79" x2="1265.67" y2="541.79" gradientTransform="matrix(-1, 0, 0, 1, 2451.01, 0)" xlink:href="#linear-gradient-4"/></defs><g id="BACKGROUND"><rect class="cls-1" width="1920" height="1080"/></g><g id="Layer_8" data-name="Layer 8"><text class="cls-2" transform="translate(1325.54 641.6)">G<tspan class="cls-3" x="24.88" y="0">r</tspan><tspan x="38.95" y="0">ip </tspan><tspan class="cls-4" x="80.25" y="0">click</tspan><tspan class="cls-4"><tspan class="cls-5" x="0" y="36">t</tspan><tspan x="12.44" y="36">o </tspan><tspan class="cls-5" x="42.96" y="36">t</tspan><tspan x="55.41" y="36">oggle grab/d</tspan><tspan class="cls-6" x="264.81" y="36">r</tspan><tspan x="277.45" y="36">op</tspan></tspan></text><text class="cls-2" transform="translate(330.56 643.74)">G<tspan class="cls-3" x="24.88" y="0">r</tspan><tspan x="38.95" y="0">ip </tspan><tspan class="cls-4" x="80.25" y="0">click</tspan><tspan class="cls-4"><tspan class="cls-5" x="-169.62" y="36">t</tspan><tspan x="-157.18" y="36">o </tspan><tspan class="cls-5" x="-126.65" y="36">t</tspan><tspan x="-114.21" y="36">oggle grab/d</tspan><tspan class="cls-6" x="95.19" y="36">r</tspan><tspan x="107.84" y="36">op</tspan></tspan></text><text class="cls-2" transform="translate(1325.54 756.39)">G<tspan class="cls-3" x="24.88" y="0">r</tspan><tspan x="38.95" y="0">ip </tspan><tspan class="cls-4" x="80.25" y="0">hold = hold</tspan></text><text class="cls-2" transform="translate(1325.54 820.83)">G<tspan class="cls-3" x="24.88" y="0">r</tspan><tspan x="38.95" y="0">ip</tspan><tspan class="cls-4" x="70.6" y="0"> </tspan><tspan class="cls-7" x="80.22" y="0">r</tspan><tspan class="cls-4" x="92.87" y="0">elease = </tspan><tspan class="cls-7" x="234.69" y="0">r</tspan><tspan class="cls-4" x="247.34" y="0">elease</tspan></text><text class="cls-2" transform="translate(215.55 743.5)">G<tspan class="cls-3" x="24.88" y="0">r</tspan><tspan x="38.95" y="0">ip </tspan><tspan class="cls-4" x="80.25" y="0">hold = hold</tspan></text><text class="cls-2" transform="translate(134.21 807.95)">G<tspan class="cls-3" x="24.88" y="0">r</tspan><tspan x="38.95" y="0">ip</tspan><tspan class="cls-4" x="70.6" y="0"> </tspan><tspan class="cls-7" x="80.22" y="0">r</tspan><tspan class="cls-4" x="92.87" y="0">elease = </tspan><tspan class="cls-7" x="234.69" y="0">r</tspan><tspan class="cls-4" x="247.34" y="0">elease</tspan></text><text class="cls-8" transform="translate(979.08 184.09)">Click <tspan class="cls-5" x="84.48" y="0">t</tspan><tspan x="96.92" y="0">o </tspan><tspan class="cls-6" x="127.44" y="0">r</tspan><tspan x="140.09" y="0">ecen</tspan><tspan class="cls-5" x="214.15" y="0">t</tspan><tspan x="226.59" y="0">er camera</tspan></text><text class="cls-8" transform="translate(495.73 892.11)">Open Main Menu</text><text class="cls-2" transform="translate(371.81 949.85)">P<tspan class="cls-9" x="21.5" y="0">r</tspan><tspan x="35.29" y="0">ess</tspan><tspan class="cls-4" x="85.02" y="0"> </tspan><tspan class="cls-10" x="94.64" y="0">t</tspan><tspan class="cls-4" x="107.08" y="0">o </tspan><tspan class="cls-11" x="137.61" y="0">R</tspan><tspan class="cls-4" x="158.47" y="0">ecen</tspan><tspan class="cls-10" x="232.54" y="0">t</tspan><tspan class="cls-4" x="244.98" y="0">er camera</tspan></text><text class="cls-2" transform="translate(792.6 183.97)"><tspan class="cls-12">W</tspan><tspan x="33.77" y="0">alk</tspan></text><text class="cls-8" transform="translate(1323.97 485.01)"><tspan class="cls-13">R</tspan><tspan x="20.85" y="0">ota</tspan><tspan class="cls-5" x="72.67" y="0">t</tspan><tspan x="85.11" y="0">e Le</tspan><tspan class="cls-14" x="149.02" y="0">f</tspan><tspan x="161.74" y="0">t / Right</tspan></text><text class="cls-8" transform="translate(1323.97 428.66)"><tspan class="cls-15">P</tspan><tspan x="19.45" y="0">ad </tspan><tspan class="cls-16" x="68.43" y="0">S</tspan><tspan x="87.07" y="0">wipe = menu sc</tspan><tspan class="cls-6" x="337.52" y="0">r</tspan><tspan x="350.17" y="0">oll</tspan></text><text class="cls-8" transform="translate(1323.97 553.98)">Open Windows Menu</text><text class="cls-8" transform="translate(188.67 550.81)">Open Windows Menu</text><polyline class="cls-17" points="-212.06 943.42 -212.06 1276.71 43.98 1276.71"/><line class="cls-18" x1="1310.08" y1="744.43" x2="1284.21" y2="744.43"/><polyline class="cls-18" points="1310.09 811 1284.21 811 1284.21 628.14 1310.09 628.14"/><polygon class="cls-19" points="752.25 376.05 594.48 376.05 594.6 374.99 595.61 365.95 600.4 322.89 601.14 316.22 745.59 316.22 746.33 322.89 751.28 367.31 752.18 375.35 752.18 375.35 752.25 376.05"/><path class="cls-20" d="M706.73,522.2c3,3,14.6,28.26,18.51,53.51a90.68,90.68,0,0,1-4.57,7.84l-18.73-27.94-2.38-20.29,6-11.7Z"/><path class="cls-21" d="M708.77,522.92l13.93,61.34h0l.52,2.11L726,596.85l.65,2.44,9.07,34.26L758.63,720l15.22,57.46a29.58,29.58,0,0,1-1.11,18.78,28.87,28.87,0,0,1-22.56,17.47l-72,11.51c-7.67,1.62-13.52,1.32-18.28-.64-6.54-2.67-11-8.45-15.34-16.61a114.57,114.57,0,0,1-9.25-23.71L596.64,641.68l-6.88-25.4-.18-.65-20.66-76.25-5.63-20.81-4.1-15.09q-1.12-4.19-2.12-8.38l-.15-.6q-3.23-13.67-5.07-27.57c-.41-3-.77-6.1-1.07-9.16q-1.39-13.95-1.4-28a65.29,65.29,0,0,1,65.32-65.32H730A77.09,77.09,0,0,1,807,441.49c0,37.58-29.48,71-71.13,76.67-7.91.93-15.87,1.54-23.83,1.92l-1.51.08A2.25,2.25,0,0,0,708.77,522.92Z"/><path class="cls-22" d="M790.71,436.24a67.35,67.35,0,0,1-67.35,67.35H622.65a67.36,67.36,0,1,1,0-134.71H723.36a67.36,67.36,0,0,1,67.35,67.36Z"/><circle class="cls-23" cx="732.31" cy="436.88" r="38.42"/><circle class="cls-24" cx="732.31" cy="436.88" r="32.01"/><circle class="cls-23" cx="618.99" cy="436.88" r="57.74"/><path class="cls-25" d="M672.79,436.88a53,53,0,0,1-.71,8.69,53.78,53.78,0,1,1,.71-8.69Z"/><circle class="cls-26" cx="618.99" cy="436.88" r="52.87"/><path class="cls-27" d="M759.05,436.88A26.58,26.58,0,0,1,754,452.55a28.65,28.65,0,0,1-1.84,2.28,26.74,26.74,0,0,1-44.87-27.32,25.73,25.73,0,0,1,1.33-3,26.69,26.69,0,0,1,23.71-14.39c.83,0,1.65,0,2.46.11A26.75,26.75,0,0,1,759.05,436.88Z"/><g class="cls-28"><path class="cls-29" d="M758,436.88a25.71,25.71,0,1,1-25.72-25.72c.8,0,1.59,0,2.37.11A25.71,25.71,0,0,1,758,436.88Z"/><path class="cls-29" d="M756.14,436.88a23.84,23.84,0,1,1-23.84-23.83c.74,0,1.47,0,2.19.1A23.83,23.83,0,0,1,756.14,436.88Z"/><path class="cls-29" d="M754.25,436.88a21.94,21.94,0,1,1-22-21.95c.68,0,1.36,0,2,.09A22,22,0,0,1,754.25,436.88Z"/></g><circle class="cls-30" cx="688.81" cy="482.32" r="14.19"/><circle class="cls-31" cx="688.81" cy="482.32" r="12.47"/><path class="cls-32" d="M874.86,234.17l-41.79,84.64a7.52,7.52,0,0,1-6.79,4.08H449.58a7.53,7.53,0,0,1-6.79-4.08l-14.93-30.24L401,234.17c-2.32-4.69,1.3-10.06,6.78-10.06H868.07C873.55,224.11,877.18,229.48,874.86,234.17Z"/><circle class="cls-33" cx="597.36" cy="301.06" r="5.71"/><circle class="cls-33" cx="528.02" cy="239.04" r="5.71"/><circle class="cls-33" cx="659.76" cy="239.04" r="5.71"/><ellipse class="cls-33" cx="465.97" cy="264.4" rx="4.12" ry="6.19" transform="translate(-69.59 278.79) rotate(-31.11)"/><ellipse class="cls-33" cx="741.82" cy="264.31" rx="6.19" ry="4.12" transform="translate(132.24 762.87) rotate(-58.89)"/><ellipse class="cls-33" cx="429.07" cy="280.9" rx="2.11" ry="6.19" transform="translate(-83.42 262.09) rotate(-31.11)"/><ellipse class="cls-33" cx="803" cy="301.88" rx="6.19" ry="3.16" transform="translate(129.64 833.42) rotate(-58.89)"/><ellipse class="cls-33" cx="855.56" cy="242.11" rx="6.19" ry="2.29" transform="translate(338.18 965.25) rotate(-70.22)"/><ellipse class="cls-34" cx="634.23" cy="541.79" rx="19.85" ry="16.02"/><rect class="cls-33" x="626.51" y="534.45" width="6.18" height="6.18" rx="0.21"/><rect class="cls-33" x="626.51" y="542.1" width="6.18" height="6.18" rx="0.21"/><path class="cls-33" d="M641.37,540.62h-6.59a.53.53,0,0,1-.55-.5v-5.24a.52.52,0,0,1,.46-.5l6.6-1a.53.53,0,0,1,.63.49v6.21A.53.53,0,0,1,641.37,540.62Z"/><path class="cls-33" d="M641.29,549l-6.59-.66a.52.52,0,0,1-.47-.5v-5.24a.53.53,0,0,1,.55-.51h6.59a.53.53,0,0,1,.55.51v5.91A.53.53,0,0,1,641.29,549Z"/><rect class="cls-33" x="683.06" y="478.96" width="11.5" height="1.31"/><rect class="cls-33" x="683.06" y="481.66" width="11.5" height="1.31"/><rect class="cls-33" x="683.06" y="484.35" width="11.5" height="1.31"/><path class="cls-35" d="M874.86,234.17l-41.79,84.64a7.52,7.52,0,0,1-6.79,4.08H649.1l-3.51-6.67-48.35-92.11H868.07C873.55,224.11,877.18,229.48,874.86,234.17Z"/><path class="cls-35" d="M874.86,234.17l-41.79,84.64a7.52,7.52,0,0,1-6.79,4.08H787l-51.86-98.78H868.07C873.55,224.11,877.18,229.48,874.86,234.17Z"/><path class="cls-36" d="M790.71,436.24a67.35,67.35,0,0,1-67.35,67.35h-4.73L699,492.24l-1.51-.93-9.14-5.64-2.13-1.32L683.94,483l-.88-.54-6.16-3.8-1.51-.93-10.14-6.27-3.37-2.07-.79-.49-89.56-55.3-.8-.49L567.37,411l-5.65-3.49a67.34,67.34,0,0,1,60.93-38.63H723.36a67.36,67.36,0,0,1,67.35,67.36Z"/><path class="cls-36" d="M759.05,436.88A26.58,26.58,0,0,1,754,452.55l-.53-.33-.88-.54-6.16-3.8-1.51-.93-10.14-6.27-3.37-2.07-.79-.49-22-13.59a26.69,26.69,0,0,1,23.71-14.39c.83,0,1.65,0,2.46.11A26.75,26.75,0,0,1,759.05,436.88Z"/><path class="cls-36" d="M672.79,436.88a53,53,0,0,1-.71,8.69l-.18-.12-2.24-1.38-.87-.54-6.17-3.8-1.5-.93L651,432.53l-3.36-2.07-.8-.49L587.44,393.3a53.8,53.8,0,0,1,85.35,43.58Z"/><path class="cls-36" d="M770.7,795.53A28.86,28.86,0,0,1,748.14,813l-72,11.51c-6.61,1.4-11.87,1.37-16.24.08-7.34-2.16-12.19-7.83-16.77-16.2-.21-.37-.41-.75-.61-1.13a114.48,114.48,0,0,1-9.25-23.7L594.61,641l-7.06-26,2.21,1.36,166.83,103,15.22,57.47A29.58,29.58,0,0,1,770.7,795.53Z"/><path class="cls-36" d="M726,596.85,557.07,495.1l-2.18-1.32q1.05,4.52,2.27,9l4.09,15.1,5.5,20.3,20.8,76.76,7.06,26,38.64,142.59a114.48,114.48,0,0,0,9.25,23.7c.2.38.4.76.61,1.13,4.58,8.37,9.43,14,16.77,16.2,4.76,2,10.61,2.26,18.28.64l72-11.51a28.87,28.87,0,0,0,22.56-17.47,29.58,29.58,0,0,0,1.11-18.78L758.63,720l-22.91-86.45Z"/><path class="cls-36" d="M772.74,796.24a28.87,28.87,0,0,1-22.56,17.47l-72,11.51c-7.67,1.62-13.52,1.32-18.28-.64-7.34-2.16-12.19-7.83-16.77-16.2-.21-.37-.41-.75-.61-1.13a114.48,114.48,0,0,1-9.25-23.7L594.61,641l-7.06-26-20.8-76.76,2.17,1.22,166.8,94.17L758.63,720l15.22,57.46A29.58,29.58,0,0,1,772.74,796.24Z"/><polygon class="cls-37" points="1087.9 376.05 1244.52 376.05 1244.4 374.99 1243.4 365.95 1238.64 322.89 1237.9 316.22 1094.52 316.22 1093.78 322.89 1088.87 367.31 1087.97 375.35 1087.97 375.35 1087.9 376.05"/><path class="cls-38" d="M1133.09,522.2c-2.94,3-14.49,28.26-18.38,53.51.85,2,4.54,7.84,4.54,7.84l18.59-27.94,2.37-20.29-6-11.7Z"/><path class="cls-39" d="M1131.06,522.92l-13.82,61.34h0l-.52,2.11L1114,596.85l-.64,2.44-9,34.26L1081.57,720l-15.11,57.46a29.78,29.78,0,0,0,1.1,18.78,28.72,28.72,0,0,0,22.4,17.47l71.49,11.51c7.61,1.62,13.42,1.32,18.15-.64,6.48-2.67,10.94-8.45,15.23-16.61a116,116,0,0,0,9.18-23.71l38.36-142.58,6.83-25.4.18-.65,20.51-76.25,5.59-20.81,4.07-15.09c.74-2.79,1.45-5.58,2.1-8.38l.15-.6q3.21-13.67,5-27.57c.4-3,.75-6.1,1.05-9.16q1.39-13.95,1.4-28a65.3,65.3,0,0,0-47.91-63.06,64.41,64.41,0,0,0-16.94-2.26H1110a75.95,75.95,0,0,0-54.1,22.58,77.11,77.11,0,0,0-22.41,54.5c0,37.58,29.25,71,70.6,76.67,7.86.93,15.75,1.54,23.66,1.92l1.5.08A2.25,2.25,0,0,1,1131.06,522.92Z"/><path class="cls-22" d="M1049.72,436.24c0,37.2,29.94,67.35,66.86,67.35h100a66.42,66.42,0,0,0,47.28-19.73,67.4,67.4,0,0,0-47.28-115h-100a66.42,66.42,0,0,0-47.27,19.73A67.41,67.41,0,0,0,1049.72,436.24Z"/><ellipse class="cls-23" cx="1107.7" cy="436.88" rx="38.14" ry="38.42"/><ellipse class="cls-40" cx="1107.7" cy="436.88" rx="31.78" ry="32.01"/><ellipse class="cls-23" cx="1220.19" cy="436.88" rx="57.32" ry="57.74"/><path class="cls-41" d="M1166.78,436.88a54.11,54.11,0,0,0,.7,8.69,53.44,53.44,0,1,0,84-52.27,52.9,52.9,0,0,0-31.33-10.22A53.6,53.6,0,0,0,1166.78,436.88Z"/><ellipse class="cls-26" cx="1220.19" cy="436.88" rx="52.49" ry="52.87"/><path class="cls-42" d="M1081.15,436.88a26.69,26.69,0,0,0,5,15.67,26.41,26.41,0,0,0,41.28,2.16,26.9,26.9,0,0,0,5.09-27.2,25.73,25.73,0,0,0-1.33-3,26.48,26.48,0,0,0-23.54-14.39c-.82,0-1.63,0-2.44.11A26.67,26.67,0,0,0,1081.15,436.88Z"/><g class="cls-28"><path class="cls-29" d="M1082.17,436.88a25.72,25.72,0,0,0,6.61,17.26,25.41,25.41,0,0,0,37.94-.11,25.74,25.74,0,0,0-19-42.87c-.79,0-1.57,0-2.34.11A25.64,25.64,0,0,0,1082.17,436.88Z"/><path class="cls-29" d="M1084,436.88a23.84,23.84,0,0,0,6.12,16,23.54,23.54,0,0,0,35.17-.1,23.85,23.85,0,0,0-17.63-39.72c-.73,0-1.45,0-2.17.1A23.77,23.77,0,0,0,1084,436.88Z"/><path class="cls-29" d="M1085.91,436.88a22,22,0,0,0,5.64,14.73,21.69,21.69,0,0,0,32.39-.1,22,22,0,0,0-16.24-36.58c-.67,0-1.34,0-2,.09A21.89,21.89,0,0,0,1085.91,436.88Z"/></g><ellipse class="cls-43" cx="1150.88" cy="482.32" rx="14.08" ry="14.19"/><ellipse class="cls-44" cx="1150.88" cy="482.32" rx="12.37" ry="12.47"/><path class="cls-45" d="M966.19,234.17l41.48,84.64a7.47,7.47,0,0,0,6.74,4.08h373.95a7.48,7.48,0,0,0,6.74-4.08l14.81-30.24,26.67-54.4c2.3-4.69-1.3-10.06-6.74-10.06H972.93C967.49,224.11,963.89,229.48,966.19,234.17Z"/><ellipse class="cls-33" cx="1241.66" cy="301.06" rx="5.67" ry="5.71"/><ellipse class="cls-33" cx="1310.49" cy="239.04" rx="5.67" ry="5.71"/><ellipse class="cls-33" cx="1179.72" cy="239.04" rx="5.67" ry="5.71"/><ellipse class="cls-33" cx="1372.08" cy="264.4" rx="6.18" ry="4.1" transform="translate(445.47 1310.3) rotate(-59.37)"/><ellipse class="cls-33" cx="1098.26" cy="264.31" rx="4.1" ry="6.18" transform="matrix(0.86, -0.51, 0.51, 0.86, 18.58, 596.47)"/><ellipse class="cls-33" cx="1408.71" cy="280.9" rx="6.18" ry="2.09" transform="translate(444.71 1345.82) rotate(-59.12)"/><ellipse class="cls-33" cx="1037.53" cy="301.88" rx="3.15" ry="6.18" transform="translate(-8.28 573.72) rotate(-30.79)"/><ellipse class="cls-33" cx="985.35" cy="242.11" rx="2.28" ry="6.19" transform="translate(-24.11 344.66) rotate(-19.61)"/><ellipse class="cls-46" cx="1205.06" cy="541.79" rx="19.71" ry="16.02"/><rect class="cls-33" x="1206.59" y="534.45" width="6.13" height="6.18" rx="0.21" transform="translate(2419.31 1075.07) rotate(-180)"/><rect class="cls-33" x="1206.59" y="542.1" width="6.13" height="6.18" rx="0.21" transform="translate(2419.31 1090.39) rotate(-180)"/><path class="cls-33" d="M1198,540.62h6.54a.53.53,0,0,0,.55-.5v-5.24a.52.52,0,0,0-.46-.5l-6.55-1a.52.52,0,0,0-.62.49v6.21A.52.52,0,0,0,1198,540.62Z"/><path class="cls-33" d="M1198.05,549l6.55-.66a.52.52,0,0,0,.46-.5v-5.24a.53.53,0,0,0-.55-.51H1198a.53.53,0,0,0-.54.51v5.91A.52.52,0,0,0,1198.05,549Z"/><rect class="cls-33" x="1145.17" y="478.96" width="11.41" height="1.31" transform="translate(2301.76 959.24) rotate(-180)"/><rect class="cls-33" x="1145.17" y="481.66" width="11.41" height="1.31" transform="translate(2301.76 964.63) rotate(-180)"/><rect class="cls-33" x="1145.17" y="484.35" width="11.41" height="1.31" transform="translate(2301.76 970.02) rotate(-180)"/><path class="cls-35" d="M966.19,234.17l41.48,84.64a7.47,7.47,0,0,0,6.74,4.08H1190.3l3.48-6.67,48-92.11H972.93C967.49,224.11,963.89,229.48,966.19,234.17Z"/><path class="cls-35" d="M966.19,234.17l41.48,84.64a7.47,7.47,0,0,0,6.74,4.08h38.95l51.49-98.78H972.93C967.49,224.11,963.89,229.48,966.19,234.17Z"/><path class="cls-36" d="M1049.72,436.24c0,37.2,29.94,67.35,66.86,67.35h4.7l19.53-11.35,1.5-.93,9.07-5.64,2.11-1.32,2.23-1.38.86-.54,6.12-3.8,1.5-.93,10.07-6.27,3.34-2.07.79-.49,88.9-55.3.79-.49,3.34-2.08,5.61-3.49a66.83,66.83,0,0,0-60.49-38.63h-100a66.42,66.42,0,0,0-47.27,19.73A67.41,67.41,0,0,0,1049.72,436.24Z"/><path class="cls-36" d="M1081.15,436.88a26.69,26.69,0,0,0,5,15.67l.53-.33.86-.54,6.12-3.8,1.5-.93,10.07-6.27,3.34-2.07.79-.49,21.83-13.59a26.48,26.48,0,0,0-23.54-14.39c-.82,0-1.63,0-2.44.11A26.67,26.67,0,0,0,1081.15,436.88Z"/><path class="cls-36" d="M1166.78,436.88a54.11,54.11,0,0,0,.7,8.69l.18-.12,2.23-1.38.86-.54,6.12-3.8,1.5-.93,10.07-6.27,3.34-2.07.79-.49,58.94-36.67a52.9,52.9,0,0,0-31.33-10.22A53.6,53.6,0,0,0,1166.78,436.88Z"/><path class="cls-36" d="M1069.59,795.53A28.68,28.68,0,0,0,1092,813l71.49,11.51c6.57,1.4,11.79,1.37,16.13.08,7.28-2.16,12.1-7.83,16.65-16.2l.6-1.13a115.39,115.39,0,0,0,9.18-23.7L1244.39,641l7-26-2.2,1.36-165.61,103-15.11,57.47A29.79,29.79,0,0,0,1069.59,795.53Z"/><path class="cls-36" d="M1114,596.85,1281.65,495.1l2.17-1.32q-1,4.52-2.25,9l-4.06,15.1-5.46,20.3-20.65,76.76-7,26L1206,783.55a115.39,115.39,0,0,1-9.18,23.7l-.6,1.13c-4.55,8.37-9.37,14-16.65,16.2-4.73,2-10.54,2.26-18.15.64L1090,813.71a28.72,28.72,0,0,1-22.4-17.47,29.78,29.78,0,0,1-1.1-18.78L1081.57,720l22.74-86.45Z"/><path class="cls-36" d="M1067.56,796.24a28.72,28.72,0,0,0,22.4,17.47l71.49,11.51c7.61,1.62,13.42,1.32,18.15-.64,7.28-2.16,12.1-7.83,16.65-16.2l.6-1.13a115.39,115.39,0,0,0,9.18-23.7L1244.39,641l7-26,20.65-76.76-2.16,1.22-165.58,94.17L1081.57,720l-15.11,57.46A29.78,29.78,0,0,0,1067.56,796.24Z"/><polyline class="cls-18" points="885.37 176.56 916.75 176.56 916.75 427.69 744.24 427.69"/><polyline class="cls-18" points="1094.01 436.88 946.7 436.88 946.7 176.56 963.01 176.56"/><polyline class="cls-18" points="1119.23 436.88 1229.79 436.88 1229.79 471.44 1314.98 471.44"/><circle class="cls-47" cx="1107.7" cy="436.88" r="5.37"/><circle class="cls-47" cx="602.15" cy="541.77" r="5.37"/><circle class="cls-47" cx="706.08" cy="546.94" r="5.37"/><circle class="cls-47" cx="1138.61" cy="546.94" r="5.37"/><circle class="cls-47" cx="711.37" cy="482.33" r="5.37"/><circle class="cls-47" cx="730.73" cy="434.03" r="5.37"/><line class="cls-18" x1="592.2" y1="541.77" x2="546.88" y2="541.77"/><circle class="cls-47" cx="1235.15" cy="541.77" r="5.37"/><line class="cls-18" x1="1245.1" y1="541.77" x2="1314.98" y2="541.77"/><circle class="cls-47" cx="1222.47" cy="420.3" r="5.37"/><line class="cls-18" x1="1232.42" y1="420.3" x2="1314.98" y2="420.3"/><polyline class="cls-18" points="817.58 567.83 817.58 885.26 780.91 885.26"/><line class="cls-18" x1="817.58" y1="550.81" x2="817.58" y2="567.83"/><polyline class="cls-18" points="723.62 482.33 817.58 482.33 817.58 550.81"/><polyline class="cls-18" points="840.1 548.28 840.1 936.09 780.69 936.09"/><polyline class="cls-18" points="744.6 439.39 840.1 439.39 840.1 548.28"/><path class="cls-48" d="M1830.32,87.73a1.85,1.85,0,0,1-1.59-.91L1803,42.56,1777.2,86.82A1.83,1.83,0,1,1,1774,85l27.12-46.59a2.12,2.12,0,0,1,1.81-1,2.09,2.09,0,0,1,1.8,1L1831.9,85a1.83,1.83,0,0,1-1.58,2.75Z"/><path class="cls-48" d="M1818.79,87.26h-32.1a1.83,1.83,0,0,1,0-3.66h32.1a1.83,1.83,0,0,1,0,3.66Z"/><polyline class="cls-18" points="695.8 547.54 678.56 547.54 678.56 603.45 532.09 603.45 532.09 802.16 494.74 802.16"/><line class="cls-18" x1="495.16" y1="635.65" x2="532.45" y2="635.65"/><line class="cls-18" x1="495.16" y1="730.85" x2="532.45" y2="730.85"/><polyline class="cls-18" points="1147.49 547.79 1162.89 547.79 1162.89 678.06 1285.46 678.06"/></g></svg>