<svg id="Layer_1" data-name="Layer 1" xmlns="http://www.w3.org/2000/svg" xmlns:xlink="http://www.w3.org/1999/xlink" viewBox="0 0 355.67 326.33"><defs><style>.cls-1{fill:none;stroke-miterlimit:10;stroke-width:8px;stroke:url(#linear-gradient);}.cls-2{fill:url(#linear-gradient-2);}.cls-3{fill:#fff;}</style><linearGradient id="linear-gradient" x1="82.52" y1="163.16" x2="273.15" y2="163.16" gradientUnits="userSpaceOnUse"><stop offset="0" stop-color="#44b6eb"/><stop offset="0.21" stop-color="#6ce9ed"/><stop offset="0.39" stop-color="#7ce88c"/><stop offset="0.58" stop-color="#ceb9ec"/><stop offset="0.79" stop-color="#afb5f0"/><stop offset="1" stop-color="#71abe6"/></linearGradient><linearGradient id="linear-gradient-2" x1="134.81" y1="149.13" x2="218.72" y2="149.13" gradientUnits="userSpaceOnUse"><stop offset="0" stop-color="#8d86f9"/><stop offset="0.48" stop-color="#8eadfb"/><stop offset="1" stop-color="#90dbfe"/></linearGradient></defs><path class="cls-1" d="M261.79,86.85H93.88a7.37,7.37,0,0,0-7.36,7.37V209a7.37,7.37,0,0,0,7.36,7.37h27.23a4.71,4.71,0,0,1,4.72,4.71v15.48a2.92,2.92,0,0,0,4.6,2.39l20.91-14.63a44,44,0,0,1,25.23-7.95h85.22a7.36,7.36,0,0,0,7.36-7.37V94.22A7.36,7.36,0,0,0,261.79,86.85Z"/><circle class="cls-2" cx="176.76" cy="149.13" r="41.95"/><path class="cls-3" d="M176.71,133.24a4.55,4.55,0,0,1-3.17-1.2,4,4,0,0,1-1.32-3.07,4,4,0,0,1,1.32-3.09,4.46,4.46,0,0,1,3.17-1.24,4.59,4.59,0,0,1,3.26,1.24,4.15,4.15,0,0,1,0,6.11A4.6,4.6,0,0,1,176.71,133.24Zm3.75,40.38H172.9V140.25h7.56Z"/></svg>