<svg id="Layer_1" data-name="Layer 1" xmlns="http://www.w3.org/2000/svg" xmlns:xlink="http://www.w3.org/1999/xlink" viewBox="0 0 355.67 326.33"><defs><style>.cls-1{fill:url(#linear-gradient);}.cls-2{fill:#fff;}.cls-3{fill:url(#linear-gradient-2);}</style><linearGradient id="linear-gradient" x1="71.61" y1="163.16" x2="284.06" y2="163.16" gradientUnits="userSpaceOnUse"><stop offset="0" stop-color="#edc7e1"/><stop offset="0.35" stop-color="#c6c1ea"/><stop offset="1" stop-color="#74b4fc"/></linearGradient><linearGradient id="linear-gradient-2" x1="149.09" y1="179.24" x2="203.49" y2="179.24" xlink:href="#linear-gradient"/></defs><path class="cls-1" d="M229.63,98.06l-2.21-6.41A15.23,15.23,0,0,0,213,81.36H142.66a15.23,15.23,0,0,0-14.41,10.29L126,98.06a15.23,15.23,0,0,1-14.41,10.29H86.86A15.25,15.25,0,0,0,71.61,123.6V229.73A15.25,15.25,0,0,0,86.86,245h182a15.25,15.25,0,0,0,15.25-15.24V123.6a15.25,15.25,0,0,0-15.25-15.25H244A15.23,15.23,0,0,1,229.63,98.06Z"/><circle class="cls-2" cx="244.29" cy="136.17" r="9.68"/><circle class="cls-2" cx="176.29" cy="179.24" r="48.42"/><circle class="cls-3" cx="176.29" cy="179.24" r="27.2"/></svg>