<svg id="Layer_1" data-name="Layer 1" xmlns="http://www.w3.org/2000/svg" xmlns:xlink="http://www.w3.org/1999/xlink" viewBox="0 0 355.67 326.33"><defs><style>.cls-1{fill:url(#linear-gradient);}.cls-10,.cls-11,.cls-12,.cls-13,.cls-2,.cls-3,.cls-4,.cls-5,.cls-6,.cls-7,.cls-8,.cls-9{fill:none;stroke-miterlimit:10;}.cls-10,.cls-11,.cls-12,.cls-2,.cls-3,.cls-4,.cls-5,.cls-6,.cls-7,.cls-8,.cls-9{stroke-width:3px;}.cls-2{stroke:url(#linear-gradient-2);}.cls-3{stroke:url(#linear-gradient-3);}.cls-4{stroke:url(#linear-gradient-4);}.cls-5{stroke:url(#linear-gradient-5);}.cls-6{stroke:url(#linear-gradient-6);}.cls-7{stroke:url(#linear-gradient-7);}.cls-8{stroke:url(#linear-gradient-8);}.cls-9{stroke:url(#linear-gradient-9);}.cls-10{stroke:url(#linear-gradient-10);}.cls-11{stroke:url(#linear-gradient-11);}.cls-12{stroke:url(#linear-gradient-12);}.cls-13{stroke-width:5px;stroke:url(#linear-gradient-13);}.cls-14{fill:url(#linear-gradient-14);}</style><linearGradient id="linear-gradient" x1="80.64" y1="142.96" x2="263.9" y2="142.96" gradientUnits="userSpaceOnUse"><stop offset="0" stop-color="#8d86f9"/><stop offset="0.48" stop-color="#8eadfb"/><stop offset="1" stop-color="#90dbfe"/></linearGradient><linearGradient id="linear-gradient-2" x1="110.73" y1="208.25" x2="135.29" y2="208.25" gradientUnits="userSpaceOnUse"><stop offset="0" stop-color="#44b6eb"/><stop offset="0.21" stop-color="#6ce9ed"/><stop offset="0.39" stop-color="#7ce88c"/><stop offset="0.58" stop-color="#ceb9ec"/><stop offset="0.79" stop-color="#afb5f0"/><stop offset="1" stop-color="#71abe6"/></linearGradient><linearGradient id="linear-gradient-3" x1="143.58" y1="208.25" x2="168.15" y2="208.25" xlink:href="#linear-gradient-2"/><linearGradient id="linear-gradient-4" x1="176.44" y1="208.26" x2="201" y2="208.26" xlink:href="#linear-gradient-2"/><linearGradient id="linear-gradient-5" x1="110.75" y1="141.48" x2="135.29" y2="141.48" xlink:href="#linear-gradient-2"/><linearGradient id="linear-gradient-6" x1="143.58" y1="141.48" x2="168.15" y2="141.48" xlink:href="#linear-gradient-2"/><linearGradient id="linear-gradient-7" x1="176.41" y1="141.5" x2="201.02" y2="141.5" xlink:href="#linear-gradient-2"/><linearGradient id="linear-gradient-8" x1="209.29" y1="141.5" x2="233.84" y2="141.5" xlink:href="#linear-gradient-2"/><linearGradient id="linear-gradient-9" x1="110.73" y1="174.31" x2="135.29" y2="174.31" xlink:href="#linear-gradient-2"/><linearGradient id="linear-gradient-10" x1="176.42" y1="174.32" x2="201.02" y2="174.32" xlink:href="#linear-gradient-2"/><linearGradient id="linear-gradient-11" x1="209.23" y1="174.28" x2="233.92" y2="174.28" xlink:href="#linear-gradient-2"/><linearGradient id="linear-gradient-12" x1="143.58" y1="174.14" x2="168.17" y2="174.14" xlink:href="#linear-gradient-2"/><linearGradient id="linear-gradient-13" x1="224.4" y1="225.4" x2="279.48" y2="225.4" xlink:href="#linear-gradient-2"/><linearGradient id="linear-gradient-14" x1="239.98" y1="225.4" x2="263.9" y2="225.4" xlink:href="#linear-gradient"/></defs><path class="cls-1" d="M246.91,66.13H223.84c0-4.95.1-9.24,0-13.52-.15-4.92-2.89-8-7-8.09-4.29-.12-7.14,3-7.26,8.22-.11,4.27,0,8.55,0,13.1H132.39c-.3-.36-.5-.49-.5-.62-.09-4.3-.13-8.6-.26-12.9-.15-4.87-2.92-7.84-7.14-7.78s-6.87,3-7,8c-.09,4.29,0,8.59,0,13.62-7.4,0-14.17,0-21,0-10.49.06-15.9,5.48-15.9,16q0,71.68,0,143.37,0,15.93,15.82,15.92,65.92,0,131.84,0a28.08,28.08,0,0,1-4.3-10.1q-60.21,0-120.4,0c-8.76,0-12-3.23-12-11.94q0-48.28,0-96.56c0-1.3.11-2.6.19-4.27h161c.11,1.63.28,3.08.28,4.52q0,36.92,0,73.85a28.13,28.13,0,0,1,10.88,2.59q0-58.26,0-116.51C263.89,71.16,258.83,66.14,246.91,66.13ZM132.65,91.86a11.28,11.28,0,0,1-15.66.38c-4.65-4.38-4.67-10.95.31-15.84.63,11.93,1.84,14.79,6.8,14.67,10.34-.25,6.6-8.84,7.86-14.54C136.74,80.87,136.93,87.44,132.65,91.86Zm92.21-.29a11.16,11.16,0,0,1-15.2,1.23c-5.07-4.1-5.52-10.1-.12-16.29,0,2.27-.09,4.54,0,6.81.23,5.07,2.71,7.8,7,7.83s7-2.76,7.23-7.69c.12-2.21,0-4.44,0-7.27C228.88,81.39,229,87,224.86,91.57Z"/><path class="cls-2" d="M133.77,208.68c0,10.48,0,10.48-10.73,10.48s-10.75,0-10.8-10.94c-.06-11.71-.36-10.86,10.77-10.86C134.67,197.35,133.8,196.71,133.77,208.68Z"/><path class="cls-3" d="M156.13,197.37c10.52,0,10.52,0,10.52,10.59,0,11.2,0,11.2-11.05,11.2-10.5,0-10.48,0-10.51-10.73C145.05,196.42,144.55,197.34,156.13,197.37Z"/><path class="cls-4" d="M177.94,208.07c0-10.7,0-10.7,10.77-10.7s10.79,0,10.79,10.7c0,11.09,0,11.09-11,11.09C177.94,219.16,177.94,219.16,177.94,208.07Z"/><path class="cls-5" d="M112.25,141.24c0-10.61,0-10.59,10.48-10.62,11.93,0,11.06-.74,11,11,0,10.72,0,10.72-11,10.72C112.25,152.36,112.25,152.36,112.25,141.24Z"/><path class="cls-6" d="M155.89,130.63c10.76,0,10.76,0,10.76,10.83s0,10.9-10.81,10.9-10.71,0-10.75-10.94C145,129.66,144.72,130.6,155.89,130.63Z"/><path class="cls-7" d="M177.94,141.15c0-10.52,0-10.51,10.56-10.52,11.5,0,11.05-1,11,11.09,0,10.64,0,10.57-10.6,10.66C176.43,152.5,178,152.05,177.94,141.15Z"/><path class="cls-8" d="M221.61,152.36c-10.82,0-10.82,0-10.82-10.84s0-10.89,10.69-10.89c10.86,0,10.86,0,10.86,10.74v.5C232.34,152.36,232.34,152.36,221.61,152.36Z"/><path class="cls-9" d="M123,163.47c11.52-.06,10.78-.73,10.75,10.79,0,10.92,0,10.92-10.74,10.92s-10.74,0-10.79-10.9C112.2,162.6,111.79,163.43,123,163.47Z"/><path class="cls-10" d="M177.94,174.32c-.05-11.55-.69-10.89,10.72-10.86,11.08,0,10.91-1.08,10.85,10.76,0,11,0,11-10.75,11h-2.49c-8.25,0-8.32-.08-8.33-8.37Z"/><path class="cls-11" d="M232.34,174.2c0,11,0,11-11.22,11h-3.48c-6.15-.07-6.81-.71-6.85-6.85,0-3,.14-6,0-9-.24-4.19,1.36-6.22,5.75-5.94a64.8,64.8,0,0,0,9.45,0c4.73-.38,6.85,1.53,6.41,6.3C232.23,171.2,232.34,172.71,232.34,174.2Z"/><path class="cls-12" d="M155.58,184.91c-10.48,0-10.48,0-10.48-10.44,0-12.23-.81-11.08,11.31-11.1,10.24,0,10.24,0,10.24,10.17v.5C166.67,185.75,167.45,184.92,155.58,184.91Z"/><circle class="cls-13" cx="251.94" cy="225.4" r="25.04"/><path class="cls-14" d="M262.73,223.73h-9.12v-9.12a1.17,1.17,0,0,0-1.17-1.17h-1a1.17,1.17,0,0,0-1.17,1.17v9.12h-9.12A1.17,1.17,0,0,0,240,224.9v1a1.17,1.17,0,0,0,1.17,1.17h9.12v9.12a1.17,1.17,0,0,0,1.17,1.17h1a1.17,1.17,0,0,0,1.17-1.17v-9.12h9.12a1.17,1.17,0,0,0,1.17-1.17v-1A1.17,1.17,0,0,0,262.73,223.73Z"/></svg>