<svg id="Layer_1" data-name="Layer 1" xmlns="http://www.w3.org/2000/svg" xmlns:xlink="http://www.w3.org/1999/xlink" viewBox="0 0 355.67 326.33"><defs><style>.cls-1{fill:url(#linear-gradient);}.cls-2{fill:url(#linear-gradient-2);}.cls-3{fill:url(#linear-gradient-3);}.cls-4{fill:url(#linear-gradient-4);}.cls-5{fill:url(#linear-gradient-5);}.cls-6{fill:url(#linear-gradient-6);}.cls-7{fill:url(#linear-gradient-7);}.cls-8{fill:#fff;}</style><linearGradient id="linear-gradient" x1="106.05" y1="85.35" x2="249.63" y2="85.35" gradientUnits="userSpaceOnUse"><stop offset="0" stop-color="#44b6eb"/><stop offset="0.21" stop-color="#6ce9ed"/><stop offset="0.39" stop-color="#7ce88c"/><stop offset="0.58" stop-color="#ceb9ec"/><stop offset="0.79" stop-color="#afb5f0"/><stop offset="1" stop-color="#71abe6"/></linearGradient><linearGradient id="linear-gradient-2" x1="79.58" y1="163.16" x2="276.09" y2="163.16" xlink:href="#linear-gradient"/><linearGradient id="linear-gradient-3" x1="80.9" y1="175.05" x2="274.65" y2="175.05" xlink:href="#linear-gradient"/><linearGradient id="linear-gradient-4" x1="105.21" y1="240.39" x2="250.46" y2="240.39" xlink:href="#linear-gradient"/><linearGradient id="linear-gradient-5" x1="117.65" y1="163.16" x2="238.02" y2="163.16" xlink:href="#linear-gradient"/><linearGradient id="linear-gradient-6" x1="152.31" y1="163.16" x2="203.36" y2="163.16" xlink:href="#linear-gradient"/><linearGradient id="linear-gradient-7" x1="107.64" y1="157.03" x2="248.03" y2="157.03" gradientUnits="userSpaceOnUse"><stop offset="0" stop-color="#8d86f9"/><stop offset="0.48" stop-color="#8eadfb"/><stop offset="1" stop-color="#90dbfe"/></linearGradient></defs><path class="cls-1" d="M177.84,105.8c-6.21,0-12.44-.21-18.53-.62-8.72-.58-17.41-1.59-25.82-3a246,246,0,0,1-24.12-5.29L106.05,96l2.44-2.43a98.28,98.28,0,0,1,138.7,0L249.63,96l-3.33.92a245.18,245.18,0,0,1-24.11,5.29c-8.41,1.4-17.1,2.41-25.82,3C190.29,105.59,184.05,105.8,177.84,105.8ZM113.85,94c6.56,1.69,13.37,3.13,20.29,4.29,8.29,1.39,16.85,2.38,25.44,3a274.73,274.73,0,0,0,36.52,0c8.59-.57,17.15-1.56,25.43-3,6.92-1.16,13.73-2.6,20.3-4.29a94.28,94.28,0,0,0-128,0Z"/><path class="cls-2" d="M177.84,261.42a98.26,98.26,0,1,1,70.26-29.58A97.48,97.48,0,0,1,177.84,261.42Zm0-192.51a94.25,94.25,0,1,0,66.52,27.48A93.65,93.65,0,0,0,177.84,68.91Z"/><path class="cls-3" d="M177.84,186.33c-35.17,0-68.69-6.53-96.94-18.9l1.61-3.66c27.75,12.14,60.71,18.56,95.33,18.56s67.48-6.4,95.21-18.51l1.6,3.67C246.42,179.82,213,186.33,177.84,186.33Z"/><path class="cls-4" d="M177.84,261.42a97.47,97.47,0,0,1-70.27-29.58l-2.36-2.42,3.25-.91a242.41,242.41,0,0,1,24.47-5.44c8.49-1.44,17.29-2.48,26.15-3.08a278.44,278.44,0,0,1,37.44,0h.07a263.16,263.16,0,0,1,26.15,3.08,242.41,242.41,0,0,1,24.47,5.44l3.25.91-2.36,2.42A97.43,97.43,0,0,1,177.84,261.42Zm-65-30a94.24,94.24,0,0,0,129.91,0c-6.67-1.75-13.62-3.25-20.72-4.45-8.33-1.41-17-2.43-25.68-3h-.07a276.28,276.28,0,0,0-37,0c-8.74.6-17.4,1.61-25.76,3C126.5,228.21,119.55,229.71,112.88,231.46Z"/><path class="cls-5" d="M177.84,261.42c-33.19,0-60.19-44.08-60.19-98.26s27-98.25,60.19-98.25S238,109,238,163.16,211,261.42,177.84,261.42Zm0-192.51c-31,0-56.19,42.28-56.19,94.25s25.21,94.26,56.19,94.26S234,215.14,234,163.16,208.82,68.91,177.84,68.91Z"/><path class="cls-6" d="M177.84,261.42c-16.58,0-25.53-50.62-25.53-98.26s8.95-98.25,25.53-98.25,25.52,50.62,25.52,98.25S194.41,261.42,177.84,261.42Zm0-192.51c-10.18,0-21.53,38.71-21.53,94.25s11.35,94.26,21.53,94.26,21.52-38.71,21.52-94.26S188,68.91,177.84,68.91Z"/><rect class="cls-7" x="107.64" y="123.51" width="140.39" height="67.03" rx="3.83"/><polygon class="cls-8" points="155.23 138.2 180.13 166.15 198.63 153.05 222.57 175.27 128.54 175.27 155.23 138.2"/><circle class="cls-8" cx="191.53" cy="139.4" r="5.59"/></svg>