<svg id="Layer_1" data-name="Layer 1" xmlns="http://www.w3.org/2000/svg" xmlns:xlink="http://www.w3.org/1999/xlink" viewBox="0 0 355.67 326.33"><defs><style>.cls-1{fill:url(#linear-gradient);}.cls-10,.cls-11,.cls-12,.cls-13,.cls-14,.cls-2,.cls-3,.cls-4,.cls-5,.cls-6,.cls-7,.cls-8,.cls-9{fill:none;stroke-miterlimit:10;stroke-width:3px;}.cls-2{stroke:url(#linear-gradient-2);}.cls-3{stroke:url(#linear-gradient-3);}.cls-4{stroke:url(#linear-gradient-4);}.cls-5{stroke:url(#linear-gradient-5);}.cls-6{stroke:url(#linear-gradient-6);}.cls-7{stroke:url(#linear-gradient-7);}.cls-8{stroke:url(#linear-gradient-8);}.cls-9{stroke:url(#linear-gradient-9);}.cls-10{stroke:url(#linear-gradient-10);}.cls-11{stroke:url(#linear-gradient-11);}.cls-12{stroke:url(#linear-gradient-12);}.cls-13{stroke:url(#linear-gradient-13);}.cls-14{stroke-linecap:round;stroke:url(#linear-gradient-14);}</style><linearGradient id="linear-gradient" x1="79.66" y1="158.64" x2="262.92" y2="158.64" gradientUnits="userSpaceOnUse"><stop offset="0" stop-color="#8d86f9"/><stop offset="0.48" stop-color="#8eadfb"/><stop offset="1" stop-color="#90dbfe"/></linearGradient><linearGradient id="linear-gradient-2" x1="109.75" y1="223.94" x2="134.32" y2="223.94" gradientUnits="userSpaceOnUse"><stop offset="0" stop-color="#44b6eb"/><stop offset="0.21" stop-color="#6ce9ed"/><stop offset="0.39" stop-color="#7ce88c"/><stop offset="0.58" stop-color="#ceb9ec"/><stop offset="0.79" stop-color="#afb5f0"/><stop offset="1" stop-color="#71abe6"/></linearGradient><linearGradient id="linear-gradient-3" x1="142.6" y1="223.94" x2="167.18" y2="223.94" xlink:href="#linear-gradient-2"/><linearGradient id="linear-gradient-4" x1="175.47" y1="223.95" x2="200.02" y2="223.95" xlink:href="#linear-gradient-2"/><linearGradient id="linear-gradient-5" x1="109.78" y1="157.17" x2="134.32" y2="157.17" xlink:href="#linear-gradient-2"/><linearGradient id="linear-gradient-6" x1="142.6" y1="157.17" x2="167.18" y2="157.17" xlink:href="#linear-gradient-2"/><linearGradient id="linear-gradient-7" x1="175.43" y1="157.19" x2="200.04" y2="157.19" xlink:href="#linear-gradient-2"/><linearGradient id="linear-gradient-8" x1="208.31" y1="157.18" x2="232.87" y2="157.18" xlink:href="#linear-gradient-2"/><linearGradient id="linear-gradient-9" x1="109.75" y1="190" x2="134.31" y2="190" xlink:href="#linear-gradient-2"/><linearGradient id="linear-gradient-10" x1="175.44" y1="190" x2="200.04" y2="190" xlink:href="#linear-gradient-2"/><linearGradient id="linear-gradient-11" x1="208.25" y1="189.97" x2="232.94" y2="189.97" xlink:href="#linear-gradient-2"/><linearGradient id="linear-gradient-12" x1="142.61" y1="189.82" x2="167.19" y2="189.82" xlink:href="#linear-gradient-2"/><linearGradient id="linear-gradient-13" x1="224.42" y1="241.08" x2="277.51" y2="241.08" xlink:href="#linear-gradient-2"/><linearGradient id="linear-gradient-14" x1="240.4" y1="241.67" x2="263.92" y2="241.67" xlink:href="#linear-gradient-2"/></defs><path class="cls-1" d="M245.93,81.82H222.86c0-4.95.1-9.24,0-13.52-.15-4.92-2.89-8-7-8.09-4.29-.12-7.14,3-7.26,8.22-.11,4.27,0,8.55,0,13.1H131.41c-.3-.36-.5-.49-.5-.62-.09-4.3-.13-8.6-.26-12.9-.15-4.87-2.92-7.84-7.14-7.78s-6.87,3-7,8c-.09,4.29,0,8.59,0,13.62-7.4,0-14.17,0-21,0-10.49.06-15.9,5.48-15.9,16q0,71.69,0,143.37,0,15.93,15.82,15.92H227.33A28.08,28.08,0,0,1,223,247q-60.21,0-120.4,0c-8.76,0-12-3.23-12-11.94q0-48.28,0-96.56c0-1.3.11-2.6.19-4.27h161c.11,1.63.28,3.08.28,4.52q0,36.92,0,73.85a28.13,28.13,0,0,1,10.88,2.59q0-58.26,0-116.51C262.91,86.85,257.85,81.83,245.93,81.82ZM131.67,107.55a11.28,11.28,0,0,1-15.66.38c-4.65-4.38-4.67-11,.31-15.84.63,11.93,1.84,14.79,6.8,14.67,10.34-.25,6.6-8.84,7.86-14.54C135.76,96.56,136,103.13,131.67,107.55Zm92.21-.29a11.16,11.16,0,0,1-15.2,1.23c-5.07-4.1-5.52-10.1-.12-16.29,0,2.27-.09,4.54,0,6.81.23,5.07,2.71,7.8,7,7.83s7-2.76,7.23-7.69c.12-2.21,0-4.44,0-7.27C227.9,97.08,228.06,102.68,223.88,107.26Z"/><path class="cls-2" d="M132.79,224.37c0,10.47,0,10.47-10.73,10.47s-10.74,0-10.8-10.94c-.05-11.7-.35-10.85,10.78-10.86C133.7,213,132.82,212.4,132.79,224.37Z"/><path class="cls-3" d="M155.16,213.06c10.52,0,10.52,0,10.52,10.59,0,11.19,0,11.19-11.06,11.19-10.5,0-10.47,0-10.51-10.72C144.08,212.11,143.57,213,155.16,213.06Z"/><path class="cls-4" d="M177,223.76c0-10.7,0-10.7,10.77-10.7s10.78,0,10.78,10.7c0,11.08,0,11.08-11,11.08C177,234.84,177,234.84,177,223.76Z"/><path class="cls-5" d="M111.28,156.93c0-10.61,0-10.59,10.48-10.62,11.93,0,11-.74,11,11,0,10.72,0,10.72-11,10.72C111.28,168.05,111.28,168.05,111.28,156.93Z"/><path class="cls-6" d="M154.91,146.32c10.77,0,10.77,0,10.77,10.82s0,10.91-10.81,10.91-10.72,0-10.76-10.94C144.07,145.35,143.74,146.29,154.91,146.32Z"/><path class="cls-7" d="M177,156.84c0-10.52,0-10.52,10.55-10.53,11.51,0,11-1,11,11.1,0,10.64,0,10.56-10.59,10.66C175.46,168.18,177,167.73,177,156.84Z"/><path class="cls-8" d="M220.64,168.05c-10.83,0-10.83,0-10.83-10.85s0-10.88,10.69-10.88c10.87,0,10.87,0,10.87,10.74v.49C231.37,168.05,231.37,168.05,220.64,168.05Z"/><path class="cls-9" d="M122.05,179.16c11.51-.06,10.77-.73,10.75,10.79,0,10.92,0,10.92-10.75,10.92s-10.74,0-10.78-10.9C111.22,178.29,110.81,179.11,122.05,179.16Z"/><path class="cls-10" d="M177,190c-.06-11.56-.7-10.89,10.71-10.86,11.09,0,10.91-1.09,10.85,10.76-.05,11,0,11-10.75,11h-2.49c-8.25,0-8.32-.08-8.32-8.37Z"/><path class="cls-11" d="M231.37,189.88c0,11,0,11-11.22,11h-3.48c-6.16-.07-6.82-.72-6.86-6.86,0-3,.14-6,0-8.95-.25-4.19,1.36-6.22,5.75-5.94a66.09,66.09,0,0,0,9.44,0c4.73-.38,6.85,1.52,6.42,6.3A44.42,44.42,0,0,0,231.37,189.88Z"/><path class="cls-12" d="M154.6,200.59c-10.48,0-10.47,0-10.48-10.43,0-12.23-.81-11.08,11.31-11.1,10.25,0,10.25,0,10.25,10.17v.49C165.7,201.44,166.47,200.6,154.6,200.59Z"/><circle class="cls-13" cx="250.96" cy="241.08" r="25.04"/><path class="cls-14" d="M241.9,243.12l6,5.23a2,2,0,0,0,2.86-.22l11.61-13.63"/></svg>