<svg id="Layer_1" data-name="Layer 1" xmlns="http://www.w3.org/2000/svg" xmlns:xlink="http://www.w3.org/1999/xlink" viewBox="0 0 355.67 326.33"><defs><style>.cls-1{fill:url(#linear-gradient);}.cls-2{fill:url(#linear-gradient-2);}</style><linearGradient id="linear-gradient" x1="142.16" y1="163.16" x2="213.51" y2="163.16" gradientUnits="userSpaceOnUse"><stop offset="0" stop-color="#44b6eb"/><stop offset="0.21" stop-color="#6ce9ed"/><stop offset="0.39" stop-color="#7ce88c"/><stop offset="0.58" stop-color="#ceb9ec"/><stop offset="0.79" stop-color="#afb5f0"/><stop offset="1" stop-color="#71abe6"/></linearGradient><linearGradient id="linear-gradient-2" x1="80" y1="163.16" x2="275.67" y2="163.16" xlink:href="#linear-gradient"/></defs><path class="cls-1" d="M173.51,231.22a16.47,16.47,0,0,1-11.19-4.3A14.13,14.13,0,0,1,157.45,216a13.94,13.94,0,0,1,4.88-10.89,16.34,16.34,0,0,1,22.34.07A13.86,13.86,0,0,1,189.48,216a14.13,14.13,0,0,1-4.84,10.86A16.41,16.41,0,0,1,173.51,231.22Zm0-23.33a9,9,0,0,0-6.4,2.54,7,7,0,0,0-2.54,5.61,7.08,7.08,0,0,0,2.5,5.57,9.47,9.47,0,0,0,12.82,0,7.08,7.08,0,0,0,2.47-5.55,6.88,6.88,0,0,0-2.47-5.54A9,9,0,0,0,173.51,207.89Zm2.88-13.63h-9.91a7.44,7.44,0,0,1-7.27-5.77c-.2-.88-.39-1.83-.57-2.86a44.05,44.05,0,0,1-.67-7.52,25.07,25.07,0,0,1,2.52-11.24,43.41,43.41,0,0,1,5.8-8.81,94,94,0,0,1,7.18-7.54c2.4-2.26,4.68-4.51,6.78-6.69a33.84,33.84,0,0,0,4.82-6.32,12,12,0,0,0,1.66-6.25,10.88,10.88,0,0,0-1.15-5.17,10.54,10.54,0,0,0-3.26-3.68,16.1,16.1,0,0,0-5.16-2.39,25.06,25.06,0,0,0-6.62-.84A26.47,26.47,0,0,0,158.78,122a11.53,11.53,0,0,1-11.25-.54,11.31,11.31,0,0,1-5.37-9.68,11.53,11.53,0,0,1,6.4-10.31,60.59,60.59,0,0,1,26.87-6.39,51.38,51.38,0,0,1,14.37,2,37.23,37.23,0,0,1,12.17,6,29.32,29.32,0,0,1,8.45,10.14,30.72,30.72,0,0,1,3.09,14A33.55,33.55,0,0,1,211,140.63a47.77,47.77,0,0,1-6.19,10.44,58.19,58.19,0,0,1-7.91,8.33c-2.58,2.21-5,4.45-7.25,6.65a34.8,34.8,0,0,0-5.2,6.42,11.52,11.52,0,0,0-1.74,6.25,19.21,19.21,0,0,0,.8,5.75,7.53,7.53,0,0,1-1.08,6.75A7.35,7.35,0,0,1,176.39,194.26Zm-5.85-82.2a32,32,0,0,1,8.49,1.09,23.16,23.16,0,0,1,7.43,3.46,17.34,17.34,0,0,1,7.39,14.65,19.21,19.21,0,0,1-2.63,9.84,40.08,40.08,0,0,1-5.84,7.66c-2.17,2.27-4.54,4.61-7,7a88.32,88.32,0,0,0-6.63,7,36.45,36.45,0,0,0-4.85,7.36,18,18,0,0,0-1.77,8.08,35.77,35.77,0,0,0,.56,6.29c.15.9.32,1.72.49,2.48a.33.33,0,0,0,.33.25h9.91a.29.29,0,0,0,.25-.12.37.37,0,0,0,.05-.34,26.29,26.29,0,0,1-1.15-7.95,18.73,18.73,0,0,1,2.81-10A41.79,41.79,0,0,1,184.6,161c2.34-2.32,4.91-4.67,7.61-7a51,51,0,0,0,6.94-7.31,40.15,40.15,0,0,0,5.26-8.88,26.35,26.35,0,0,0,2-10.56,23.64,23.64,0,0,0-2.32-10.79,22.25,22.25,0,0,0-6.41-7.7,30.25,30.25,0,0,0-9.86-4.83,44.23,44.23,0,0,0-12.37-1.69,53.59,53.59,0,0,0-23.73,5.65,4.38,4.38,0,0,0-2.42,3.92,4.2,4.2,0,0,0,2,3.64,4.42,4.42,0,0,0,4.34.19A33.5,33.5,0,0,1,170.54,112.06Z"/><path class="cls-2" d="M177.83,261a97.84,97.84,0,1,1,97.84-97.84A97.95,97.95,0,0,1,177.83,261Zm0-188.55a90.72,90.72,0,1,0,90.72,90.71A90.81,90.81,0,0,0,177.83,72.45Z"/></svg>