<svg id="Layer_1" data-name="Layer 1" xmlns="http://www.w3.org/2000/svg" xmlns:xlink="http://www.w3.org/1999/xlink" viewBox="0 0 355.67 326.33"><defs><style>.cls-1,.cls-2,.cls-3,.cls-4,.cls-5,.cls-6{stroke-miterlimit:10;stroke-width:2px;}.cls-1{fill:url(#linear-gradient);stroke:url(#linear-gradient-2);}.cls-2{fill:url(#linear-gradient-3);stroke:url(#linear-gradient-4);}.cls-3{fill:url(#linear-gradient-5);stroke:url(#linear-gradient-6);}.cls-4{fill:url(#linear-gradient-7);stroke:url(#linear-gradient-8);}.cls-5{fill:url(#linear-gradient-9);stroke:url(#linear-gradient-10);}.cls-6{fill:url(#linear-gradient-11);stroke:url(#linear-gradient-12);}.cls-7{fill:url(#linear-gradient-13);}.cls-8{fill:url(#linear-gradient-14);}</style><linearGradient id="linear-gradient" x1="94.9" y1="76.01" x2="220.23" y2="76.01" gradientUnits="userSpaceOnUse"><stop offset="0" stop-color="#44b6eb"/><stop offset="0.21" stop-color="#6ce9ed"/><stop offset="0.39" stop-color="#7ce88c"/><stop offset="0.58" stop-color="#ceb9ec"/><stop offset="0.79" stop-color="#afb5f0"/><stop offset="1" stop-color="#71abe6"/></linearGradient><linearGradient id="linear-gradient-2" x1="92.97" y1="76.01" x2="222.16" y2="76.01" xlink:href="#linear-gradient"/><linearGradient id="linear-gradient-3" x1="71.8" y1="143.93" x2="243.34" y2="143.93" xlink:href="#linear-gradient"/><linearGradient id="linear-gradient-4" x1="70.8" y1="143.93" x2="244.34" y2="143.93" xlink:href="#linear-gradient"/><linearGradient id="linear-gradient-5" x1="72.95" y1="148.75" x2="242.08" y2="148.75" xlink:href="#linear-gradient"/><linearGradient id="linear-gradient-6" x1="71.63" y1="148.59" x2="243.39" y2="148.59" xlink:href="#linear-gradient"/><linearGradient id="linear-gradient-7" x1="94.17" y1="211.34" x2="220.96" y2="211.34" xlink:href="#linear-gradient"/><linearGradient id="linear-gradient-8" x1="92.27" y1="211.34" x2="222.86" y2="211.34" xlink:href="#linear-gradient"/><linearGradient id="linear-gradient-9" x1="105.03" y1="143.93" x2="210.11" y2="143.93" xlink:href="#linear-gradient"/><linearGradient id="linear-gradient-10" x1="104.03" y1="143.93" x2="211.11" y2="143.93" xlink:href="#linear-gradient"/><linearGradient id="linear-gradient-11" x1="135.29" y1="143.93" x2="179.85" y2="143.93" xlink:href="#linear-gradient"/><linearGradient id="linear-gradient-12" x1="134.29" y1="143.93" x2="180.85" y2="143.93" xlink:href="#linear-gradient"/><linearGradient id="linear-gradient-13" x1="83.34" y1="196.47" x2="316.3" y2="196.47" gradientUnits="userSpaceOnUse"><stop offset="0" stop-color="#8d86f9"/><stop offset="0.48" stop-color="#8eadfb"/><stop offset="1" stop-color="#90dbfe"/></linearGradient><linearGradient id="linear-gradient-14" x1="149.92" y1="136.98" x2="193.74" y2="136.98" xlink:href="#linear-gradient-13"/></defs><path class="cls-1" d="M157.57,93.86c-5.42,0-10.86-.19-16.17-.54-7.62-.51-15.2-1.39-22.55-2.62a211.8,211.8,0,0,1-21-4.62l-2.9-.8L97,83.16a85.79,85.79,0,0,1,121.07,0l2.13,2.13-2.9.79a210.56,210.56,0,0,1-21.05,4.62c-7.34,1.23-14.92,2.11-22.53,2.62C168.43,93.67,163,93.86,157.57,93.86ZM101.71,83.51c5.73,1.48,11.68,2.74,17.72,3.75,7.23,1.2,14.7,2.07,22.2,2.57a238.84,238.84,0,0,0,31.88,0c7.5-.5,15-1.37,22.2-2.57,6-1,12-2.27,17.72-3.75a82.3,82.3,0,0,0-111.72,0Z"/><path class="cls-2" d="M157.57,229.7a85.8,85.8,0,1,1,61.33-25.83A85.08,85.08,0,0,1,157.57,229.7Zm0-168a82.27,82.27,0,1,0,58.07,24A81.76,81.76,0,0,0,157.57,61.65Z"/><path class="cls-3" d="M157.57,158.6c-30.7,0-60-5.7-84.62-16.5l1.4-3.19c24.22,10.6,53,16.2,83.22,16.2s58.91-5.59,83.11-16.16l1.4,3.2C217.44,152.91,188.21,158.6,157.57,158.6Z"/><path class="cls-4" d="M157.57,229.7a85.07,85.07,0,0,1-61.34-25.83l-2.06-2.11L97,201a212.42,212.42,0,0,1,21.36-4.75c7.41-1.26,15.09-2.16,22.83-2.69a244,244,0,0,1,32.67,0h.07c7.74.53,15.42,1.43,22.82,2.69A209.7,209.7,0,0,1,218.12,201l2.84.79-2.06,2.11A85,85,0,0,1,157.57,229.7Zm-56.71-26.16a82.25,82.25,0,0,0,113.41,0c-5.83-1.52-11.9-2.83-18.09-3.88-7.28-1.23-14.82-2.12-22.42-2.64h-.06a241.32,241.32,0,0,0-32.27,0c-7.62.52-15.18,1.41-22.48,2.64C112.76,200.71,106.69,202,100.86,203.54Z"/><path class="cls-5" d="M157.57,229.7c-29,0-52.54-38.48-52.54-85.77s23.57-85.77,52.54-85.77,52.54,38.47,52.54,85.77S186.54,229.7,157.57,229.7Zm0-168c-27,0-49,36.91-49,82.28s22,82.28,49.05,82.28,49-36.91,49-82.28S184.61,61.65,157.57,61.65Z"/><path class="cls-6" d="M157.57,229.7c-14.47,0-22.28-44.19-22.28-85.77s7.81-85.77,22.28-85.77,22.28,44.19,22.28,85.77S172,229.7,157.57,229.7Zm0-168c-8.89,0-18.79,33.79-18.79,82.28s9.9,82.28,18.79,82.28,18.78-33.8,18.78-82.28S166.45,61.65,157.57,61.65Z"/><path class="cls-7" d="M146.21,173.38l23.49,31a10.35,10.35,0,0,0,16.28.27l64.31-79.37A10.34,10.34,0,0,1,268,128.2l47.62,129.4a10.34,10.34,0,0,1-9.71,13.92H93.7a10.34,10.34,0,0,1-9.09-15.28l44.27-81.54A10.34,10.34,0,0,1,146.21,173.38Z"/><circle class="cls-8" cx="171.83" cy="136.98" r="21.91"/></svg>