<svg id="Layer_1" data-name="Layer 1" xmlns="http://www.w3.org/2000/svg" xmlns:xlink="http://www.w3.org/1999/xlink" viewBox="0 0 355.67 326.33"><defs><style>.cls-1{fill:url(#linear-gradient);}.cls-2{fill:url(#linear-gradient-2);}.cls-3{fill:url(#linear-gradient-3);}.cls-4{fill:url(#linear-gradient-4);}.cls-5{fill:url(#linear-gradient-5);}.cls-6{fill:url(#linear-gradient-6);}.cls-7{fill:url(#linear-gradient-7);}.cls-8{fill:url(#linear-gradient-8);}.cls-9{fill:url(#linear-gradient-9);}.cls-10{fill:url(#linear-gradient-10);}.cls-11{fill:url(#linear-gradient-11);}</style><linearGradient id="linear-gradient" x1="79.25" y1="163.73" x2="265.61" y2="163.73" gradientUnits="userSpaceOnUse"><stop offset="0" stop-color="#8d86f9"/><stop offset="0.48" stop-color="#8eadfb"/><stop offset="1" stop-color="#90dbfe"/></linearGradient><linearGradient id="linear-gradient-2" x1="107.23" y1="101.53" x2="193.41" y2="101.53" xlink:href="#linear-gradient"/><linearGradient id="linear-gradient-3" x1="107.23" y1="133.97" x2="193.41" y2="133.97" xlink:href="#linear-gradient"/><linearGradient id="linear-gradient-4" x1="107.23" y1="166.41" x2="193.41" y2="166.41" xlink:href="#linear-gradient"/><linearGradient id="linear-gradient-5" x1="206.2" y1="97.54" x2="236.72" y2="97.54" xlink:href="#linear-gradient"/><linearGradient id="linear-gradient-6" x1="206.2" y1="129.98" x2="236.72" y2="129.98" xlink:href="#linear-gradient"/><linearGradient id="linear-gradient-7" x1="206.2" y1="162.43" x2="236.72" y2="162.43" xlink:href="#linear-gradient"/><linearGradient id="linear-gradient-8" x1="107.23" y1="199.18" x2="193.41" y2="199.18" xlink:href="#linear-gradient"/><linearGradient id="linear-gradient-9" x1="206.2" y1="195.2" x2="236.72" y2="195.2" xlink:href="#linear-gradient"/><linearGradient id="linear-gradient-10" x1="107.23" y1="231.96" x2="193.41" y2="231.96" xlink:href="#linear-gradient"/><linearGradient id="linear-gradient-11" x1="206.2" y1="227.97" x2="236.72" y2="227.97" xlink:href="#linear-gradient"/></defs><path class="cls-1" d="M250.52,281.8H94.34a15.11,15.11,0,0,1-15.09-15.09V60.76A15.11,15.11,0,0,1,94.34,45.67H235.49L265.61,66.8V266.71A15.11,15.11,0,0,1,250.52,281.8ZM94.34,52.79a8,8,0,0,0-8,8v206a8,8,0,0,0,8,8H250.52a8,8,0,0,0,8-8V70.5L233.24,52.79Z"/><path class="cls-2" d="M193.41,111.52H107.23v-20h86.18Z"/><path class="cls-3" d="M193.41,144H107.23V124h86.18Z"/><path class="cls-4" d="M193.41,176.4H107.23v-20h86.18Z"/><path class="cls-5" d="M212.83,107.41,206.42,94.3a2.22,2.22,0,0,1,1-3l.31-.14a2.2,2.2,0,0,1,2.95,1l3.66,7.49a2.21,2.21,0,0,0,3.45.68l15-13.39a2.2,2.2,0,0,1,3.11.18l.22.25a2.21,2.21,0,0,1-.18,3.12l-19.7,17.55A2.21,2.21,0,0,1,212.83,107.41Z"/><path class="cls-6" d="M212.83,139.85l-6.41-13.11a2.21,2.21,0,0,1,1-2.95l.3-.15a2.21,2.21,0,0,1,3,1l3.66,7.49a2.21,2.21,0,0,0,3.45.68l15-13.38a2.21,2.21,0,0,1,3.12.18l.22.25A2.2,2.2,0,0,1,236,123l-19.7,17.55A2.21,2.21,0,0,1,212.83,139.85Z"/><path class="cls-7" d="M212.83,172.29l-6.41-13.11a2.22,2.22,0,0,1,1-3l.3-.15a2.22,2.22,0,0,1,3,1l3.66,7.49a2.21,2.21,0,0,0,3.45.68l15-13.39a2.21,2.21,0,0,1,3.12.18l.22.25a2.21,2.21,0,0,1-.18,3.12L216.28,173A2.2,2.2,0,0,1,212.83,172.29Z"/><path class="cls-8" d="M193.41,209.17H107.23v-20h86.18Z"/><path class="cls-9" d="M212.83,205.07,206.42,192a2.21,2.21,0,0,1,1-3l.31-.15a2.21,2.21,0,0,1,2.95,1l3.66,7.49a2.21,2.21,0,0,0,3.45.68l15-13.39a2.21,2.21,0,0,1,3.12.18l.22.25a2.21,2.21,0,0,1-.18,3.12l-19.7,17.55A2.21,2.21,0,0,1,212.83,205.07Z"/><path class="cls-10" d="M193.41,241.94H107.23V222h86.18Z"/><path class="cls-11" d="M212.83,237.84l-6.41-13.11a2.21,2.21,0,0,1,1-2.95l.3-.15a2.22,2.22,0,0,1,3,1l3.66,7.49a2.2,2.2,0,0,0,3.45.68l15-13.38a2.21,2.21,0,0,1,3.12.18l.22.25A2.2,2.2,0,0,1,236,221l-19.7,17.55A2.21,2.21,0,0,1,212.83,237.84Z"/></svg>