<svg id="Layer_1" data-name="Layer 1" xmlns="http://www.w3.org/2000/svg" xmlns:xlink="http://www.w3.org/1999/xlink" viewBox="0 0 355.67 326.33"><defs><style>.cls-1{fill:url(#linear-gradient);}.cls-2{fill:url(#linear-gradient-2);}.cls-3{fill:url(#linear-gradient-3);}.cls-4{fill:url(#linear-gradient-4);}.cls-5{fill:url(#linear-gradient-5);}.cls-6{fill:url(#linear-gradient-6);}.cls-7{fill:url(#linear-gradient-7);}.cls-8{fill:url(#linear-gradient-8);}.cls-9{fill:url(#linear-gradient-9);}.cls-10{fill:url(#linear-gradient-10);}.cls-11{fill:url(#linear-gradient-11);}</style><linearGradient id="linear-gradient" x1="83.6" y1="163.73" x2="269.95" y2="163.73" gradientUnits="userSpaceOnUse"><stop offset="0" stop-color="#8d86f9"/><stop offset="0.48" stop-color="#8eadfb"/><stop offset="1" stop-color="#90dbfe"/></linearGradient><linearGradient id="linear-gradient-2" x1="111.58" y1="101.53" x2="197.75" y2="101.53" xlink:href="#linear-gradient"/><linearGradient id="linear-gradient-3" x1="111.58" y1="133.97" x2="197.75" y2="133.97" xlink:href="#linear-gradient"/><linearGradient id="linear-gradient-4" x1="111.58" y1="166.41" x2="197.75" y2="166.41" xlink:href="#linear-gradient"/><linearGradient id="linear-gradient-5" x1="210.54" y1="97.54" x2="241.07" y2="97.54" xlink:href="#linear-gradient"/><linearGradient id="linear-gradient-6" x1="210.54" y1="129.98" x2="241.07" y2="129.98" xlink:href="#linear-gradient"/><linearGradient id="linear-gradient-7" x1="210.54" y1="162.43" x2="241.07" y2="162.43" xlink:href="#linear-gradient"/><linearGradient id="linear-gradient-8" x1="111.58" y1="199.18" x2="197.75" y2="199.18" xlink:href="#linear-gradient"/><linearGradient id="linear-gradient-9" x1="210.54" y1="195.2" x2="241.07" y2="195.2" xlink:href="#linear-gradient"/><linearGradient id="linear-gradient-10" x1="111.58" y1="231.96" x2="197.75" y2="231.96" xlink:href="#linear-gradient"/><linearGradient id="linear-gradient-11" x1="210.54" y1="227.97" x2="241.07" y2="227.97" xlink:href="#linear-gradient"/></defs><path class="cls-1" d="M254.87,281.8H98.68A15.1,15.1,0,0,1,83.6,266.71V60.76A15.1,15.1,0,0,1,98.68,45.67H239.83L270,66.8V266.71A15.1,15.1,0,0,1,254.87,281.8ZM98.68,52.79a8,8,0,0,0-8,8v206a8,8,0,0,0,8,8H254.87a8,8,0,0,0,8-8V70.5L237.58,52.79Z"/><path class="cls-2" d="M197.75,111.52H111.58v-20h86.17Z"/><path class="cls-3" d="M197.75,144H111.58V124h86.17Z"/><path class="cls-4" d="M197.75,176.4H111.58v-20h86.17Z"/><path class="cls-5" d="M217.18,107.41,210.77,94.3a2.21,2.21,0,0,1,1-3l.3-.14a2.2,2.2,0,0,1,2.95,1l3.66,7.49a2.21,2.21,0,0,0,3.45.68l15-13.39a2.21,2.21,0,0,1,3.12.18l.22.25a2.21,2.21,0,0,1-.18,3.12l-19.7,17.55A2.21,2.21,0,0,1,217.18,107.41Z"/><path class="cls-6" d="M217.18,139.85l-6.41-13.11a2.19,2.19,0,0,1,1-2.95l.3-.15a2.2,2.2,0,0,1,2.95,1l3.66,7.49a2.21,2.21,0,0,0,3.45.68l15-13.38a2.21,2.21,0,0,1,3.12.18l.22.25a2.2,2.2,0,0,1-.18,3.11l-19.7,17.55A2.21,2.21,0,0,1,217.18,139.85Z"/><path class="cls-7" d="M217.18,172.29l-6.41-13.11a2.2,2.2,0,0,1,1-3l.3-.15a2.21,2.21,0,0,1,2.95,1l3.66,7.49a2.21,2.21,0,0,0,3.45.68l15-13.39a2.21,2.21,0,0,1,3.12.18l.22.25a2.21,2.21,0,0,1-.18,3.12L220.63,173A2.2,2.2,0,0,1,217.18,172.29Z"/><path class="cls-8" d="M197.75,209.17H111.58v-20h86.17Z"/><path class="cls-9" d="M217.18,205.07,210.77,192a2.19,2.19,0,0,1,1-3l.3-.15a2.2,2.2,0,0,1,2.95,1l3.66,7.49a2.21,2.21,0,0,0,3.45.68l15-13.39a2.21,2.21,0,0,1,3.12.18l.22.25a2.21,2.21,0,0,1-.18,3.12l-19.7,17.55A2.21,2.21,0,0,1,217.18,205.07Z"/><path class="cls-10" d="M197.75,241.94H111.58V222h86.17Z"/><path class="cls-11" d="M217.18,237.84l-6.41-13.11a2.2,2.2,0,0,1,1-2.95l.3-.15a2.21,2.21,0,0,1,2.95,1l3.66,7.49a2.2,2.2,0,0,0,3.45.68l15-13.38a2.21,2.21,0,0,1,3.12.18l.22.25a2.2,2.2,0,0,1-.18,3.11l-19.7,17.55A2.21,2.21,0,0,1,217.18,237.84Z"/></svg>